<svg width="506" height="102" viewBox="0 0 506 102" fill="none" xmlns="http://www.w3.org/2000/svg">
<mask id="mask0_105_10" style="mask-type:luminance" maskUnits="userSpaceOnUse" x="0" y="0" width="506" height="102">
<path d="M0 0H505.313V101.466H0V0Z" fill="white"/>
</mask>
<g mask="url(#mask0_105_10)">
<path d="M113.987 1.8216C106.116 1.67665 71.9584 1.58002 52.0375 1.58002H0V20.1822C41.8826 20.1822 91.5879 20.0855 113.355 20.4238C117.242 20.4721 121.081 20.8586 124.142 23.5644C127.008 26.0769 127.98 30.0389 126.717 33.4694C124.676 39.0259 118.991 40.3788 113.355 40.4754C104.707 40.6204 81.0444 40.6687 63.3584 40.6687C19.9696 40.717 38.773 40.6687 0 40.6687V59.2226C41.8826 59.2226 91.6851 59.1259 113.355 59.4641C120.109 59.5608 127.251 61.88 127.251 69.4175C127.251 76.955 120.109 79.3709 113.355 79.4675C91.7337 79.8057 41.8826 79.7091 0 79.7091V98.3113C42.0284 98.3113 97.0297 98.4562 113.987 98.0697C122.927 97.8764 136.191 95.6055 143.868 84.0093C151.108 73.1379 149.359 58.981 139.836 49.9456C149.359 40.862 151.108 26.705 143.868 15.8819C136.143 4.28578 122.927 2.06319 113.987 1.8216ZM447.882 2.10184C436.804 1.86026 420.041 1.7153 405.27 1.66699C369.218 1.52204 390.888 1.57035 356.537 1.57035V20.2208C393.123 20.2208 418.729 19.9309 446.959 20.704C455.267 20.9456 464.159 21.8153 472.176 27.3235C479.755 32.5417 484.274 40.9006 484.274 49.8877C484.274 58.8747 479.901 67.2336 472.321 72.5002C464.304 78.0083 455.413 78.878 447.104 79.1196C418.875 79.8927 393.221 79.6028 356.683 79.6028L356.537 98.2533C393.318 98.2533 419.75 98.3982 447.882 97.7218C459.154 97.4802 473.002 96.1756 485.829 87.0437C497.976 78.3949 505.313 64.8177 505.313 49.8393C505.313 34.861 497.976 21.2838 485.829 12.635V12.78C473.05 3.648 459.154 2.34343 447.882 2.10184ZM192.456 30.2805C192.407 21.2935 192.456 10.6637 192.456 1.58002H170.834C170.834 10.7603 170.64 29.4108 171.029 38.4461C171.758 55.937 177.491 61.3968 195.468 62.025C207.956 62.4598 217.819 62.3149 235.068 62.2666V43.5194C221.269 43.5194 215.632 43.5194 205.429 43.3745C195.614 43.1812 192.505 39.9923 192.456 30.2805ZM272.431 43.5194C282.538 43.5194 294.879 43.4711 299.543 43.3745C309.358 43.1812 312.468 40.0889 312.516 30.6187H312.662V1.58002H334.235V29.7973C334.186 33.0829 334.138 36.0786 334.041 38.4461C333.312 56.0819 327.53 61.4452 308.435 62.025C302.216 62.2666 285.696 62.2666 272.48 62.2666H269.905V98.3113H244.494V43.5194H272.431Z" fill="#D70C19"/>
</g>
</svg>
