<svg width="944" height="304" viewBox="0 0 944 304" fill="none" xmlns="http://www.w3.org/2000/svg">
<g clip-path="url(#clip0_51_1073)">
<path d="M912.511 206H937.081C937.081 206 945.471 223.53 928.761 231.38C912.051 239.24 846.981 237.3 846.981 237.3L735.501 237.73L726.401 244.99H699.551L291.401 225.52L276.991 241.9L249.541 244.67L123.951 232.7C123.951 232.7 110.671 246.93 96.3814 241.74C82.0914 236.56 80.9414 186.49 80.9414 186.49L106.241 114L178.561 103.04L306.881 123.68L507.091 158.27L663.621 128.24L763.731 88.6499L827.431 92.7499L879.761 137.65L912.521 206H912.511Z" fill="black"/>
<path d="M43.3218 146.18C43.3218 146.18 63.8318 108.5 137.882 103.42C211.932 98.3301 43.3218 146.18 43.3218 146.18Z" fill="#7C82A2"/>
<path d="M918.621 75.8201C918.621 75.8201 928.771 91.6101 928.771 103.01C928.771 114.41 925.641 123.56 925.261 123.68C924.881 123.8 884.291 118.42 884.291 118.42L878.281 93.6101L918.621 75.8201Z" fill="#7C82A2"/>
<path d="M589.781 33.85C589.781 33.85 588.531 24.5 583.861 25.74C579.181 26.99 578.251 30.1 577.311 40.08C576.381 50.06 561.721 74.69 547.381 79.99C533.041 85.29 524.001 85.91 508.721 86.54C493.441 87.16 361.221 85.31 358.141 89.97C355.061 94.63 363.441 103.46 364.691 103.42C365.941 103.38 507.791 118.96 507.791 118.96L567.341 107.11L604.441 64.09L590.101 36.65L589.791 33.84L589.781 33.85Z" fill="#020202"/>
<path d="M269.381 98.24L264.381 90.63L266.621 88.02C266.621 88.02 392.881 25.19 413.101 19.25C413.101 19.25 416.911 26.15 411.911 30.79C406.911 35.43 343.381 81.59 336.721 96.35C330.061 111.1 269.381 98.25 269.381 98.25V98.24Z" fill="#7C82A2"/>
<path d="M411.842 22.6201C411.842 22.6201 411.062 15.4201 414.492 14.0401C417.932 12.6601 423.742 9.33008 426.512 9.33008C429.282 9.33008 439.522 21.5101 434.812 27.6001C430.112 33.6901 368.382 79.0901 355.092 99.8501C341.802 120.61 331.012 103.42 331.012 103.42L337.382 96.5301C337.382 96.5301 344.532 80.4201 378.322 57.0601C412.112 33.7001 415.992 28.1601 411.842 22.6301V22.6201Z" fill="#020202"/>
<path d="M639.921 42.28C639.921 42.28 642.411 11.56 629.131 7.95996C615.841 4.35996 599.511 0.209961 599.511 0.209961C599.511 0.209961 602.281 26.23 595.911 39.24" fill="#020202"/>
<path d="M601.781 39.5C601.781 40.88 600.661 42 599.281 42C597.901 42 596.781 40.88 596.781 39.5V2.5C596.781 1.12 597.901 0 599.281 0C600.661 0 601.781 1.12 601.781 2.5V39.5Z" fill="#020202"/>
<path d="M51.8716 237.32C51.8716 237.32 22.7616 234.99 9.66164 228.16C-3.43836 221.32 0.601641 215.61 3.44164 215.61H19.7616C19.7616 215.61 31.3516 212.26 28.5016 196.31C25.6516 180.36 54.7216 212.25 51.8616 237.32H51.8716Z" fill="#020202"/>
<path d="M0.261553 178.66C0.261553 178.66 13.3516 182.71 18.3416 196.74C23.3416 210.78 32.3816 231.72 46.4216 236C60.4616 240.28 96.3916 241.71 96.3916 241.71C96.3916 241.71 87.3515 120.59 190.382 120.59C293.412 120.59 277.002 241.71 277.002 241.71C277.002 241.71 698.652 244.33 699.372 244.57C700.082 244.81 673.912 123.69 785.752 117.5C897.592 111.31 875.222 228.86 875.222 228.86L918.772 218.87C918.772 218.87 923.052 200.55 928.292 193.89C933.532 187.23 943.522 164.62 943.522 151.06C943.522 137.5 944.472 121.79 934.002 114.42C934.002 114.42 930.672 101.57 928.292 99.1901L926.862 115.61C926.862 115.61 914.012 117.75 907.592 112.04C901.162 106.33 888.322 98.0001 888.082 95.6201C887.842 93.2401 920.682 78.0101 922.822 75.3901C924.962 72.7701 924.722 67.7801 921.872 67.3001C919.012 66.8201 910.452 71.1101 897.842 71.1101C885.232 71.1101 836.212 69.4401 816.462 63.7301C796.712 58.0201 694.872 38.7401 674.172 36.8401C653.472 34.9401 598.742 29.9401 587.082 30.8901C587.082 30.8901 569.712 85.8601 533.782 90.3801C497.852 94.9001 385.542 95.8501 385.542 95.8501L266.802 91.0901L266.662 88.0001C266.662 88.0001 166.862 85.1401 129.982 101.56C129.982 101.56 122.602 106.79 113.802 108.22C105.002 109.65 65.7316 128.21 48.6016 134.39C31.4716 140.58 7.67155 147.95 3.15155 161.99C-1.36845 176.03 0.301553 178.65 0.301553 178.65L0.261553 178.66Z" fill="#9C0010"/>
<path d="M393.161 63.49L398.341 61.2L400.761 61.22C400.761 61.22 404.701 68.74 403.681 75.4C402.661 82.05 401.411 88.66 401.411 88.66H396.531L393.171 63.49H393.161Z" fill="#060405"/>
<path d="M357.461 94.7299C357.461 94.7299 366.151 85.5799 367.511 82.5099C368.881 79.4399 367.171 72.0999 372.631 68.8599C378.091 65.6199 386.451 60.7799 398.401 61.3199C398.401 61.3199 404.541 69.1999 399.251 88.6499C399.251 88.6499 388.331 91.3799 384.581 88.3099C384.581 88.3099 380.141 95.8199 381.171 98.3799C382.191 100.94 357.481 96.7099 357.461 94.7299Z" fill="#9C0010"/>
<path d="M757.702 122.11C757.602 121.97 746.382 107.33 733.772 87.07C724.442 72.08 711.882 74.4501 704.372 75.8701C701.622 76.3901 699.642 76.7701 698.462 76.2201C695.292 74.7401 687.542 63.0101 682.412 55.2401C680.732 52.7001 679.412 50.7 678.732 49.78C675.982 46.11 673.802 37.17 673.712 36.8L674.582 36.82C674.602 36.91 676.792 45.73 679.432 49.25C680.132 50.18 681.462 52.2 683.152 54.75C687.912 61.96 695.892 74.0401 698.842 75.4101C699.762 75.8401 701.722 75.47 704.222 74.99C711.952 73.53 724.872 71.0801 734.522 86.5801C747.112 106.8 758.532 121.68 758.632 121.82L757.702 122.09V122.11Z" fill="#161615"/>
<path d="M843.731 130.08L842.991 129.6C851.431 128.27 891.201 99.73 891.561 99.46L892.241 100.02C890.761 101.13 852.391 128.71 843.741 130.08H843.731Z" fill="#161615"/>
<path d="M120.281 140.55C118.701 140.55 116.741 139.59 114.331 138.4C112.301 137.4 110.001 136.27 107.451 135.49C101.551 133.67 81.3314 121.67 80.4814 121.16L81.4415 120.75C81.6515 120.87 101.901 132.87 107.701 134.65C110.321 135.46 112.651 136.6 114.711 137.62C117.171 138.83 119.301 139.87 120.691 139.65C123.441 139.19 131.661 139.71 131.991 139.73L130.941 140.62C130.861 140.62 123.481 140.07 120.831 140.51C120.651 140.54 120.461 140.56 120.261 140.56L120.281 140.55Z" fill="#161615"/>
<path d="M669.532 230.17C669.532 230.17 664.002 230.29 654.312 230.49C644.632 230.63 630.792 230.95 614.192 231.13C597.592 231.3 578.222 231.62 557.472 231.75C536.722 231.88 514.582 232.02 492.452 232.16C470.312 232.18 448.182 232.19 427.422 232.21C406.672 232.24 387.302 232.05 370.692 231.99C354.092 231.93 340.252 231.7 330.572 231.63C320.892 231.49 315.352 231.42 315.352 231.42C315.352 231.42 320.882 231.3 330.572 231.1C340.252 230.96 354.092 230.64 370.692 230.46C387.292 230.29 406.662 229.96 427.412 229.85C448.162 229.72 470.302 229.58 492.432 229.44C514.572 229.42 536.702 229.41 557.462 229.39C578.212 229.37 597.582 229.55 614.182 229.61C630.782 229.68 644.622 229.89 654.302 229.97C663.992 230.1 669.522 230.18 669.522 230.18L669.532 230.17Z" fill="#B50B24"/>
<path d="M409.111 233.56C378.431 233.56 353.361 233.27 348.141 232.4C334.511 230.13 330.561 212.34 330.181 210.45C329.571 209.27 326.151 201.34 317.851 160.27C308.791 115.41 320.631 94.5399 321.141 93.6799L322.651 94.5699C322.531 94.7799 310.651 115.81 319.571 159.93C328.411 203.69 331.631 209.47 331.761 209.7L331.841 209.83L331.881 209.99C331.921 210.18 335.551 228.53 348.441 230.68C356.061 231.95 416.131 231.86 451.261 231.69C499.631 231.46 544.861 230.89 546.551 230.67C549.081 230.25 562.941 218.97 574.091 191.7C585.341 164.18 610.691 103.7 610.951 103.09L611.021 102.96C611.051 102.91 614.371 97.4499 610.931 87.1299C607.261 76.0999 616.761 33.7399 617.171 31.9399L618.881 32.3299C618.781 32.7699 609.071 76.0199 612.591 86.5799C616.141 97.2399 612.991 103.1 612.541 103.84C611.601 106.09 586.801 165.25 575.711 192.38C564.121 220.73 549.671 231.95 546.831 232.42C546.181 232.53 467.501 233.58 409.121 233.58L409.111 233.56Z" fill="#161615"/>
<path d="M220.976 271.352C257.359 253.866 272.677 210.197 255.191 173.814C237.705 137.432 194.036 122.113 157.653 139.6C121.271 157.086 105.952 200.755 123.439 237.138C140.925 273.52 184.594 288.838 220.976 271.352Z" fill="#27262C"/>
<path d="M134.262 205.48C134.262 235.97 158.982 260.69 189.482 260.69C219.982 260.69 244.692 235.97 244.692 205.48C244.692 174.99 219.972 150.26 189.482 150.26C158.992 150.26 134.262 174.98 134.262 205.48Z" fill="#C3BFBE"/>
<path d="M170.322 168.46L183.102 182.98C183.102 182.98 185.302 186.47 188.332 186.47C191.362 186.47 193.552 184.03 193.552 184.03L206.912 168.46C206.912 168.46 208.772 166.25 206.912 164.74C205.052 163.23 198.532 161.02 189.482 161.02C180.432 161.02 167.062 163.46 170.322 168.45V168.46Z" fill="#27262C"/>
<path d="M170.322 242.5L183.102 227.98C183.102 227.98 185.312 224.5 188.332 224.5C191.352 224.5 193.562 226.94 193.562 226.94L206.922 242.51C206.922 242.51 208.782 244.72 206.922 246.23C205.062 247.74 198.542 249.95 189.492 249.95C180.442 249.95 167.082 247.51 170.332 242.52L170.322 242.5Z" fill="#27262C"/>
<path d="M226.952 187.02L212.432 199.8C212.432 199.8 208.942 202.01 208.942 205.03C208.942 208.05 211.382 210.26 211.382 210.26L226.952 223.62C226.952 223.62 229.162 225.48 230.672 223.62C232.182 221.76 234.392 215.24 234.392 206.19C234.392 197.14 231.952 183.78 226.952 187.03V187.02Z" fill="#27262C"/>
<path d="M152.922 187.02L167.442 199.8C167.442 199.8 170.922 202.01 170.922 205.03C170.922 208.05 168.482 210.26 168.482 210.26L152.912 223.62C152.912 223.62 150.702 225.48 149.192 223.62C147.682 221.76 145.472 215.24 145.472 206.19C145.472 197.14 147.912 183.78 152.912 187.03L152.922 187.02Z" fill="#27262C"/>
<path d="M813.406 271.359C849.788 253.873 865.107 210.204 847.62 173.821C830.134 137.439 786.465 122.12 750.082 139.606C713.7 157.093 698.381 200.762 715.868 237.144C733.354 273.527 777.023 288.845 813.406 271.359Z" fill="#27262C"/>
<path d="M726.701 205.48C726.701 235.97 751.421 260.69 781.921 260.69C812.421 260.69 837.131 235.97 837.131 205.48C837.131 174.99 812.411 150.26 781.921 150.26C751.431 150.26 726.701 174.98 726.701 205.48Z" fill="#C3BFBE"/>
<path d="M762.762 168.46L775.542 182.98C775.542 182.98 777.752 186.47 780.772 186.47C783.792 186.47 786.002 184.03 786.002 184.03L799.362 168.46C799.362 168.46 801.222 166.25 799.362 164.74C797.502 163.23 790.982 161.02 781.932 161.02C772.882 161.02 759.512 163.46 762.772 168.45L762.762 168.46Z" fill="#27262C"/>
<path d="M762.762 242.5L775.542 227.98C775.542 227.98 777.752 224.5 780.772 224.5C783.792 224.5 786.002 226.94 786.002 226.94L799.362 242.51C799.362 242.51 801.222 244.72 799.362 246.23C797.502 247.74 790.982 249.95 781.932 249.95C772.882 249.95 759.512 247.51 762.772 242.52L762.762 242.5Z" fill="#27262C"/>
<path d="M819.391 187.02L804.871 199.8C804.871 199.8 801.381 202.01 801.381 205.03C801.381 208.05 803.821 210.26 803.821 210.26L819.391 223.62C819.391 223.62 821.601 225.48 823.111 223.62C824.621 221.76 826.831 215.24 826.831 206.19C826.831 197.14 824.391 183.78 819.391 187.03V187.02Z" fill="#27262C"/>
<path d="M745.351 187.02L759.871 199.8C759.871 199.8 763.351 202.01 763.351 205.03C763.351 208.05 760.911 210.26 760.911 210.26L745.341 223.62C745.341 223.62 743.131 225.48 741.621 223.62C740.111 221.76 737.901 215.24 737.901 206.19C737.901 197.14 740.341 183.78 745.331 187.03L745.351 187.02Z" fill="#27262C"/>
</g>
<defs>
<clipPath id="clip0_51_1073">
<rect width="943.57" height="303.021" fill="white"/>
</clipPath>
</defs>
</svg>
