<svg width="1075" height="443" viewBox="0 0 1075 443" fill="none" xmlns="http://www.w3.org/2000/svg">
<g clip-path="url(#clip0_55_1381)">
<path d="M53.245 363.987C53.245 363.987 78.375 383.017 79.925 381.917C81.475 380.817 78.745 374.227 79.925 373.057C81.105 371.897 97.445 367.867 97.445 367.867L264.605 377.837C264.605 377.837 288.905 380.067 293.475 378.027C298.045 375.977 774.625 362.237 774.625 362.237L780.015 368.057C780.015 368.057 793.935 363.667 802.475 374.647C811.015 385.637 1007.09 362.547 1011.24 368.057C1015.38 373.567 1000.22 213.887 1000.22 213.887L600.405 235.197L138.275 212.167C138.275 212.167 36.895 287.727 53.245 363.987Z" fill="#010101"/>
<path d="M468.265 23.4771C468.265 23.4771 487.985 7.44709 511.905 5.22709C535.825 3.00709 847.005 -3.89291 919.245 5.71709C991.495 15.3371 711.875 88.5671 711.875 88.5671L468.265 23.4771Z" fill="#C9CDD6"/>
<path d="M260.155 149.237C260.155 149.237 433.505 31.1271 446.325 29.1571C459.145 27.1871 465.555 38.5271 465.555 38.5271L269.775 165.017L260.155 149.237Z" fill="#9599A5"/>
<path d="M287.815 149.197C287.815 149.197 387.345 70.4871 450.765 30.4871L435.805 33.7371C435.805 33.7371 460.845 3.48709 655.995 9.66709C851.145 15.8471 934.075 11.6171 983.845 17.1471C983.845 17.1471 991.605 15.6871 992.305 33.4071C992.305 33.4071 972.465 42.8371 973.115 48.0471C973.765 53.2471 881.725 138.467 881.725 138.467L494.035 160.257L287.825 149.197H287.815Z" fill="#2C3033"/>
<path d="M1050.77 295.867L1053.31 246.017C1053.31 246.017 1066.69 248.097 1068.54 257.557C1070.38 267.017 1081 317.357 1068.54 323.097C1056.08 328.847 1067.85 344.327 1067.85 344.327L1051.47 364.177C1051.47 364.177 1033.93 306.247 1050.78 295.867H1050.77Z" fill="#222526"/>
<path d="M23.4548 253.907C23.4548 253.907 9.41481 255.717 7.14481 275.657C4.88481 295.587 2.16481 334.547 10.3148 356.747C18.4648 378.947 25.2648 361.097 25.2648 361.097L23.4548 253.917V253.907Z" fill="#222526"/>
<path d="M9.66486 330.667C10.4149 342.627 9.77486 352.407 8.22486 352.507C6.68486 352.607 4.81487 342.987 4.06487 331.017C3.31487 319.057 3.95486 309.277 5.49486 309.177C7.04486 309.077 8.90487 318.697 9.65487 330.667H9.66486Z" fill="#BABABA"/>
<path d="M1020.89 118.347C1020.89 118.347 1028.35 114.937 1029.62 118.347C1030.9 121.757 1025.78 125.507 1023.16 125.857C1020.54 126.197 1020.88 118.347 1020.88 118.347H1020.89Z" fill="#252527"/>
<path d="M992.775 29.4672C992.775 29.4672 975.425 24.1272 970.315 50.8172C965.195 77.5072 966.535 146.227 966.535 146.227L1002.35 199.157L1037.94 209.887C1037.94 209.887 1034.15 204.047 1032.59 187.817C1032.59 187.817 1030.59 185.147 1030.59 179.807C1030.59 174.467 1022.36 131.097 1026.14 129.987C1026.14 129.987 1015.24 75.4972 992.775 29.4572V29.4672Z" fill="#6C6A6B"/>
<path d="M63.3845 179.927C63.3845 179.927 48.0845 187.847 46.4845 191.047C44.8945 194.237 32.2545 214.867 35.1345 235.687C38.0145 256.497 65.3345 245.077 65.3345 245.077L100.555 224.917L152.865 173.157C152.865 173.157 77.7945 168.607 63.3845 179.937V179.927Z" fill="#B6B5BD"/>
<path d="M988.764 42.2871L998.664 62.9971C998.664 62.9971 993.604 68.9771 995.444 77.2671C997.284 85.5471 1007.87 135.487 1010.86 140.327C1013.85 145.157 1021.67 153.217 1021.9 156.667C1022.13 160.117 1024.66 184.057 1024.66 184.057C1024.66 184.057 992.674 160.817 988.764 150.227C984.854 139.637 976.794 60.9371 979.554 53.5671C982.314 46.2071 988.764 42.2871 988.764 42.2871Z" fill="#A93D3D"/>
<path d="M1001.83 74.2771C1001.83 74.2771 999.124 76.8071 1000.73 83.2571C1002.34 89.6971 1010.85 134.347 1013.85 137.567C1016.84 140.787 1017.99 143.547 1018.68 141.937C1019.37 140.327 1006.79 82.6571 1001.83 74.2771Z" fill="#E1E1EA"/>
<path d="M1026.93 159.177C1026.93 159.177 1022.53 130.407 1024.67 129.267C1026.81 128.127 1032.04 141.777 1033.97 159.517C1035.91 177.257 1035.45 187.607 1032.95 188.057C1030.45 188.507 1028.17 168.837 1026.92 159.167L1026.93 159.177Z" fill="#861C1E"/>
<path d="M176.575 220.387C295.715 220.387 312.485 348.587 312.485 348.587L753.275 344.057C753.275 344.057 758.715 213.897 902.315 213.897C1002.15 213.897 1029.62 325.027 1029.62 325.027L1051.77 323.847C1051.31 323.817 1050.99 323.867 1050.99 323.867C1050.23 322.337 1052.15 302.487 1053.29 299.047C1054.43 295.607 1055.58 278.047 1055.58 278.047C1055.58 278.047 1056.73 271.167 1055.58 247.877C1054.43 224.587 1043.35 218.477 1042.2 216.947C1041.06 215.417 1036.09 206.687 1036.09 206.687C1036.09 206.687 1012.03 187.547 994.475 173.037C976.915 158.527 975.385 147.837 973.475 131.797C971.565 115.757 971.075 47.3872 971.075 47.3872L908.175 44.3572C913.515 50.8472 881.825 101.257 874.575 113.477C867.325 125.697 847.845 124.937 847.845 124.937L603.835 133.337L325.835 144.237C325.835 144.237 271.615 147.847 258.625 146.317C245.645 144.787 174.615 155.487 120.395 163.117C66.175 170.757 50.515 186.797 50.515 186.797C50.515 186.797 39.435 197.107 53.955 185.647C68.465 174.187 121.925 174.577 128.415 174.957C134.905 175.337 138.345 180.307 138.345 180.307C130.325 182.597 86.795 216.587 74.955 223.847C63.115 231.107 52.415 234.547 43.255 234.547C34.095 234.547 34.845 228.247 34.845 228.247C24.915 242.547 21.865 236.357 16.895 249.337C11.935 262.317 17.975 338.927 17.975 338.927L53.375 340.227C53.375 340.227 57.435 220.377 176.575 220.377V220.387Z" fill="#6E1213"/>
<path d="M1060.46 324.597C1060.46 336.137 1062.71 345.487 1065.5 345.487C1068.29 345.487 1070.53 336.137 1070.53 324.597C1070.53 313.057 1068.28 303.707 1065.5 303.707C1062.72 303.707 1060.46 313.057 1060.46 324.597Z" fill="#C4C3C8"/>
<path d="M383.825 137.017L582.265 129.847L606.495 37.8271H473.765C473.765 37.8271 385.185 99.6972 380.345 108.727C375.505 117.757 383.825 137.017 383.825 137.017Z" fill="#C9CDD6"/>
<path d="M641.325 38.7271L628.425 127.247L820.705 121.347L825.865 71.1171L811.985 42.287L641.325 38.7271Z" fill="#C9CDD6"/>
<path d="M825.865 42.2871L858.775 116.837C858.775 116.837 860.385 120.157 867.815 111.437C875.235 102.727 900.075 58.2071 900.075 58.2071C900.075 58.2071 903.625 53.0471 900.075 48.5271C896.525 44.0071 884.915 44.6671 884.915 44.6671L825.875 42.2871H825.865Z" fill="#C9CDD6"/>
<path d="M246.765 172.237C246.765 172.237 253.075 188.537 272.285 187.937C291.495 187.337 304.335 185.837 304.335 185.837C304.335 185.837 307.635 170.147 308.905 168.107L246.765 172.237Z" fill="#80676A"/>
<path d="M312.855 348.847C294.595 293.777 303.795 191.187 304.095 187.927C303.995 186.257 303.235 164.987 324.155 142.587C345.285 119.967 469.265 30.487 470.515 29.587L470.755 29.417H471.055L785.675 33.287C789.645 33.267 883.595 32.737 899.725 36.317C904.825 37.447 908.395 39.827 910.325 43.367C913.535 49.247 911.065 56.137 910.965 56.427L909.265 55.807C909.285 55.747 911.555 49.377 908.735 44.227C907.055 41.167 903.895 39.097 899.335 38.087C883.405 34.547 786.655 35.097 785.675 35.097L471.345 31.237C465.135 35.717 346.065 121.817 325.495 143.827C304.725 166.057 305.905 187.667 305.925 187.877V187.947V188.017C305.825 189.057 296.245 292.947 314.585 348.267L312.865 348.837L312.855 348.847Z" fill="#161616"/>
<path d="M308.825 167.142L138.281 179.486L138.412 181.291L308.956 168.947L308.825 167.142Z" fill="#161616"/>
<path d="M300.705 175.077H259.025C259.025 175.077 258.125 182.157 267.785 184.927C267.785 184.927 298.795 184.927 300.705 183.127C302.605 181.327 300.705 175.077 300.705 175.077Z" fill="white"/>
<path d="M381.565 99.4571L385.745 95.7971H391.315C391.315 95.7971 394.645 97.2871 394.965 114.367C395.295 131.457 393.045 135.747 388.265 136.587C383.485 137.427 381.565 99.4471 381.565 99.4471V99.4571Z" fill="#1C181A"/>
<path d="M350.745 124.067C350.745 124.067 354.855 137.217 362.745 138.207C370.635 139.197 387.075 137.387 389.375 136.237C391.675 135.087 391.665 111.717 390.355 107.617C389.045 103.517 368.005 106.647 368.005 106.647L359.295 112.237L357.325 120.617C357.325 120.617 350.915 121.277 350.745 124.067Z" fill="#2A2426"/>
<path d="M358.785 119.997C358.785 119.997 359.455 121.517 361.595 119.997C363.735 118.477 369.585 114.357 391.155 115.347L390.445 108.647C390.445 108.647 354.495 104.257 358.785 119.997Z" fill="#E3E8EB"/>
<path d="M356.175 121.277C356.175 121.277 356.995 98.757 375.735 96.787C394.475 94.817 386.585 95.797 386.585 95.797C386.585 95.797 389.375 93.327 390.535 109.767C390.535 109.767 368.675 109.767 364.565 111.407C360.455 113.047 358.645 115.027 358.815 119.137C358.975 123.247 356.185 121.277 356.185 121.277H356.175Z" fill="#DA2C2E"/>
<path d="M592.184 347.317C590.754 342.077 589.714 311.347 589.034 291.017C588.834 285.207 588.664 280.187 588.534 277.047C587.974 264.187 591.464 178.957 593.984 164.857C596.314 151.807 604.984 130.497 605.624 128.947L623.584 32.217L625.364 32.547L607.374 129.457L607.334 129.547C607.244 129.767 598.144 151.887 595.774 165.177C593.474 178.077 589.714 262.257 590.354 276.977C590.494 280.117 590.654 285.147 590.854 290.967C591.494 309.977 592.564 341.807 593.944 346.847L592.194 347.327L592.184 347.317Z" fill="#161616"/>
<path d="M312.485 348.587C312.485 348.587 295.725 220.387 176.575 220.387C57.4247 220.387 53.3747 340.237 53.3747 340.237L17.9747 338.937C9.49475 338.327 11.1847 343.367 11.1847 344.887C11.1847 346.407 8.89475 349.087 7.36475 350.997C5.83475 352.907 2.78475 348.707 0.104747 363.217C-2.56525 377.727 46.6947 378.877 46.6947 378.877C47.8347 381.167 52.8047 381.927 52.8047 381.927C74.1947 385.367 79.9147 381.927 79.9147 381.927C50.5147 340.307 95.1847 232.617 183.395 245.607C296.015 262.187 287.105 378.047 287.105 378.047H785.585C782.975 369.377 782.455 357.357 784.325 344.067H753.265L312.475 348.597L312.485 348.587Z" fill="#2C3033"/>
<path d="M1072.37 352.897C1069.7 350.227 1068.55 336.477 1068.55 336.477C1068.55 336.477 1065.5 347.937 1062.44 347.547C1059.39 347.167 1056.71 334.567 1056.08 328.837C1055.61 324.607 1053.06 323.917 1051.76 323.847L1029.62 325.027C1029.62 325.027 1002.15 213.897 902.314 213.897C758.704 213.897 753.274 344.057 753.274 344.057H784.334C790.664 299.037 824.534 239.527 898.244 246.897C1022.49 259.317 1004.02 374.657 1004.02 374.657C1004.02 374.657 1042.97 371.217 1059.39 367.787C1075.81 364.347 1075.04 355.567 1072.37 352.897Z" fill="#2C3033"/>
<path d="M769.725 345.547L767.915 345.417C772.685 281.497 815.655 253.897 841.335 237.407C845.095 234.997 848.335 232.907 851.045 230.977C868.975 218.167 869.165 181.067 869.275 158.897C869.295 155.317 869.305 152.227 869.385 149.547C869.965 130.397 853.965 120.337 853.805 120.247L853.565 120.097L853.455 119.837L815.675 35.177L817.325 34.437L854.995 118.857C857.085 120.247 871.765 130.717 871.195 149.607C871.115 152.267 871.095 155.347 871.075 158.917C870.955 181.437 870.775 219.117 852.085 232.467C849.335 234.427 846.075 236.527 842.295 238.947C816.905 255.257 774.405 282.547 769.705 345.567L769.725 345.547Z" fill="#161616"/>
<path d="M293.475 363.837C293.665 367.837 297.385 371.837 301.965 371.837H767.865C772.445 371.837 776.165 367.837 776.355 363.837H293.475Z" fill="#C4C3C8"/>
<path d="M564.435 182.597C564.925 190.697 559.535 197.357 552.415 197.787L543.825 198.307C536.705 198.737 530.555 192.777 530.065 184.667C529.575 176.567 534.965 169.907 542.085 169.477L550.675 168.957C557.795 168.527 563.945 174.487 564.435 182.597Z" fill="#4D1216"/>
<path d="M585.195 181.927C585.275 184.577 583.315 186.787 580.815 186.867L517.425 188.837C514.925 188.917 512.835 186.827 512.745 184.177C512.665 181.527 514.625 179.307 517.125 179.237L580.515 177.267C583.015 177.187 585.105 179.277 585.195 181.927Z" fill="#C4C3C8"/>
<path d="M831.714 171.717C832.204 179.817 826.814 186.477 819.694 186.907L811.104 187.427C803.984 187.857 797.834 181.897 797.344 173.787C796.854 165.687 802.244 159.027 809.364 158.597L817.954 158.077C825.074 157.647 831.224 163.607 831.714 171.717Z" fill="#4D1216"/>
<path d="M852.475 171.057C852.555 173.707 850.595 175.917 848.095 175.997L784.705 177.967C782.205 178.047 780.115 175.957 780.025 173.307C779.945 170.657 781.905 168.447 784.405 168.367L847.795 166.397C850.295 166.317 852.385 168.407 852.475 171.057Z" fill="#C4C3C8"/>
<path d="M274.945 350.457C274.945 401.517 233.555 442.907 182.505 442.907C131.455 442.907 90.0649 401.517 90.0649 350.457C90.0649 299.397 131.455 258.017 182.505 258.017C233.555 258.017 274.945 299.407 274.945 350.457Z" fill="#27262C"/>
<path d="M112.885 350.457C112.885 389.027 144.155 420.297 182.725 420.297C221.295 420.297 252.555 389.027 252.555 350.457C252.555 311.887 221.295 280.627 182.725 280.627C144.155 280.627 112.885 311.897 112.885 350.457Z" fill="#C3BFBE"/>
<path d="M158.485 303.637L174.645 322.007C174.645 322.007 177.435 326.417 181.255 326.417C185.075 326.417 187.865 323.327 187.865 323.327L204.765 303.637C204.765 303.637 207.115 300.847 204.765 298.937C202.415 297.027 194.165 294.237 182.715 294.237C171.265 294.237 154.365 297.317 158.475 303.637H158.485Z" fill="#27262C"/>
<path d="M158.485 397.277L174.645 378.907C174.645 378.907 177.445 374.497 181.255 374.497C185.065 374.497 187.875 377.577 187.875 377.577L204.765 397.267C204.765 397.267 207.115 400.057 204.765 401.967C202.415 403.877 194.165 406.667 182.725 406.667C171.285 406.667 154.375 403.577 158.485 397.267V397.277Z" fill="#27262C"/>
<path d="M230.115 327.107L211.755 343.267C211.755 343.267 207.345 346.057 207.345 349.877C207.345 353.697 210.435 356.487 210.435 356.487L230.125 373.387C230.125 373.387 232.915 375.737 234.825 373.387C236.735 371.037 239.535 362.787 239.535 351.337C239.535 339.887 236.445 322.987 230.125 327.107H230.115Z" fill="#27262C"/>
<path d="M136.475 327.107L154.845 343.267C154.845 343.267 159.255 346.057 159.255 349.877C159.255 353.697 156.165 356.487 156.165 356.487L136.475 373.387C136.475 373.387 133.685 375.737 131.765 373.387C129.855 371.037 127.065 362.787 127.065 351.337C127.065 339.887 130.155 322.987 136.475 327.107Z" fill="#27262C"/>
<path d="M981.765 350.457C981.765 401.517 940.375 442.907 889.315 442.907C838.255 442.907 796.875 401.517 796.875 350.457C796.875 299.397 838.265 258.017 889.315 258.017C940.365 258.017 981.765 299.407 981.765 350.457Z" fill="#27262C"/>
<path d="M819.705 350.457C819.705 389.027 850.975 420.297 889.545 420.297C928.115 420.297 959.375 389.027 959.375 350.457C959.375 311.887 928.115 280.627 889.545 280.627C850.975 280.627 819.705 311.897 819.705 350.457Z" fill="#C3BFBE"/>
<path d="M865.305 303.637L881.465 322.007C881.465 322.007 884.255 326.417 888.075 326.417C891.895 326.417 894.695 323.327 894.695 323.327L911.585 303.637C911.585 303.637 913.935 300.847 911.585 298.937C909.235 297.027 900.995 294.237 889.545 294.237C878.095 294.237 861.195 297.317 865.305 303.637Z" fill="#27262C"/>
<path d="M865.305 397.277L881.465 378.907C881.465 378.907 884.265 374.497 888.075 374.497C891.885 374.497 894.695 377.577 894.695 377.577L911.585 397.267C911.585 397.267 913.945 400.057 911.585 401.967C909.235 403.877 900.985 406.667 889.545 406.667C878.105 406.667 861.195 403.577 865.315 397.267L865.305 397.277Z" fill="#27262C"/>
<path d="M936.924 327.107L918.564 343.267C918.564 343.267 914.154 346.057 914.154 349.877C914.154 353.697 917.244 356.487 917.244 356.487L936.934 373.387C936.934 373.387 939.724 375.737 941.634 373.387C943.554 371.037 946.344 362.787 946.344 351.337C946.344 339.887 943.254 322.987 936.934 327.107H936.924Z" fill="#27262C"/>
<path d="M843.295 327.107L861.665 343.267C861.665 343.267 866.075 346.057 866.075 349.877C866.075 353.697 862.985 356.487 862.985 356.487L843.295 373.387C843.295 373.387 840.505 375.737 838.585 373.387C836.675 371.037 833.885 362.787 833.885 351.337C833.885 339.887 836.975 322.987 843.295 327.107Z" fill="#27262C"/>
</g>
<defs>
<clipPath id="clip0_55_1381">
<rect width="1074.51" height="442.157" fill="white" transform="translate(0 0.749756)"/>
</clipPath>
</defs>
</svg>
