<svg width="972" height="339" viewBox="0 0 972 339" fill="none" xmlns="http://www.w3.org/2000/svg">
<g clip-path="url(#clip0_55_1487)">
<path d="M431.357 19.1646C431.357 19.1646 380.656 33.1445 273.836 106.205L268.417 134.995L370.857 124.985C370.857 124.985 446.797 44.2446 446.797 42.9946C446.797 41.7446 431.357 19.1646 431.357 19.1646Z" fill="#C5D6E2"/>
<path d="M247.757 109.344L262.987 106.214C262.987 106.214 271.537 96.6144 275.507 97.4544C279.467 98.2844 284.267 98.9144 281.977 101.414C279.687 103.914 277.387 115.814 269.457 119.354C261.527 122.904 242.547 119.984 247.757 109.334V109.344Z" fill="#000308"/>
<path d="M84.0263 276.965L102.886 299.325C102.886 299.325 109.206 300.945 116.336 293.825C123.466 286.695 237.976 301.925 237.976 301.925C237.976 301.925 261.746 301.975 275.996 301.885C290.246 301.795 646.146 286.125 646.146 286.125L701.316 299.335C701.316 299.335 721.086 295.075 730.656 296.685C740.226 298.295 847.616 293.355 847.616 293.355C847.616 293.355 878.506 298.865 883.256 289.455C888.006 280.045 923.626 157.925 828.366 156.025C733.106 154.125 299.846 227.305 299.846 227.305L186.176 160.305L87.3363 190.995L84.0063 276.975L84.0263 276.965Z" fill="#000308"/>
<path d="M971.086 184.245C972.756 175.275 959.816 170.895 959.816 170.895C959.816 170.895 961.276 165.265 959.816 156.705C958.356 148.155 954.806 121.235 950.846 113.725C946.886 106.215 943.906 105.365 943.906 105.365L943.126 109.975C935.326 106.015 903.786 101.625 897.726 100.585C891.676 99.5445 883.446 93.2845 864.676 73.4645C845.896 53.6445 837.966 31.7345 837.966 31.7345L850.486 22.1345C853.196 16.2945 820.236 14.2045 820.236 14.2045C808.766 12.9545 663.556 0.644547 578.646 0.0145473C493.736 -0.615453 427.806 19.4145 424.256 21.7145C420.706 24.0045 422.796 30.8945 422.796 30.8945C404.856 34.0245 290.936 112.475 283.846 114.345C276.756 116.225 258.606 117.055 251.296 113.925C243.996 110.795 260.056 106.835 260.056 106.835C260.056 106.835 219.786 106.415 118.396 130.825C17.0064 155.245 6.15645 181.525 4.69645 187.165C3.23645 192.795 1.14645 201.555 1.14645 201.555C-0.313552 209.065 0.526448 233.475 0.136448 236.185C-0.253552 238.895 0.316448 240.985 0.316448 240.985C0.196448 241.985 0.146448 242.945 0.146448 243.885C3.28645 244.185 7.61645 244.535 10.8264 244.535C16.4664 244.535 30.5564 246.955 29.8764 254.865C29.2064 262.785 32.4264 270.695 21.0164 272.985C11.0764 274.975 6.02645 275.435 2.67645 271.695C2.34645 272.125 2.04645 272.585 1.79645 273.105C0.126448 276.655 4.95645 278.425 4.95645 278.425C21.2264 289.605 102.866 299.325 102.866 299.325C92.9764 272.745 92.7265 183.415 180.556 182.785C268.386 182.155 269.846 301.915 269.846 301.915L701.296 299.325C696.076 283.385 685.436 186.965 783.706 187.165C881.976 187.375 874.546 294.295 874.546 294.295H875.716C886.986 294.295 909.306 287.565 916.816 286.315C924.326 285.065 948.946 271.455 957.706 266.445C966.466 261.435 964.176 232.645 964.176 228.895C964.176 225.145 959.796 211.995 960.626 206.785C961.466 201.565 969.386 193.225 971.056 184.255L971.086 184.245Z" fill="#3F3F3F"/>
<path d="M21.0264 272.975C32.4363 270.695 29.2163 262.775 29.8863 254.855C30.5563 246.935 16.4664 244.525 10.8364 244.525C7.62635 244.525 3.29635 244.175 0.15635 243.875C0.12635 254.355 6.83635 261.305 7.22635 264.755C7.58635 267.965 4.60635 269.185 2.69635 271.685C6.04635 275.425 11.0964 274.965 21.0364 272.975H21.0264Z" fill="#5E5E5E"/>
<path d="M847.236 20.0845C847.236 20.0845 850.756 21.9445 856.136 25.2645C861.516 28.5745 934.796 87.1645 946.186 109.104C957.576 131.044 922.176 117.794 922.176 117.794L821.986 57.5545C821.986 57.5545 825.086 26.9145 847.236 20.0845Z" fill="#C5D6E2"/>
<path d="M299.857 127.674C299.857 127.674 371.647 60.8944 426.457 39.7444C481.267 18.5944 523.847 16.6744 621.227 19.1644C718.617 21.6544 760.347 31.3944 777.877 45.8644C795.407 60.3344 803.757 69.3444 802.637 77.0844C801.527 84.8244 794.567 103.464 787.057 104.574C779.547 105.684 587.277 115.424 583.377 115.704C579.477 115.984 299.847 127.664 299.847 127.664L299.857 127.674Z" fill="#151616"/>
<path d="M363.016 85.3743L359.116 118.764L574.206 110.974L600.916 25.2743C600.916 25.2743 487.116 19.9843 448.436 37.2343C409.756 54.4843 395.846 59.4943 363.016 85.3743Z" fill="#C5D6E2"/>
<path d="M641.057 29.6045L624.707 90.8845C624.707 90.8845 621.807 99.3745 624.707 101.025C627.607 102.685 716.827 98.9545 716.827 98.9545C716.827 98.9545 780.587 97.7145 782.867 95.6445C785.147 93.5745 796.117 80.7645 790.527 71.6445C784.937 62.5245 769.827 46.1745 738.567 39.5445C707.307 32.9245 648.107 28.3645 641.067 29.6045H641.057Z" fill="#C5D6E2"/>
<path d="M530.656 277.975C526.976 277.975 524.496 277.855 524.086 277.835L294.726 275.645L294.526 274.915C280.476 223.625 283.846 168.375 287.586 146.325C290.966 126.435 301.486 126.075 301.936 126.075C302.486 126.045 302.936 126.515 302.946 127.065C302.946 127.615 302.516 128.065 301.966 128.075C301.576 128.085 292.636 128.565 289.556 146.665C285.856 168.455 282.526 222.915 296.256 273.665L524.146 275.845C524.606 275.865 566.186 277.845 572.386 264.765C578.886 251.045 602.886 151.055 596.696 112.075L596.666 111.885L596.706 111.695L617.826 18.8947C617.946 18.3547 618.486 18.0247 619.026 18.1447C619.566 18.2647 619.906 18.8047 619.776 19.3447L598.706 111.955C604.836 151.395 580.736 251.825 574.196 265.625C568.976 276.635 543.056 277.985 530.656 277.985V277.975Z" fill="#020305"/>
<path d="M8.27637 198.235C8.27637 198.235 9.00637 187.845 21.1564 181.055C33.9064 173.945 40.7464 173.275 45.1764 175.955C49.6064 178.635 55.7764 186.825 56.1764 191.525C56.5764 196.225 58.0564 206.015 47.4564 206.285C36.8564 206.555 10.0164 211.655 8.27637 198.235Z" fill="#C6E0DB"/>
<path d="M869.336 135.755C869.336 135.755 880.856 122.175 903.136 122.365C925.416 122.555 948.806 128.265 948.436 143.245C948.076 158.225 915.866 153.545 915.866 153.545C915.866 153.545 860.996 148.955 869.336 135.755Z" fill="#F42134"/>
<path d="M816.947 196.194C816.487 196.194 816.067 195.874 815.967 195.404C815.857 194.864 816.197 194.334 816.737 194.214L881.347 180.564C901.147 178.394 953.607 171.214 959.697 164.004C960.057 163.584 960.687 163.524 961.107 163.884C961.527 164.244 961.577 164.874 961.227 165.294C953.377 174.594 884.587 182.224 881.667 182.544L817.157 196.174C817.087 196.184 817.017 196.194 816.947 196.194Z" fill="#020305"/>
<path d="M343.657 114.804C343.657 114.804 336.227 102.884 354.647 92.9845C373.057 83.0845 373.057 98.2445 373.217 101.494C373.367 104.744 374.147 116.504 368.267 117.584C362.387 118.664 345.117 119.914 343.667 114.794L343.657 114.804Z" fill="#3F3F3F"/>
<path d="M242.836 166.435C242.836 166.435 244.516 170.645 247.326 172.045C250.126 173.445 254.616 173.165 260.226 172.885C265.836 172.605 275.646 171.905 274.106 167.555C272.566 163.205 246.626 163.765 242.836 166.435Z" fill="#C6E0DB"/>
<path d="M855.707 267.604C855.707 306.994 823.777 338.934 784.377 338.934C744.977 338.934 713.047 307.004 713.047 267.604C713.047 228.204 744.977 196.274 784.377 196.274C823.777 196.274 855.707 228.204 855.707 267.604Z" fill="#27262C"/>
<path d="M730.667 267.605C730.667 297.365 754.787 321.485 784.547 321.485C814.307 321.485 838.427 297.365 838.427 267.605C838.427 237.845 814.307 213.725 784.547 213.725C754.787 213.725 730.667 237.845 730.667 267.605Z" fill="#C3BFBE"/>
<path d="M765.846 231.485L778.316 245.655C778.316 245.655 780.466 249.055 783.416 249.055C786.366 249.055 788.516 246.675 788.516 246.675L801.556 231.485C801.556 231.485 803.366 229.335 801.556 227.855C799.746 226.385 793.376 224.225 784.546 224.225C775.716 224.225 762.666 226.605 765.846 231.475V231.485Z" fill="#27262C"/>
<path d="M765.847 303.735L778.317 289.565C778.317 289.565 780.477 286.165 783.417 286.165C786.357 286.165 788.517 288.545 788.517 288.545L801.547 303.735C801.547 303.735 803.367 305.885 801.547 307.365C799.737 308.835 793.367 310.995 784.537 310.995C775.707 310.995 762.667 308.615 765.837 303.745L765.847 303.735Z" fill="#27262C"/>
<path d="M821.117 249.594L806.947 262.064C806.947 262.064 803.547 264.214 803.547 267.164C803.547 270.114 805.927 272.264 805.927 272.264L821.117 285.304C821.117 285.304 823.277 287.114 824.737 285.304C826.217 283.494 828.367 277.124 828.367 268.294C828.367 259.464 825.987 246.424 821.107 249.594H821.117Z" fill="#27262C"/>
<path d="M748.866 249.594L763.036 262.064C763.036 262.064 766.436 264.214 766.436 267.164C766.436 270.114 764.056 272.264 764.056 272.264L748.866 285.304C748.866 285.304 746.706 287.124 745.236 285.304C743.766 283.494 741.606 277.124 741.606 268.294C741.606 259.464 743.986 246.424 748.866 249.594Z" fill="#27262C"/>
<path d="M250.697 267.604C250.697 306.994 218.767 338.934 179.367 338.934C139.967 338.934 108.037 307.004 108.037 267.604C108.037 228.204 139.967 196.274 179.367 196.274C218.767 196.274 250.697 228.204 250.697 267.604Z" fill="#27262C"/>
<path d="M125.657 267.605C125.657 297.365 149.777 321.485 179.547 321.485C209.317 321.485 233.427 297.365 233.427 267.605C233.427 237.845 209.307 213.725 179.547 213.725C149.787 213.725 125.657 237.845 125.657 267.605Z" fill="#C3BFBE"/>
<path d="M160.847 231.485L173.317 245.655C173.317 245.655 175.467 249.055 178.417 249.055C181.367 249.055 183.517 246.675 183.517 246.675L196.557 231.485C196.557 231.485 198.367 229.335 196.557 227.855C194.747 226.385 188.377 224.225 179.547 224.225C170.717 224.225 157.677 226.605 160.847 231.475V231.485Z" fill="#27262C"/>
<path d="M160.837 303.735L173.307 289.565C173.307 289.565 175.467 286.165 178.407 286.165C181.347 286.165 183.507 288.545 183.507 288.545L196.537 303.735C196.537 303.735 198.357 305.885 196.537 307.365C194.727 308.835 188.357 310.995 179.527 310.995C170.697 310.995 157.657 308.615 160.827 303.745L160.837 303.735Z" fill="#27262C"/>
<path d="M216.107 249.594L201.937 262.064C201.937 262.064 198.537 264.214 198.537 267.164C198.537 270.114 200.917 272.264 200.917 272.264L216.107 285.304C216.107 285.304 218.267 287.114 219.737 285.304C221.217 283.494 223.367 277.124 223.367 268.294C223.367 259.464 220.987 246.424 216.107 249.594Z" fill="#27262C"/>
<path d="M143.857 249.594L158.027 262.064C158.027 262.064 161.427 264.214 161.427 267.164C161.427 270.114 159.047 272.264 159.047 272.264L143.857 285.304C143.857 285.304 141.697 287.124 140.227 285.304C138.757 283.494 136.597 277.124 136.597 268.294C136.597 259.464 138.977 246.424 143.857 249.594Z" fill="#27262C"/>
</g>
<defs>
<clipPath id="clip0_55_1487">
<rect width="971.235" height="338.935" fill="white"/>
</clipPath>
</defs>
</svg>
