<svg width="185" height="65" viewBox="0 0 185 65" fill="none" xmlns="http://www.w3.org/2000/svg">
<g clip-path="url(#clip0_97_125)">
<path d="M81.8429 3.63623C81.8429 3.63623 72.2234 6.2887 51.9561 20.1506L50.9277 25.613L70.364 23.7138C70.364 23.7138 84.7724 8.39474 84.7724 8.15758C84.7724 7.92041 81.8429 3.63623 81.8429 3.63623Z" fill="#C5D6E2"/>
<path d="M47.0076 20.7463L49.8972 20.1524C49.8972 20.1524 51.5194 18.331 52.2727 18.4903C53.024 18.6478 53.9347 18.7674 53.5003 19.2417C53.0658 19.716 52.6294 21.9739 51.1248 22.6455C49.6202 23.3191 46.0191 22.765 47.0076 20.7444V20.7463Z" fill="#000308"/>
<path d="M15.9428 52.5494L19.5211 56.7919C19.5211 56.7919 20.7202 57.0993 22.073 55.7484C23.4258 54.3956 45.1522 57.2852 45.1522 57.2852C45.1522 57.2852 49.6622 57.2947 52.3659 57.2776C55.0696 57.2605 122.596 54.2874 122.596 54.2874L133.063 56.7938C133.063 56.7938 136.814 55.9855 138.63 56.291C140.446 56.5965 160.821 55.6592 160.821 55.6592C160.821 55.6592 166.682 56.7046 167.583 54.9192C168.485 53.1338 175.243 29.9636 157.169 29.6031C139.095 29.2426 56.891 43.1273 56.891 43.1273L35.324 30.4152L16.5708 36.2381L15.939 52.5513L15.9428 52.5494Z" fill="#000308"/>
<path d="M184.248 34.9573C184.564 33.2554 182.109 32.4244 182.109 32.4244C182.109 32.4244 182.386 31.3562 182.109 29.7321C181.832 28.1099 181.159 23.0022 180.407 21.5773C179.656 20.1524 179.091 19.9912 179.091 19.9912L178.943 20.8658C177.463 20.1145 171.478 19.2816 170.329 19.0842C169.181 18.8869 167.619 17.6992 164.058 13.9387C160.495 10.1782 158.99 6.0211 158.99 6.0211L161.366 4.19966C161.88 3.09162 155.626 2.69508 155.626 2.69508C153.45 2.45791 125.899 0.122292 109.789 0.00276011C93.6783 -0.116772 81.1692 3.68359 80.4956 4.11997C79.8221 4.55446 80.2186 5.86173 80.2186 5.86173C76.8148 6.45559 55.2004 21.3402 53.8551 21.695C52.5099 22.0517 49.0663 22.2092 47.6793 21.6153C46.2943 21.0214 49.3414 20.2701 49.3414 20.2701C49.3414 20.2701 41.7008 20.1904 22.4638 24.8218C3.22669 29.4551 1.16808 34.4413 0.891073 35.5114C0.614062 36.5796 0.217519 38.2416 0.217519 38.2416C-0.0594914 39.6665 0.0998847 44.2979 0.0258887 44.8121C-0.0481074 45.3263 0.0600407 45.7228 0.0600407 45.7228C0.0372727 45.9125 0.027786 46.0947 0.027786 46.273C0.623549 46.33 1.44509 46.3964 2.05414 46.3964C3.12424 46.3964 5.79758 46.8555 5.66856 48.3563C5.54144 49.859 6.15238 51.3598 3.98752 51.7943C2.10157 52.1719 1.14342 52.2591 0.507812 51.5495C0.445199 51.6311 0.388279 51.7184 0.340846 51.8171C0.0239913 52.4906 0.940404 52.8264 0.940404 52.8264C4.02737 54.9477 19.5172 56.7919 19.5172 56.7919C17.6407 51.7487 17.5933 34.7999 34.2576 34.6803C50.9219 34.5608 51.1989 57.2833 51.1989 57.2833L133.059 56.7919C132.069 53.7675 130.05 35.4734 148.695 35.5114C167.34 35.5512 165.931 55.8375 165.931 55.8375H166.153C168.291 55.8375 172.526 54.5606 173.951 54.3234C175.376 54.0863 180.047 51.504 181.709 50.5534C183.371 49.6029 182.936 44.1404 182.936 43.4289C182.936 42.7174 182.105 40.2224 182.263 39.2339C182.422 38.2435 183.925 36.6611 184.242 34.9592L184.248 34.9573Z" fill="white"/>
<path d="M3.98954 51.7925C6.1544 51.3599 5.54346 49.8572 5.67058 48.3545C5.7977 46.8518 3.12436 46.3946 2.05616 46.3946C1.44711 46.3946 0.625567 46.3282 0.0298042 46.2712C0.0241122 48.2596 1.29722 49.5783 1.37122 50.2329C1.43952 50.8419 0.874118 51.0734 0.511727 51.5477C1.14733 52.2573 2.10549 52.1701 3.99144 51.7925H3.98954Z" fill="#5E5E5E"/>
<path d="M160.749 3.81079C160.749 3.81079 161.417 4.1637 162.437 4.79361C163.458 5.42163 177.362 16.5381 179.523 20.7009C181.684 24.8636 174.967 22.3496 174.967 22.3496L155.958 10.9201C155.958 10.9201 156.546 5.10667 160.749 3.81079Z" fill="#C5D6E2"/>
<path d="M56.893 24.2242C56.893 24.2242 70.514 11.5538 80.9133 7.54096C91.3125 3.52809 99.3914 3.16381 117.868 3.63624C136.346 4.10868 144.263 5.95668 147.589 8.70212C150.915 11.4476 152.5 13.1571 152.287 14.6256C152.077 16.0941 150.756 19.6308 149.331 19.8414C147.906 20.052 111.426 21.9 110.686 21.9531C109.946 22.0062 56.8911 24.2223 56.8911 24.2223L56.893 24.2242Z" fill="#151616"/>
<path d="M68.8762 16.1984L68.1362 22.5336L108.946 21.0556L114.014 4.79545C114.014 4.79545 92.4221 3.79176 85.0832 7.06466C77.7443 10.3376 75.1051 11.2881 68.8762 16.1984Z" fill="#C5D6E2"/>
<path d="M121.63 5.61701L118.528 17.2439C118.528 17.2439 117.978 18.8547 118.528 19.1678C119.078 19.4827 136.006 18.775 136.006 18.775C136.006 18.775 148.103 18.5397 148.536 18.147C148.969 17.7543 151.05 15.3238 149.989 13.5934C148.929 11.863 146.062 8.76089 140.131 7.50296C134.2 6.24692 122.968 5.38174 121.632 5.61701H121.63Z" fill="#C5D6E2"/>
<path d="M100.683 52.7411C99.9852 52.7411 99.5146 52.7183 99.4369 52.7145L55.9196 52.299L55.8817 52.1605C53.2159 42.4291 53.8553 31.9463 54.5649 27.7627C55.2062 23.9889 57.2022 23.9206 57.2876 23.9206C57.3919 23.9149 57.4773 24.0041 57.4792 24.1084C57.4792 24.2128 57.3976 24.2982 57.2933 24.3C57.2193 24.3019 55.5231 24.393 54.9387 27.8272C54.2367 31.9615 53.6049 42.2944 56.2099 51.9233L99.4482 52.337C99.5355 52.3407 107.425 52.7164 108.601 50.2347C109.834 47.6316 114.388 28.6601 113.213 21.2643L113.208 21.2283L113.215 21.1922L117.222 3.58496C117.245 3.4825 117.348 3.41989 117.45 3.44266C117.553 3.46542 117.617 3.56788 117.592 3.67034L113.595 21.2415C114.758 28.7246 110.185 47.7796 108.944 50.3979C107.954 52.4868 103.036 52.743 100.683 52.743V52.7411Z" fill="#020305"/>
<path d="M1.57031 37.6119C1.57031 37.6119 1.70882 35.6406 4.01408 34.3523C6.43318 33.0033 7.73096 32.8761 8.57147 33.3846C9.41199 33.8931 10.5826 35.447 10.6585 36.3388C10.7344 37.2305 11.0152 39.088 9.00407 39.1392C6.99289 39.1905 1.90045 40.1581 1.57031 37.6119Z" fill="#C6E0DB"/>
<path d="M164.942 25.7572C164.942 25.7572 167.128 23.1806 171.355 23.2167C175.582 23.2527 180.02 24.3361 179.95 27.1783C179.882 30.0205 173.77 29.1326 173.77 29.1326C173.77 29.1326 163.36 28.2617 164.942 25.7572Z" fill="#F42134"/>
<path d="M155.002 37.2247C154.915 37.2247 154.835 37.164 154.816 37.0748C154.795 36.9723 154.86 36.8718 154.962 36.849L167.221 34.2592C170.977 33.8474 180.931 32.4852 182.086 31.1172C182.155 31.0375 182.274 31.0261 182.354 31.0944C182.434 31.1627 182.443 31.2822 182.377 31.3619C180.887 33.1265 167.835 34.5741 167.281 34.6348L155.042 37.2209C155.028 37.2228 155.015 37.2247 155.002 37.2247Z" fill="#020305"/>
<path d="M65.2029 21.7824C65.2029 21.7824 63.7932 19.5208 67.2881 17.6424C70.7811 15.7641 70.7811 18.6404 70.8115 19.2571C70.8399 19.8737 70.9879 22.1049 69.8723 22.3099C68.7566 22.5148 65.4799 22.7519 65.2048 21.7805L65.2029 21.7824Z" fill="white"/>
<path d="M46.0742 31.5783C46.0742 31.5783 46.393 32.3771 46.9261 32.6428C47.4574 32.9084 48.3093 32.8553 49.3737 32.8021C50.4381 32.749 52.2994 32.6162 52.0072 31.7908C51.715 30.9655 46.7933 31.0718 46.0742 31.5783Z" fill="#C6E0DB"/>
<path d="M162.356 50.7734C162.356 58.247 156.298 64.3071 148.822 64.3071C141.347 64.3071 135.289 58.2489 135.289 50.7734C135.289 43.2979 141.347 37.2397 148.822 37.2397C156.298 37.2397 162.356 43.2979 162.356 50.7734Z" fill="#27262C"/>
<path d="M138.632 50.7736C138.632 56.4201 143.208 60.9965 148.855 60.9965C154.501 60.9965 159.078 56.4201 159.078 50.7736C159.078 45.1272 154.501 40.5508 148.855 40.5508C143.208 40.5508 138.632 45.1272 138.632 50.7736Z" fill="#C3BFBE"/>
<path d="M145.307 43.9204L147.673 46.609C147.673 46.609 148.08 47.254 148.64 47.254C149.2 47.254 149.608 46.8025 149.608 46.8025L152.082 43.9204C152.082 43.9204 152.425 43.5125 152.082 43.2317C151.739 42.9528 150.53 42.543 148.855 42.543C147.179 42.543 144.703 42.9945 145.307 43.9185V43.9204Z" fill="#27262C"/>
<path d="M145.307 57.6285L147.672 54.94C147.672 54.94 148.082 54.2949 148.64 54.2949C149.198 54.2949 149.608 54.7465 149.608 54.7465L152.08 57.6285C152.08 57.6285 152.425 58.0365 152.08 58.3173C151.737 58.5962 150.528 59.006 148.853 59.006C147.177 59.006 144.703 58.5544 145.305 57.6304L145.307 57.6285Z" fill="#27262C"/>
<path d="M155.793 47.3564L153.105 49.7224C153.105 49.7224 152.459 50.1303 152.459 50.69C152.459 51.2497 152.911 51.6576 152.911 51.6576L155.793 54.1318C155.793 54.1318 156.203 54.4752 156.48 54.1318C156.761 53.7883 157.169 52.5797 157.169 50.9044C157.169 49.2291 156.717 46.7549 155.791 47.3564H155.793Z" fill="#27262C"/>
<path d="M142.085 47.3564L144.774 49.7224C144.774 49.7224 145.419 50.1303 145.419 50.69C145.419 51.2497 144.967 51.6576 144.967 51.6576L142.085 54.1318C142.085 54.1318 141.675 54.4771 141.396 54.1318C141.117 53.7883 140.708 52.5797 140.708 50.9044C140.708 49.2291 141.159 46.7549 142.085 47.3564Z" fill="#27262C"/>
<path d="M47.5654 50.7734C47.5654 58.247 41.5072 64.3071 34.0317 64.3071C26.5562 64.3071 20.498 58.2489 20.498 50.7734C20.498 43.2979 26.5562 37.2397 34.0317 37.2397C41.5072 37.2397 47.5654 43.2979 47.5654 50.7734Z" fill="#27262C"/>
<path d="M23.8413 50.7736C23.8413 56.4201 28.4177 60.9965 34.066 60.9965C39.7144 60.9965 44.2889 56.4201 44.2889 50.7736C44.2889 45.1272 39.7125 40.5508 34.066 40.5508C28.4196 40.5508 23.8413 45.1272 23.8413 50.7736Z" fill="#C3BFBE"/>
<path d="M30.518 43.9204L32.884 46.609C32.884 46.609 33.2919 47.254 33.8516 47.254C34.4113 47.254 34.8193 46.8025 34.8193 46.8025L37.2934 43.9204C37.2934 43.9204 37.6368 43.5125 37.2934 43.2317C36.95 42.9528 35.7414 42.543 34.066 42.543C32.3907 42.543 29.9165 42.9945 30.518 43.9185V43.9204Z" fill="#27262C"/>
<path d="M30.516 57.6285L32.882 54.94C32.882 54.94 33.2918 54.2949 33.8496 54.2949C34.4074 54.2949 34.8172 54.7465 34.8172 54.7465L37.2895 57.6285C37.2895 57.6285 37.6348 58.0365 37.2895 58.3173C36.9461 58.5962 35.7375 59.006 34.0621 59.006C32.3868 59.006 29.9126 58.5544 30.5141 57.6304L30.516 57.6285Z" fill="#27262C"/>
<path d="M41.0026 47.3564L38.314 49.7224C38.314 49.7224 37.6689 50.1303 37.6689 50.69C37.6689 51.2497 38.1205 51.6576 38.1205 51.6576L41.0026 54.1318C41.0026 54.1318 41.4124 54.4752 41.6913 54.1318C41.9721 53.7883 42.38 52.5797 42.38 50.9044C42.38 49.2291 41.9285 46.7549 41.0026 47.3564Z" fill="#27262C"/>
<path d="M27.2945 47.3564L29.983 49.7224C29.983 49.7224 30.6281 50.1303 30.6281 50.69C30.6281 51.2497 30.1765 51.6576 30.1765 51.6576L27.2945 54.1318C27.2945 54.1318 26.8846 54.4771 26.6057 54.1318C26.3268 53.7883 25.917 52.5797 25.917 50.9044C25.917 49.2291 26.3686 46.7549 27.2945 47.3564Z" fill="#27262C"/>
</g>
<defs>
<clipPath id="clip0_97_125">
<rect width="184.276" height="64.3072" fill="white"/>
</clipPath>
</defs>
</svg>
