<svg width="641" height="418" viewBox="0 0 641 418" fill="none" xmlns="http://www.w3.org/2000/svg">
<path d="M614.042 168.836C612.942 163.096 612.702 157.716 613.212 153.426C601.632 118.086 579.862 63.1855 579.862 63.1855L551.932 177.816L614.752 171.996C614.502 170.966 614.252 169.916 614.052 168.836H614.042Z" fill="#3A3A39"/>
<path d="M551.931 177.815L549.911 186.105C549.911 186.105 614.471 237.235 619.631 231.035C623.991 225.805 624.671 208.065 621.671 187.435C618.951 184.255 616.401 178.705 614.751 172.005L551.931 177.825V177.815Z" fill="#2D2D2B"/>
<path d="M619.631 175.776C619.381 174.536 619.051 173.156 618.671 171.636C617.421 166.736 615.521 160.466 613.211 153.426C612.711 157.706 612.941 163.096 614.041 168.836C614.251 169.916 614.491 170.966 614.741 171.996C616.391 178.696 618.941 184.256 621.661 187.426C621.111 183.616 620.431 179.706 619.621 175.766L619.631 175.776Z" fill="#DB656B"/>
<path d="M524.241 51.6156C524.241 51.6156 536.101 45.4356 540.051 40.9956C544.001 36.5456 542.031 49.0056 542.031 53.0256C542.031 57.0456 524.241 51.6156 524.241 51.6156Z" fill="#09070A"/>
<path d="M452.352 349.326C452.352 349.326 470.142 351.056 471.132 352.286C472.122 353.516 482.042 369.576 496.082 373.286C510.122 376.996 614.422 347.096 614.422 347.096C614.422 347.096 629.972 343.646 631.552 342.936C633.132 342.216 642.012 322.886 631.552 297.686C621.092 272.486 586.662 237.406 544.462 249.016C502.262 260.626 454.572 272.736 452.352 349.326Z" fill="#09070A"/>
<path d="M9.61134 321.655L12.8213 362.315C12.8213 362.315 22.9513 363.445 27.4013 362.315C31.8513 361.185 162.051 367.365 162.051 367.365C162.051 367.365 167.731 362.175 171.681 359.705C175.631 357.235 181.811 359.455 181.811 359.455L206.021 294.725L86.6913 247.835C86.6913 247.835 3.68134 266.805 9.61134 321.655Z" fill="#09070A"/>
<path d="M154.811 182.495L126.411 154.605C126.411 154.605 257.521 69.5153 323.151 54.7353C388.771 39.9553 396.521 125.685 396.521 125.685L154.821 182.495H154.811Z" fill="#2D2D2B"/>
<path d="M85.0912 170.616L33.4412 195.926C33.4412 195.926 20.0112 208.326 20.0112 224.846C20.0112 224.846 25.6912 242.926 33.9512 247.576C42.2112 252.226 129.501 192.826 129.501 192.826C129.501 192.826 116.591 162.876 85.0812 170.616H85.0912Z" fill="#2D2D2B"/>
<path d="M178.571 368.935L467.271 360.155C467.271 360.155 467.221 351.636 469.351 339.646L178.241 351.695C179.051 362.005 178.571 368.935 178.571 368.935Z" fill="#09070A"/>
<path d="M640.291 315.745C639.771 285.275 641.841 241.375 630.991 232.595C620.141 223.815 584.511 181.465 582.961 174.235C581.411 167.005 581.931 73.5253 583.481 67.3253C585.031 61.1253 590.191 54.9253 583.481 53.3853C576.771 51.8353 378.961 41.5053 314.401 56.4853L323.701 61.1353C323.701 61.1353 304.081 51.3253 153.271 152.035C153.271 152.035 116.081 147.905 101.621 154.615C87.1614 161.325 33.4514 195.935 33.4514 195.935C33.4514 195.935 88.7114 175.275 95.4214 177.345C102.131 179.415 108.331 183.025 108.331 183.025L54.1014 221.245L25.1814 234.155C25.1814 234.155 11.7514 240.865 10.2014 246.555C8.65137 252.235 -0.128635 271.865 0.391365 283.225C0.911365 294.585 -0.688635 321.955 0.371365 333.325C1.43137 344.695 2.46137 363.795 13.8214 362.245C13.8214 362.245 -3.19864 260.725 97.4914 263.085C162.991 264.615 175.931 322.115 178.251 351.715L469.361 339.665C474.741 309.435 494.051 257.065 563.341 263.045C635.651 269.285 641.331 337.975 628.931 343.135C628.931 343.135 640.811 346.235 640.291 315.765V315.745Z" fill="#E5DCE1"/>
<path d="M184.771 175.776L495.161 144.785C495.161 144.785 517.881 83.3255 501.361 72.9955C484.831 62.6655 442.481 63.1855 442.481 63.1855C442.481 63.1855 345.901 63.7055 310.781 79.1955C275.661 94.6855 181.661 132.906 184.761 175.776H184.771Z" fill="#2D2D2B"/>
<path d="M554.392 417.716C594.04 417.716 626.182 385.574 626.182 345.926C626.182 306.277 594.04 274.136 554.392 274.136C514.743 274.136 482.602 306.277 482.602 345.926C482.602 385.574 514.743 417.716 554.392 417.716Z" fill="#27262C"/>
<path d="M95.3916 273.076C55.7416 273.076 23.6016 305.216 23.6016 344.866C23.6016 384.516 55.7416 416.656 95.3916 416.656C135.042 416.656 167.182 384.516 167.182 344.866C167.182 305.216 135.042 273.076 95.3916 273.076ZM95.5616 399.406C65.6116 399.406 41.3316 375.126 41.3316 345.176C41.3316 315.226 65.6116 290.946 95.5616 290.946C125.512 290.946 149.792 315.226 149.792 345.176C149.792 375.126 125.512 399.406 95.5616 399.406Z" fill="#27262C"/>
<path d="M95.5615 290.946C65.6115 290.946 41.3315 315.226 41.3315 345.176C41.3315 375.126 65.6115 399.406 95.5615 399.406C125.512 399.406 149.792 375.126 149.792 345.176C149.792 315.226 125.512 290.946 95.5615 290.946Z" fill="#C3BFBE"/>
<path d="M500.331 345.925C500.331 375.875 524.611 400.155 554.561 400.155C584.511 400.155 608.791 375.875 608.791 345.925C608.791 315.975 584.511 291.695 554.561 291.695C524.611 291.695 500.331 315.975 500.331 345.925Z" fill="#C3BFBE"/>
<path d="M76.7511 309.105L89.3011 323.365C89.3011 323.365 91.4711 326.785 94.4311 326.785C97.3911 326.785 99.5611 324.385 99.5611 324.385L112.681 309.095C112.681 309.095 114.511 306.925 112.681 305.445C110.851 303.965 104.451 301.795 95.5611 301.795C86.6711 301.795 73.5511 304.195 76.7411 309.095L76.7511 309.105Z" fill="#27262C"/>
<path d="M76.7414 381.816L89.2914 367.556C89.2914 367.556 91.4614 364.136 94.4214 364.136C97.3814 364.136 99.5514 366.536 99.5514 366.536L112.671 381.826C112.671 381.826 114.501 383.996 112.671 385.476C110.841 386.956 104.441 389.126 95.5514 389.126C86.6614 389.126 73.5414 386.726 76.7314 381.826L76.7414 381.816Z" fill="#27262C"/>
<path d="M132.371 327.336L118.111 339.886C118.111 339.886 114.691 342.056 114.691 345.016C114.691 347.976 117.091 350.146 117.091 350.146L132.381 363.266C132.381 363.266 134.551 365.096 136.031 363.266C137.511 361.436 139.681 355.036 139.681 346.146C139.681 337.256 137.281 324.136 132.381 327.326L132.371 327.336Z" fill="#27262C"/>
<path d="M59.6513 327.336L73.9113 339.886C73.9113 339.886 77.3313 342.056 77.3313 345.016C77.3313 347.976 74.9313 350.146 74.9313 350.146L59.6413 363.266C59.6413 363.266 57.4713 365.096 55.9913 363.266C54.5113 361.436 52.3413 355.036 52.3413 346.146C52.3413 337.256 54.7413 324.136 59.6413 327.326L59.6513 327.336Z" fill="#27262C"/>
<path d="M535.741 309.566L548.291 323.826C548.291 323.826 550.461 327.246 553.421 327.246C556.381 327.246 558.551 324.856 558.551 324.856L571.671 309.566C571.671 309.566 573.501 307.396 571.671 305.916C569.841 304.436 563.441 302.266 554.551 302.266C545.661 302.266 532.541 304.666 535.731 309.566H535.741Z" fill="#27262C"/>
<path d="M535.741 382.285L548.291 368.025C548.291 368.025 550.461 364.605 553.421 364.605C556.381 364.605 558.551 367.005 558.551 367.005L571.671 382.295C571.671 382.295 573.501 384.465 571.671 385.945C569.841 387.425 563.441 389.595 554.551 389.595C545.661 389.595 532.541 387.195 535.731 382.295L535.741 382.285Z" fill="#27262C"/>
<path d="M591.362 327.796L577.102 340.346C577.102 340.346 573.682 342.516 573.682 345.476C573.682 348.436 576.082 350.606 576.082 350.606L591.372 363.726C591.372 363.726 593.542 365.556 595.022 363.726C596.502 361.896 598.672 355.496 598.672 346.606C598.672 337.716 596.272 324.596 591.372 327.786L591.362 327.796Z" fill="#27262C"/>
<path d="M518.652 327.796L532.912 340.346C532.912 340.346 536.332 342.516 536.332 345.476C536.332 348.436 533.932 350.606 533.932 350.606L518.642 363.726C518.642 363.726 516.472 365.556 514.992 363.726C513.512 361.896 511.342 355.496 511.342 346.606C511.342 337.716 513.742 324.596 518.642 327.786L518.652 327.796Z" fill="#27262C"/>
<path d="M539.812 46.6455C539.482 46.6455 539.162 46.5555 538.872 46.3555C538.092 45.8355 537.882 44.7755 538.402 43.9955L567.302 0.755497C567.822 -0.0245033 568.882 -0.234503 569.662 0.285497C570.442 0.805497 570.652 1.8655 570.132 2.6455L541.222 45.8855C540.892 46.3755 540.352 46.6455 539.812 46.6455Z" fill="#09070A"/>
<path d="M104.211 220.376C104.211 220.376 172.961 232.706 197.141 274.136C197.141 274.136 399.631 254.376 430.601 263.436C461.581 272.506 486.501 197.536 535.241 208.576C583.981 219.616 605.131 224.146 620.241 254.366C635.351 284.586 636.551 290.946 636.551 290.946L632.331 242.276L573.671 175.766L104.211 220.366V220.376Z" fill="#D8D6D7"/>
<path d="M204.791 347.605C203.401 347.605 201.241 347.205 199.041 345.685C195.251 343.065 192.851 337.905 191.891 330.425C191.701 328.935 173.661 180.075 188.391 161.245L189.281 161.935C176.531 178.235 188.981 298.835 193.011 330.245C193.931 337.385 196.171 342.235 199.681 344.665C202.901 346.895 206.051 345.925 206.081 345.915L206.211 345.635H216.791C217.871 345.635 328.481 339.335 383.021 339.225C433.151 339.125 439.121 326.265 449.001 304.725C449.911 302.745 450.851 300.765 451.861 298.655C463.291 274.745 497.491 133.225 499.721 124.005L465.991 109.165L466.441 108.135L501.041 123.375L500.931 123.835C500.571 125.335 464.691 274.505 452.881 299.205C451.881 301.315 450.941 303.345 450.031 305.325C440.301 326.515 433.881 340.685 383.021 340.785C328.511 340.885 217.931 347.625 216.821 347.625H206.271C206.081 347.625 205.551 347.585 204.781 347.585L204.791 347.605Z" fill="#2D2D2B"/>
<path d="M471.651 179.136C469.221 179.136 467.441 178.546 466.351 177.366C464.961 175.856 465.261 173.986 465.271 173.906C465.331 173.716 468.941 162.906 472.381 156.346C475.961 149.496 483.211 150.036 483.281 150.046L494.131 148.996L494.241 150.126L483.291 151.176C482.921 151.156 476.621 150.706 473.391 156.876C470.001 163.356 466.411 174.086 466.381 174.186C466.381 174.186 466.201 175.536 467.201 176.616C468.251 177.746 470.311 178.196 473.141 177.946C481.331 177.206 486.651 177.346 486.711 177.346L486.681 178.476C486.631 178.476 481.361 178.336 473.251 179.076C472.701 179.126 472.171 179.156 471.671 179.156L471.651 179.136Z" fill="#2D2D2B"/>
<path d="M21.6414 222.486L45.3214 213.786C45.3214 213.786 56.8614 193.346 66.1714 197.186L49.5714 217.016C49.5714 217.016 19.2114 227.136 21.6414 222.476V222.486Z" fill="#81776E"/>
<path d="M21.5015 229.165L24.6715 233.825L39.6515 226.335C39.6515 226.335 41.0715 224.125 39.6515 223.715C38.2315 223.295 21.5015 229.165 21.5015 229.165Z" fill="#91401C"/>
</svg>
