<svg width="1201" height="481" viewBox="0 0 1201 481" fill="none" xmlns="http://www.w3.org/2000/svg">
<g clip-path="url(#clip0_51_1118)">
<path d="M55.2699 374.72L70.5299 388.54C70.5299 388.54 76.4699 382.74 88.0799 381.63C99.6799 380.52 260.8 394.13 260.8 394.13C260.8 394.13 282.22 390.53 290.7 388.54C299.18 386.55 841.99 381.86 841.99 381.86L848.32 390.25C848.32 390.25 860.07 382.31 876.8 380.3C893.54 378.29 1046.18 369.81 1046.18 369.81C1046.18 369.81 1054.93 377.19 1060.82 374.95C1066.71 372.71 1087.24 354.86 1087.24 354.86L1065.82 248.86L928.58 228.55L756.87 220.52L251.87 237.03L62.3199 247.74L47.6899 327.41L55.2799 374.72H55.2699Z" fill="black"/>
<path d="M162.42 168.3C162.42 168.3 159.09 156.2 160.34 155.42C161.59 154.65 191.58 143.89 195.09 141.82C198.61 139.75 327.87 16.6898 351.66 18.9698C375.44 21.2398 330.15 97.7698 330.15 97.7698L190.75 181.53L162.42 168.29V168.3Z" fill="#2D2D2B"/>
<path d="M1180.88 312.41C1180.88 312.41 1199.95 315.81 1200.21 324.95C1200.47 334.09 1211.71 368.58 1153.97 365.97C1096.23 363.36 1149.27 307.71 1180.88 312.41Z" fill="#2E2E2E"/>
<path d="M46.3899 210.7L36.4499 216.12C36.4499 216.12 24.0499 244.21 24.4699 255.58C24.8799 266.96 24.3599 299.57 26.1699 302.7C27.9799 305.83 46.3899 305.42 46.3899 305.42L62.3099 302.94C62.3099 302.94 58.9999 216.69 46.3899 210.7Z" fill="#2D2D2B"/>
<path d="M1162.86 144.88C1164.95 138.08 1144.12 68.95 1144.12 68.95H1161.6C1155.47 49.72 1147.9 33.21 1138.55 22.67C1138.55 22.67 1135.67 -1.88 1075.6 3.4L895.84 0L481.82 4.53C481.82 4.53 359.44 0.380001 336.02 26.45L193.24 160.56C193.24 160.56 165.23 164.65 160.35 155.43L41.7598 207.09C41.7598 207.09 37.3498 208.06 36.4598 216.12C36.4598 216.12 49.4898 217.95 50.3898 230.94C51.2798 243.93 53.0998 300.85 49.5098 302.19C45.9298 303.53 27.1198 302.19 25.7698 298.61C25.7698 298.61 24.6698 301.42 26.7098 303.3C28.7598 305.18 35.8398 307.12 39.8298 307.29C43.8198 307.46 87.3198 308.67 87.3198 308.67C87.3198 308.67 122.03 262.73 182.67 272.18C243.3 281.63 262.76 314.68 271.83 345.47C280.9 376.26 280.52 389.1 293.17 390.24C305.83 391.37 848.32 390.24 848.32 390.24C848.32 390.24 855.69 379.47 853.99 373.24C852.29 367.01 854.56 253.1 961.66 260.47C1068.76 267.84 1060.83 374.94 1060.83 374.94L1164.81 366.44C1164.81 366.44 1170.76 360.21 1170.76 350.57V319.97C1170.76 319.97 1186.63 323.94 1186.63 309.77V233.84C1186.63 233.84 1184.98 192.2 1178.04 144.87H1162.87L1162.86 144.88Z" fill="#E5E5E3"/>
<path d="M291.81 93.3402C291.81 93.3402 336.31 48.2402 346.43 42.9902C356.55 37.7402 371.87 26.1402 396.99 26.5202C422.11 26.9002 444.92 23.9202 444.92 23.9202H472.04C472.04 23.9202 479.42 22.8802 481.29 30.0102C483.17 37.1302 481.29 144.44 481.29 144.44C481.29 144.44 481.67 151.22 477.54 152.35C473.42 153.47 297.18 156.12 297.18 156.12L291.8 93.3502L291.81 93.3402Z" fill="#2D2D2B"/>
<path d="M31.3 296.02C31.3 296.02 0 301.98 0 312.91V368.72C0 368.72 4.07 387.64 25.18 388.55C46.29 389.46 70.53 388.55 70.53 388.55C70.53 388.55 57.47 321.26 87.1 308.69C92.75 306.29 31.3 296.02 31.3 296.02Z" fill="#393B3A"/>
<path d="M1162.86 144.88H1178.03C1174.28 119.34 1169 92.1502 1161.6 68.9502H1144.12C1144.12 68.9502 1164.95 138.08 1162.86 144.88Z" fill="#BA1F25"/>
<path d="M265.01 388.54C265.01 439.53 223.68 480.86 172.69 480.86C121.7 480.86 80.3799 439.53 80.3799 388.54C80.3799 337.55 121.71 296.23 172.69 296.23C223.67 296.23 265.01 337.56 265.01 388.54Z" fill="#27262C"/>
<path d="M103.18 388.54C103.18 427.05 134.4 458.28 172.92 458.28C211.44 458.28 242.65 427.06 242.65 388.54C242.65 350.02 211.43 318.81 172.92 318.81C134.41 318.81 103.18 350.03 103.18 388.54Z" fill="#C3BFBE"/>
<path d="M148.71 341.79L164.85 360.13C164.85 360.13 167.64 364.53 171.45 364.53C175.26 364.53 178.06 361.45 178.06 361.45L194.93 341.79C194.93 341.79 197.28 339 194.93 337.1C192.58 335.19 184.35 332.41 172.92 332.41C161.49 332.41 144.61 335.49 148.72 341.8L148.71 341.79Z" fill="#27262C"/>
<path d="M148.71 435.3L164.84 416.96C164.84 416.96 167.63 412.56 171.44 412.56C175.25 412.56 178.05 415.64 178.05 415.64L194.92 435.3C194.92 435.3 197.27 438.09 194.92 439.99C192.57 441.9 184.34 444.69 172.91 444.69C161.48 444.69 144.6 441.61 148.71 435.3Z" fill="#27262C"/>
<path d="M220.24 365.23L201.9 381.37C201.9 381.37 197.5 384.16 197.5 387.97C197.5 391.78 200.58 394.57 200.58 394.57L220.24 411.45C220.24 411.45 223.03 413.8 224.93 411.45C226.84 409.1 229.63 400.87 229.63 389.43C229.63 377.99 226.55 361.12 220.24 365.23Z" fill="#27262C"/>
<path d="M126.74 365.23L145.08 381.37C145.08 381.37 149.48 384.16 149.48 387.97C149.48 391.78 146.4 394.57 146.4 394.57L126.74 411.45C126.74 411.45 123.95 413.8 122.04 411.45C120.14 409.1 117.34 400.87 117.34 389.43C117.34 377.99 120.42 361.12 126.74 365.23Z" fill="#27262C"/>
<path d="M1051.55 382.88C1051.55 433.87 1010.22 475.2 959.23 475.2C908.24 475.2 866.92 433.87 866.92 382.88C866.92 331.89 908.25 290.57 959.23 290.57C1010.21 290.57 1051.55 331.9 1051.55 382.88Z" fill="#27262C"/>
<path d="M889.72 382.88C889.72 421.4 920.94 452.62 959.46 452.62C997.98 452.62 1029.19 421.4 1029.19 382.88C1029.19 344.36 997.97 313.15 959.46 313.15C920.95 313.15 889.72 344.37 889.72 382.88Z" fill="#C3BFBE"/>
<path d="M935.259 336.12L951.399 354.46C951.399 354.46 954.189 358.86 957.999 358.86C961.809 358.86 964.609 355.78 964.609 355.78L981.479 336.12C981.479 336.12 983.829 333.33 981.479 331.43C979.129 329.52 970.899 326.74 959.459 326.74C948.019 326.74 931.149 329.82 935.259 336.13V336.12Z" fill="#27262C"/>
<path d="M935.26 429.63L951.39 411.29C951.39 411.29 954.18 406.89 958 406.89C961.82 406.89 964.61 409.97 964.61 409.97L981.48 429.63C981.48 429.63 983.83 432.42 981.48 434.32C979.13 436.23 970.9 439.02 959.47 439.02C948.04 439.02 931.16 435.94 935.27 429.63H935.26Z" fill="#27262C"/>
<path d="M1006.78 359.56L988.44 375.7C988.44 375.7 984.04 378.49 984.04 382.3C984.04 386.11 987.12 388.9 987.12 388.9L1006.78 405.77C1006.78 405.77 1009.57 408.12 1011.47 405.77C1013.38 403.42 1016.17 395.19 1016.17 383.75C1016.17 372.31 1013.09 355.44 1006.78 359.55V359.56Z" fill="#27262C"/>
<path d="M913.28 359.56L931.62 375.7C931.62 375.7 936.02 378.49 936.02 382.3C936.02 386.11 932.94 388.9 932.94 388.9L913.28 405.78C913.28 405.78 910.49 408.13 908.58 405.78C906.68 403.43 903.89 395.2 903.89 383.76C903.89 372.32 906.97 355.45 913.28 359.56Z" fill="#27262C"/>
<path d="M510.88 380.05H302.81C294.81 380.05 292.96 376.43 292.78 376.02L292.7 375.75C291.78 370.29 287.88 359.94 282.95 346.85C274.04 323.18 261.83 290.76 258.19 262.87C252.61 220.13 260.69 97.46 260.77 96.22L263.03 96.37C262.95 97.6 254.88 220.06 260.44 262.57C264.05 290.2 276.2 322.48 285.07 346.05C289.99 359.11 293.88 369.46 294.9 375.18C295.2 375.62 296.95 377.79 302.81 377.79H510.23C511.13 377.16 514.28 374.68 514.28 370.79C514.28 365.61 510.57 8.15002 510.53 4.54002L512.8 4.52002C512.84 8.13002 516.55 365.6 516.55 370.79C516.55 376.62 511.37 379.76 511.15 379.9L510.88 380.06V380.05Z" fill="#CCCCCC"/>
<path d="M300 89.9199H299.55C291.536 89.9199 285.04 96.4163 285.04 104.43V146.81C285.04 154.824 291.536 161.32 299.55 161.32H300C308.014 161.32 314.51 154.824 314.51 146.81V104.43C314.51 96.4163 308.014 89.9199 300 89.9199Z" fill="#D8D8D6"/>
<path d="M506.25 209.76C506.25 216.21 501.22 220.92 494.78 220.92H494.13C487.68 220.92 482.25 216.21 482.25 209.76V180.11C482.25 173.66 487.68 167.91 494.13 167.91H494.78C501.23 167.91 506.25 173.66 506.25 180.11V209.76Z" fill="#D8D8D6"/>
<path d="M497.43 172.92H497.07C494.96 172.92 493.25 174.63 493.25 176.74V207.1C493.25 209.21 494.96 210.92 497.07 210.92H497.43C499.54 210.92 501.25 209.21 501.25 207.1V176.74C501.25 174.63 499.54 172.92 497.43 172.92Z" fill="white"/>
<path d="M1124.09 173.78H564.6C552.93 173.78 542.31 163.16 542.31 151.49V60.0698C542.31 49.0298 552.31 40.0498 564.6 40.0498H1095.76C1107.4 40.0498 1112.3 47.5698 1116.85 60.5498L1145.25 151.89V152.06C1145.25 163.84 1135.56 173.78 1124.09 173.78ZM564.6 42.3098C553.56 42.3098 544.58 50.2798 544.58 60.0698V151.49C544.58 161.97 554.12 171.51 564.6 171.51H1124.09C1134.27 171.51 1142.89 162.7 1142.98 152.22L1114.7 61.2498C1110.4 48.9798 1106.1 42.3098 1095.76 42.3098H564.6Z" fill="#CCCCCC"/>
<path d="M305 84.9199H304.55C296.536 84.9199 290.04 91.4163 290.04 99.4299V141.81C290.04 149.824 296.536 156.32 304.55 156.32H305C313.014 156.32 319.51 149.824 319.51 141.81V99.4299C319.51 91.4163 313.014 84.9199 305 84.9199Z" fill="#E5E5E3"/>
</g>
<defs>
<clipPath id="clip0_51_1118">
<rect width="1201.01" height="480.86" fill="white"/>
</clipPath>
</defs>
</svg>
