<svg width="1233" height="411" viewBox="0 0 1233 411" fill="none" xmlns="http://www.w3.org/2000/svg">
<g clip-path="url(#clip0_51_1200)">
<path d="M1071.31 304.66L1076.84 308.13C1076.84 308.13 1108.81 306 1113.4 306.39C1117.99 306.78 1128.14 303.83 1137.97 314.64C1137.97 314.64 1154.68 310.38 1155.99 307.92C1157.3 305.46 1142.63 297.03 1136.01 294.49C1129.39 291.95 1084.58 292.03 1079.67 293.18C1074.76 294.33 1071.32 304.64 1071.32 304.64L1071.31 304.66Z" fill="#C3BFBE"/>
<path d="M1200.37 247.85C1200.37 247.85 1229.53 248.63 1230.84 253.22C1232.14 257.81 1222.41 285.82 1222.41 285.82C1222.41 285.82 1219.7 294.99 1213.96 295.64C1208.23 296.29 1160.9 293.02 1153.86 285.81C1146.82 278.6 1200.37 247.84 1200.37 247.84V247.85Z" fill="black"/>
<path d="M90.1504 182.16C90.1504 182.16 59.6904 183.99 56.5504 183.5C53.4104 183.01 55.3604 181.11 58.0404 172.45C60.1404 165.68 55.9404 158.79 54.0104 156.12C48.7304 157.15 43.9904 159 41.0104 162.15C41.0104 162.15 32.0204 174.17 27.7104 184.7C26.6904 187.18 25.9404 189.58 25.6304 191.72C23.9904 202.92 21.4504 235.78 24.5804 238.76C27.7204 241.75 64.1604 240.97 64.1604 240.97L88.2104 216.81L103.04 183.53L90.1504 182.16Z" fill="#C5D6E2"/>
<path d="M58.0405 172.46C55.3505 181.12 53.4005 183.02 56.5505 183.51C59.6905 184 90.1505 182.17 90.1505 182.17L103.041 183.54L111.511 164.55L84.6305 156.19C84.6305 156.19 67.5505 153.49 54.0205 156.14C55.9505 158.82 60.1505 165.7 58.0505 172.47L58.0405 172.46Z" fill="#B95E25"/>
<path d="M46.6103 205.99H102.91L95.8303 238.96H48.2203C48.2203 238.96 44.9003 227.71 45.5003 219.05C46.1003 210.39 44.7403 206.81 46.6103 205.99Z" fill="#B95E25"/>
<path d="M40.5704 162.9L37.8804 166.95C37.8804 166.95 49.2304 163.2 51.7704 162.9C54.3104 162.6 80.2904 159.76 84.4804 171.41C88.6604 183.06 64.7004 206.74 61.9004 240.97L71.1904 236.67L107.03 190.07L101.65 168.41L88.2104 161.09C88.2104 161.09 51.6204 152.58 40.5704 162.28" fill="black"/>
<path d="M29.5205 185.59C29.0805 185.59 28.7304 185.18 28.7104 184.74C28.7104 184.3 29.0505 183.9 29.5005 183.89L81.7704 182.72C82.2004 182.71 82.5804 183.05 82.5904 183.5C82.5904 183.94 82.2505 184.37 81.8005 184.38L29.5305 185.59H29.5105H29.5205Z" fill="black"/>
<path d="M72.3502 203.59H26.5002C26.0602 203.59 25.7002 203.53 25.7002 203.09C25.7002 202.65 26.0602 202.59 26.5002 202.59H72.3402C72.7902 202.59 73.1402 202.65 73.1402 203.09C73.1402 203.53 72.7802 203.59 72.3402 203.59H72.3502Z" fill="black"/>
<path d="M54.6603 186.29H77.9803L71.4803 199.15H53.0503L54.6603 186.29Z" fill="black"/>
<path d="M5.72025 260.1C5.72025 260.1 -1.71975 265.41 0.370251 274.08C2.46025 282.74 6.65025 298.99 6.65025 298.99C6.65025 298.99 6.41025 304.2 20.0003 305.99C33.5903 307.78 37.3603 308.96 37.3603 308.96V316.98C37.3603 316.98 27.0703 318.97 27.3703 323.3C27.6703 327.63 38.5203 331.07 80.9403 331.07L82.0403 316.43L114.47 316.73L264.87 313.89C264.87 313.89 295.79 323.15 307.29 325.39C318.79 327.63 333.73 330.11 337.46 329.92C341.19 329.73 344.93 301.05 344.93 301.05L299.08 182.62L115.83 172.46L92.4502 218.46L76.1103 240.11L72.2303 240.97L37.8503 240.7C37.8503 240.7 19.3603 247.72 15.6203 251.75C11.8903 255.78 5.72025 260.09 5.72025 260.09V260.1Z" fill="#010101"/>
<path d="M780.82 159.29L754.82 121.94C754.82 121.94 744.36 126.37 738.89 125.57C733.42 124.77 484.92 180.26 484.92 180.26L293.68 289.83C293.68 289.83 289.5 319.39 301.56 324.22C313.62 329.05 385.2 329.85 385.2 329.85L767.22 324.22C767.22 324.22 780.89 330.65 797.78 329.84C814.67 329.04 826.73 322.59 826.73 322.59H846.03C846.03 322.59 883.03 321.72 900.72 319.31C918.41 316.9 1039.85 309.59 1039.85 309.59H1076.72V162.56L780.82 159.29Z" fill="black"/>
<path d="M454.42 19.6902L441.76 16.7302C441.76 16.7302 303.33 100.59 290.63 138.43C277.93 176.26 333.72 110.15 333.72 110.15L454.41 19.7002L454.42 19.6902Z" fill="#C5D6E2"/>
<path d="M401.18 48.5602C415.28 39.3902 446.6 19.9202 446.6 19.9202L443.33 16.2302C442.11 16.5802 441.48 16.7802 441.76 16.7302C443.37 16.4602 445.24 19.6802 445.24 19.6802C411.19 34.4302 338 95.5502 332.11 100.65C326.21 105.74 305.03 119.96 299.4 121.01C299.26 121.04 299.1 121.06 298.94 121.09C306.44 125.63 381.21 61.5502 401.18 48.5702V48.5602Z" fill="#222222"/>
<path d="M739.25 306.16C736.03 304.28 737.73 294.59 737.73 294.59L732.1 302.5C733.71 298.48 744.97 145.94 744.7 117.26C744.43 88.5703 737.19 22.0903 729.96 10.5603C722.72 -0.969731 694.04 -0.699732 609.32 0.640268C524.61 1.98027 480.64 9.22027 474.48 9.22027C469.38 9.22027 449.22 14.5503 443.34 16.2303L446.61 19.9203C446.61 19.9203 415.29 39.3903 401.19 48.5603C381.22 61.5503 306.45 125.62 298.95 121.08C292.75 122.04 273.23 121.83 266.7 121.05C259.99 120.25 110.66 141.47 86.8 145.75C62.94 150.04 54.6 152.16 45.82 155.74C37.04 159.32 37.89 166.94 37.89 166.94C60.52 152.02 84.43 165.5 86.84 169.26C89.25 173.01 80.67 191.51 75.04 201.7C69.41 211.89 61.9 240.97 61.9 240.97H97.02C106.67 215.23 119.27 205.11 131.87 199.48C144.47 193.85 238.3 181.32 262.16 198.47C286.02 215.63 294.33 294.18 294.87 299.81C295.41 305.44 299.96 310 299.96 310C300.5 316.43 306.19 318.58 306.19 318.58L746.71 314.56V308.12C746.71 308.12 742.47 308.04 739.25 306.16Z" fill="#DEDEDE"/>
<path d="M1181.55 124.15L1206.33 137.82C1206.33 137.82 1211.51 150.35 1211.85 169.01C1212.19 187.67 1213.39 226.37 1207.23 233.9C1201.06 241.43 1163.74 211.3 1163.57 208.56C1163.4 205.82 1181.55 124.15 1181.55 124.15Z" fill="#AE222F"/>
<path d="M754.851 121.94C754.851 121.94 750.231 120.57 750.231 127.96C750.231 135.35 749.151 195.59 748.331 215.3C747.511 235.01 736.461 303.13 739.391 304.92C742.321 306.71 751.081 308.29 751.081 308.29L750.811 315.58H818.681C818.681 315.58 829.671 310.53 835.691 310.53C841.711 310.53 843.631 306.31 843.631 302.48C843.631 298.65 851.301 220.01 887.171 204.4C923.041 188.79 1014.76 189.72 1014.76 189.72C1014.76 189.72 1046.25 188.54 1056.38 222.22C1066.51 255.9 1070.07 289.26 1064.59 299.94L1131.4 291.71C1131.4 291.71 1187.53 289.51 1196.29 272.26C1205.05 255.01 1208.61 231.18 1208.61 231.18C1208.61 231.18 1197.38 227.62 1194.1 212.01C1190.81 196.4 1183.42 176.41 1183.15 171.48C1182.88 166.55 1177.19 144.92 1184.03 141.09C1190.88 137.26 1205.72 137.8 1205.72 137.8V123.94C1205.72 123.94 1206.81 117.54 1200.78 117.54C1194.75 117.54 754.841 121.92 754.841 121.92L754.851 121.94Z" fill="#DEDEDE"/>
<path d="M92.4504 245.4H28.1104C28.1104 245.4 6.36037 246.09 4.57037 256.09C2.78037 266.1 5.17037 269.83 6.81037 270.13C8.45037 270.43 86.7104 270.13 86.7104 270.13C86.7104 270.13 87.8804 256.21 92.4504 245.4Z" fill="#DEDEDE"/>
<path d="M749.12 227.7V247.4H815.47C815.47 247.4 818.74 247.4 819.71 246.43C820.68 245.45 820.69 242.01 820.69 242.01V232.53C820.69 232.53 820.55 227.97 817.29 227.71C814.04 227.44 749.11 227.71 749.11 227.71L749.12 227.7Z" fill="#222222"/>
<path d="M815.47 247.41C815.47 247.41 820.29 251.04 827.8 237.5C835.31 223.95 847.1 171.41 870.69 164.98C894.28 158.55 1102.31 140.85 1102.31 140.85C1102.31 140.85 883.02 136.56 858.89 160.15C834.76 183.74 831.01 241.38 815.46 247.41H815.47Z" fill="#D3D3D3"/>
<path d="M343.18 125.22C343.18 125.22 340.35 113.27 352.3 104.16C364.25 95.0403 425.86 46.0003 425.86 46.0003C425.86 46.0003 454.78 22.7403 492.51 19.5903C530.24 16.4503 578.34 15.8203 578.34 15.8203C578.34 15.8203 589.66 15.1903 589.97 24.3103C590.28 33.4303 583.68 113.91 583.68 113.91C583.68 113.91 585.57 120.51 579.91 123.97C574.25 127.43 561.68 126.8 561.68 126.8L362.05 136.23C362.05 136.23 345.39 135.29 343.19 125.23L343.18 125.22Z" fill="#1E1E1E"/>
<path d="M576.77 115.47L584 29.3302C584 29.3302 586.51 22.7302 580.38 22.7302C574.25 22.7302 493.46 22.7302 463.9 35.6202C434.35 48.5102 368.33 87.8102 358.58 115.47C348.83 143.14 374.93 126.16 374.93 126.16L413.28 125.53L560.41 118.93C560.41 118.93 576.31 120.86 576.76 115.47H576.77Z" fill="#C5D6E2"/>
<path d="M713.331 99.6803C713.331 112.59 702.861 124.58 689.951 124.58H640.211C627.301 124.58 613.73 111.07 613.73 98.1603V34.7403C613.73 21.8303 627.291 15.5803 640.211 15.5803H683.521C696.431 15.5803 704.94 19.7103 709.25 36.9003L713.331 99.6803Z" fill="#C5D6E2"/>
<path d="M683.511 19.4103C693.841 19.4103 700.601 22.1503 704.451 37.1103L708.491 100.03C708.411 110.6 699.781 119.95 689.941 119.95H640.201C630.011 119.95 618.421 108.36 618.421 98.1803V34.7603C618.421 24.9103 629.691 19.4203 640.201 19.4203H683.571M683.511 14.5903H640.201C627.291 14.5903 613.601 21.8403 613.601 34.7503V98.1703C613.601 111.08 627.291 124.77 640.201 124.77H689.941C702.851 124.77 713.321 112.69 713.321 99.7803L709.241 36.4603C704.931 19.2703 696.421 14.5903 683.511 14.5903Z" fill="#1E1E1E"/>
<path d="M340.42 227.7C334.95 227.7 333.72 232.14 333.72 237.61V237.89C333.72 243.36 334.94 247.8 340.42 247.8H599.93V227.69H340.42V227.7Z" fill="#222222"/>
<path d="M735.05 237.62C735.05 232.15 735.44 227.71 729.96 227.71H606.37V247.82H729.96C735.43 247.82 735.05 243.38 735.05 237.91V237.63V237.62Z" fill="#222222"/>
<path d="M344.93 127.07C344.93 127.07 343 115.87 354.52 113.1L355.91 98.7003C355.91 98.7003 355.38 91.2303 359.75 89.3103C364.13 87.3903 386.63 81.9503 395.91 83.3403C405.19 84.7303 402.42 109.26 402.2 113C401.98 116.73 403.16 123.56 396.97 125.8C390.78 128.04 369.98 134.97 367.1 136.04C364.22 137.11 344.5 140.41 344.92 127.08L344.93 127.07Z" fill="#040404"/>
<path d="M603.73 288.59H602.73V154.52L606.151 0.670166L607.75 0.710166L603.73 154.54V288.59Z" fill="#222222"/>
<path d="M326.47 294.47L326.27 293.94C322.61 284.02 311.67 209.85 313.89 182.61C316.01 156.58 328.51 103.86 328.63 103.32L330.62 101.88C330.49 102.42 317.6 156.83 315.49 182.74C313.38 208.56 323.87 281.27 327.59 292.85L733.73 287.04L733.75 288.65L326.46 294.48L326.47 294.47Z" fill="#222222"/>
<path d="M270.738 316.123C272.995 268.614 236.311 228.27 188.802 226.013C141.292 223.756 100.949 260.44 98.6918 307.949C96.4347 355.459 133.119 395.802 180.628 398.059C228.137 400.316 268.481 363.632 270.738 316.123Z" fill="#27262C"/>
<path d="M119.871 312.04C119.871 347.97 149.001 377.09 184.931 377.09C220.861 377.09 249.981 347.96 249.981 312.04C249.981 276.12 220.861 246.99 184.931 246.99C149.001 246.99 119.871 276.11 119.871 312.04Z" fill="#C3BFBE"/>
<path d="M162.351 268.43L177.411 285.54C177.411 285.54 180.011 289.65 183.571 289.65C187.131 289.65 189.721 286.77 189.721 286.77L205.471 268.43C205.471 268.43 207.661 265.83 205.471 264.05C203.281 262.27 195.591 259.67 184.931 259.67C174.271 259.67 158.521 262.54 162.351 268.43Z" fill="#27262C"/>
<path d="M162.351 355.66L177.401 338.55C177.401 338.55 180.001 334.44 183.561 334.44C187.121 334.44 189.721 337.31 189.721 337.31L205.461 355.65C205.461 355.65 207.651 358.25 205.461 360.03C203.271 361.81 195.591 364.41 184.921 364.41C174.251 364.41 158.511 361.53 162.351 355.65V355.66Z" fill="#27262C"/>
<path d="M229.071 290.29L211.961 305.34C211.961 305.34 207.851 307.94 207.851 311.5C207.851 315.06 210.721 317.66 210.721 317.66L229.061 333.4C229.061 333.4 231.661 335.59 233.441 333.4C235.221 331.21 237.821 323.53 237.821 312.86C237.821 302.19 234.941 286.45 229.061 290.29H229.071Z" fill="#27262C"/>
<path d="M141.841 290.29L158.951 305.34C158.951 305.34 163.051 307.94 163.051 311.5C163.051 315.06 160.181 317.66 160.181 317.66L141.841 333.4C141.841 333.4 139.241 335.59 137.461 333.4C135.681 331.21 133.081 323.53 133.081 312.86C133.081 302.19 135.961 286.45 141.841 290.29Z" fill="#27262C"/>
<path d="M270.738 316.123C272.995 268.614 236.311 228.27 188.802 226.013C141.292 223.756 100.949 260.44 98.6918 307.949C96.4347 355.459 133.119 395.802 180.628 398.059C228.137 400.316 268.481 363.632 270.738 316.123Z" fill="#27262C"/>
<path d="M119.871 312.04C119.871 347.97 149.001 377.09 184.931 377.09C220.861 377.09 249.981 347.96 249.981 312.04C249.981 276.12 220.861 246.99 184.931 246.99C149.001 246.99 119.871 276.11 119.871 312.04Z" fill="#C3BFBE"/>
<path d="M162.351 268.43L177.411 285.54C177.411 285.54 180.011 289.65 183.571 289.65C187.131 289.65 189.721 286.77 189.721 286.77L205.471 268.43C205.471 268.43 207.661 265.83 205.471 264.05C203.281 262.27 195.591 259.67 184.931 259.67C174.271 259.67 158.521 262.54 162.351 268.43Z" fill="#27262C"/>
<path d="M162.351 355.66L177.401 338.55C177.401 338.55 180.001 334.44 183.561 334.44C187.121 334.44 189.721 337.31 189.721 337.31L205.461 355.65C205.461 355.65 207.651 358.25 205.461 360.03C203.271 361.81 195.591 364.41 184.921 364.41C174.251 364.41 158.511 361.53 162.351 355.65V355.66Z" fill="#27262C"/>
<path d="M229.071 290.29L211.961 305.34C211.961 305.34 207.851 307.94 207.851 311.5C207.851 315.06 210.721 317.66 210.721 317.66L229.061 333.4C229.061 333.4 231.661 335.59 233.441 333.4C235.221 331.21 237.821 323.53 237.821 312.86C237.821 302.19 234.941 286.45 229.061 290.29H229.071Z" fill="#27262C"/>
<path d="M141.841 290.29L158.951 305.34C158.951 305.34 163.051 307.94 163.051 311.5C163.051 315.06 160.181 317.66 160.181 317.66L141.841 333.4C141.841 333.4 139.241 335.59 137.461 333.4C135.681 331.21 133.081 323.53 133.081 312.86C133.081 302.19 135.961 286.45 141.841 290.29Z" fill="#27262C"/>
<path d="M1043.45 325.868C1051.07 278.919 1019.19 234.683 972.237 227.062C925.289 219.441 881.052 251.322 873.431 298.27C865.811 345.219 897.692 389.456 944.64 397.076C991.588 404.697 1035.83 372.816 1043.45 325.868Z" fill="#27262C"/>
<path d="M893.55 312.04C893.55 347.97 922.68 377.09 958.61 377.09C994.54 377.09 1023.66 347.96 1023.66 312.04C1023.66 276.12 994.54 246.99 958.61 246.99C922.68 246.99 893.55 276.11 893.55 312.04Z" fill="#C3BFBE"/>
<path d="M936.029 268.43L951.089 285.54C951.089 285.54 953.689 289.65 957.249 289.65C960.809 289.65 963.399 286.77 963.399 286.77L979.139 268.43C979.139 268.43 981.329 265.83 979.139 264.05C976.949 262.27 969.269 259.67 958.599 259.67C947.929 259.67 932.189 262.54 936.019 268.43H936.029Z" fill="#27262C"/>
<path d="M936.03 355.66L951.08 338.55C951.08 338.55 953.68 334.44 957.24 334.44C960.8 334.44 963.4 337.31 963.4 337.31L979.14 355.65C979.14 355.65 981.33 358.25 979.14 360.03C976.95 361.81 969.27 364.41 958.6 364.41C947.93 364.41 932.19 361.53 936.03 355.65V355.66Z" fill="#27262C"/>
<path d="M1002.75 290.29L985.639 305.34C985.639 305.34 981.529 307.94 981.529 311.5C981.529 315.06 984.409 317.66 984.409 317.66L1002.75 333.4C1002.75 333.4 1005.35 335.59 1007.13 333.4C1008.91 331.21 1011.51 323.53 1011.51 312.86C1011.51 302.19 1008.63 286.45 1002.75 290.29Z" fill="#27262C"/>
<path d="M915.53 290.29L932.64 305.34C932.64 305.34 936.74 307.94 936.74 311.5C936.74 315.06 933.87 317.66 933.87 317.66L915.53 333.4C915.53 333.4 912.93 335.59 911.15 333.4C909.37 331.21 906.77 323.53 906.77 312.86C906.77 302.19 909.65 286.45 915.53 290.29Z" fill="#27262C"/>
<path d="M1207.14 252.59H1228.05C1228.05 252.59 1232.96 252.96 1232.14 258.2C1231.32 263.44 1229.66 286.18 1219.68 286.84C1209.7 287.49 1191.52 291.82 1190.87 289.2C1190.21 286.58 1198.24 281.18 1200.86 275.12C1203.48 269.06 1205.71 252.6 1207.14 252.6V252.59Z" fill="#DEDEDE"/>
<path d="M523.71 154.87C523.71 154.87 524.01 148.96 527.31 148.73C530.61 148.5 535.84 147.69 535.84 147.69C535.84 147.69 541.18 140.84 547.11 140.84H559.72C559.72 140.84 570.58 139.23 575.47 147.27H586.26C586.26 147.27 591.64 147.46 591.87 154.76C592.1 162.06 586.63 160.69 586.63 160.69L575.58 160.89C575.58 160.89 570.57 168.18 566.36 168.18H554.09C554.09 168.18 542.45 169 539.71 165.24C536.98 161.48 534.36 161.37 534.36 161.37L528.44 161.03C528.44 161.03 522.56 159.22 523.72 154.86L523.71 154.87Z" fill="#1A1A1A"/>
</g>
<defs>
<clipPath id="clip0_51_1200">
<rect width="1232.23" height="410.875" fill="white"/>
</clipPath>
</defs>
</svg>
