<svg width="966" height="373" viewBox="0 0 966 373" fill="none" xmlns="http://www.w3.org/2000/svg">
<g clip-path="url(#clip0_55_1327)">
<path d="M714.57 308.62L727.59 316.33C727.59 316.33 739.06 309.58 745.8 312.48C752.54 315.37 872.51 311.83 872.51 311.83C872.51 311.83 897.35 315.14 901.61 299.99C905.87 284.84 916.83 179.35 800.81 200.37C684.79 221.39 712.08 286.97 714.57 308.62Z" fill="black"/>
<path d="M81.04 304.01L104.41 321.82C104.41 321.82 121.5 315.36 125.76 316.78C130.02 318.2 251.05 327.03 251.05 327.03C251.05 327.03 283.35 330.05 292.58 321.81C301.81 313.58 252.83 176.57 182.91 190.06C112.99 203.55 81.05 304 81.05 304L81.04 304.01Z" fill="black"/>
<path d="M26.8799 220.72L21.8599 205.94C21.8599 205.94 49.8699 154.04 101.33 159.88C152.8 165.72 26.8699 220.72 26.8699 220.72H26.8799Z" fill="#CBCDCC"/>
<path d="M875.27 21.1699L933.409 149.38H960.25C953.74 117.6 934.1 65.6599 875.27 21.1699Z" fill="#FF5963"/>
<path d="M933.409 149.37L946.189 177.55L956.759 179.27C956.759 179.27 961.249 179.36 961.959 178.68C963.039 177.65 963.939 167.4 960.249 149.37H933.409Z" fill="#FF331B"/>
<path d="M177.88 136.33L183.05 127.02C183.05 127.02 354.49 13.8702 424.17 15.9402C493.85 18.0102 196.5 171.86 177.88 136.33Z" fill="#788D9E"/>
<path d="M963.93 256.25C963.93 256.25 962.32 249.04 963.33 231.7H892.68C881.45 231.7 867.8 222.86 867.8 214.97C867.8 207.08 872.04 208.28 872.04 208.28H958.76V178.68L954.45 178.16C954.45 178.16 955.1 160.4 948.57 129.84C942.04 99.28 913.57 61.14 897.37 37.37C881.18 13.6 870.47 15.43 827.89 9.16C785.32 2.87 601.69 0 601.69 0C601.69 0 490.15 3.66 438.17 11.23C386.19 18.81 332.64 47.54 313.83 57.73C295.02 67.92 220.69 124.22 220.69 124.22C216.88 126.6 188.65 124.22 188.65 124.22C152.79 126.72 76.3098 161.74 76.3098 161.74C78.5698 161.5 89.8798 164 89.8798 164C98.9298 169.6 84.3798 179.13 79.2598 183.06C74.1398 186.99 47.8998 202.12 38.9598 205.1C30.0298 208.08 21.8598 205.93 21.8598 205.93C18.6398 209.74 13.6298 227.61 13.6298 227.61C13.6298 227.61 6.43977 231.1 2.50977 237.94L97.5998 236.72C97.5998 236.72 106.48 236.18 105.57 240.34C104.66 244.51 98.3198 257 86.3698 257.91C76.2298 258.68 19.5598 258.92 2.59977 258.98C4.91977 264.1 7.94977 267.21 7.94977 267.21V281.33C3.76977 285.97 4.60977 292.1 4.60977 292.1C9.52977 321.64 104.41 321.81 104.41 321.81C96.1198 265.14 112.96 212.88 186.1 212.88C252.19 212.88 266.02 275.79 268.07 295.82L728.99 293.76C733.36 264.14 750.37 215.78 814.83 215.23C907.82 214.45 891.56 309.79 891.56 309.79C891.56 309.79 939.56 301.95 955.75 293.33C971.94 284.71 963.92 256.24 963.92 256.24L963.93 256.25Z" fill="#A71A10"/>
<path d="M105.57 240.34C106.48 236.17 97.5998 236.72 97.5998 236.72L2.50983 237.94C1.14983 240.3 0.179833 243.05 0.0298331 246.19C-0.210167 251.14 1.02983 255.52 2.59983 258.98C19.5598 258.92 76.2298 258.68 86.3698 257.91C98.3198 257 104.66 244.51 105.57 240.34Z" fill="#2C2D32"/>
<path d="M268.38 300.65C268.38 311.36 274.13 327.03 274.13 327.03L727.59 316.32C727.59 316.32 727.13 308.21 728.6 296.6L268.31 298.66C268.36 299.45 268.39 300.14 268.39 300.65H268.38Z" fill="#9B1310"/>
<path d="M268.31 298.67L728.6 296.61C728.72 295.68 728.85 294.73 728.99 293.77L268.07 295.83C268.18 296.92 268.25 297.85 268.3 298.67H268.31Z" fill="#BA1C19"/>
<path d="M277.26 248.67L706.43 237.7C706.43 237.7 726.54 239.27 732.29 224.12C732.29 224.12 734.38 219.94 721.32 220.2C708.26 220.46 273.6 235.61 273.6 235.61C273.6 235.61 267.59 242.4 277.26 248.67Z" fill="#28272D"/>
<path d="M555.98 165.35C555.98 169.89 530.08 170.37 498.12 170.37C466.16 170.37 440.26 170.64 440.26 165.35C440.26 160.06 466.16 160.33 498.12 160.33C530.08 160.33 555.98 160.83 555.98 165.35Z" fill="#C1B8BD"/>
<path d="M865.96 214.53C865.96 222.42 881.44 232.74 892.67 232.74H963.32C963.36 230.65 963.41 231.2 963.46 230.39C964.77 211.32 958.76 207.66 958.76 207.66H872.04C872.04 207.66 865.96 206.63 865.96 214.53Z" fill="#2C2D32"/>
<path d="M219.66 149.37L498.53 133.37L862.83 118.55C862.83 118.55 899.1 119.06 901.66 107.82C904.21 96.5798 886.16 50.0898 875.26 38.8598C864.36 27.6198 866.41 26.5998 859.77 24.5598C853.13 22.5198 725.41 13.8298 672.28 13.3198C619.15 12.8098 455.16 9.73983 405.1 27.1098C355.04 44.4798 266.66 92.8298 219.66 149.37Z" fill="#252428"/>
<path d="M234.45 141.65C234.45 141.65 304.85 79.2498 326.92 71.3398L319.84 136.32L234.45 141.65Z" fill="#788D9E"/>
<path d="M335.05 64.4701L329.84 135.07L478.55 126.74L493.96 19.4801C493.96 19.4801 395.03 19.0601 335.05 64.4701Z" fill="#788D9E"/>
<path d="M532.49 19.4801L527.28 124.66L705.98 118.62L690.36 17.6101C690.36 17.6101 569.15 14.0701 532.49 19.4801Z" fill="#788D9E"/>
<path d="M727.76 18.79L742.64 112.51H870.55C870.55 112.51 886.14 111.26 890.52 105.85C894.89 100.44 893.44 87.24 888.85 78.29C884.27 69.33 869.27 30.84 857.19 28.76C845.11 26.68 727.76 18.8 727.76 18.8V18.79Z" fill="#788D9E"/>
<path d="M493.23 294.92C490.81 277.72 497.51 139.22 497.8 133.34V133.28L514.73 3.3999L516.18 3.5899L499.26 133.44C499.13 136.17 492.3 277.73 494.68 294.72L493.23 294.92Z" fill="#1C1B21"/>
<path d="M714.73 294.19L713.54 293.33C732.76 266.66 741.29 185.81 742 165.32C742.72 144.38 728.54 124.62 728.4 124.43L728.29 124.28L728.26 124.1L712.7 16.1601L705.35 3.87012L706.61 3.12012L714.11 15.6701L729.69 123.73C731.02 125.63 744.16 144.93 743.46 165.39C742.75 185.98 734.15 267.27 714.73 294.21V294.19Z" fill="#1C1B21"/>
<path d="M742.56 161.51C742.17 161.51 742.7 160.52 742.66 159.2C742.62 157.85 741.5 156.98 742.49 156.84L948.35 150.51H948.43C949.74 150.51 950.83 151.61 950.87 152.93C950.91 154.28 949.85 155.25 948.5 155.3L742.64 161.51H742.56Z" fill="#1C1B21"/>
<path d="M92.6299 170.53L92.3599 169.09C93.2599 168.92 182.88 151.96 219.6 148.64L219.73 150.1C183.08 153.41 93.5299 170.36 92.6299 170.53Z" fill="#1C1B21"/>
<path d="M274.63 156.45L297.83 125.76C297.83 125.76 304.77 104.93 322.13 103.11C339.49 101.28 361.41 101.47 362.69 117.73C363.97 133.99 356.48 136.37 349.35 136.18C342.23 136 313.72 139.29 313.72 139.29L316.1 152.08C316.1 152.08 276.64 163.41 274.63 156.46V156.45Z" fill="#A71A10"/>
<path d="M258.75 299.99C258.75 340.31 226.07 372.99 185.75 372.99C145.43 372.99 112.76 340.31 112.76 299.99C112.76 259.67 145.44 226.99 185.75 226.99C226.06 226.99 258.75 259.67 258.75 299.99Z" fill="#27262C"/>
<path d="M130.78 299.99C130.78 330.45 155.47 355.13 185.93 355.13C216.39 355.13 241.07 330.44 241.07 299.99C241.07 269.54 216.39 244.85 185.93 244.85C155.47 244.85 130.78 269.54 130.78 299.99Z" fill="#C3BFBE"/>
<path d="M166.79 263.02L179.55 277.52C179.55 277.52 181.76 281 184.77 281C187.78 281 189.99 278.56 189.99 278.56L203.33 263.01C203.33 263.01 205.19 260.8 203.33 259.3C201.48 257.79 194.96 255.59 185.93 255.59C176.9 255.59 163.54 258.02 166.79 263.01V263.02Z" fill="#27262C"/>
<path d="M166.79 336.96L179.55 322.46C179.55 322.46 181.76 318.98 184.77 318.98C187.78 318.98 189.99 321.42 189.99 321.42L203.33 336.96C203.33 336.96 205.19 339.17 203.33 340.67C201.48 342.18 194.96 344.39 185.92 344.39C176.88 344.39 163.53 341.95 166.78 336.96H166.79Z" fill="#27262C"/>
<path d="M223.35 281.551L208.85 294.311C208.85 294.311 205.37 296.511 205.37 299.531C205.37 302.551 207.81 304.751 207.81 304.751L223.36 318.091C223.36 318.091 225.57 319.941 227.07 318.091C228.58 316.241 230.79 309.721 230.79 300.681C230.79 291.641 228.35 278.291 223.37 281.551H223.35Z" fill="#27262C"/>
<path d="M149.41 281.551L163.91 294.311C163.91 294.311 167.39 296.511 167.39 299.531C167.39 302.551 164.95 304.751 164.95 304.751L149.41 318.091C149.41 318.091 147.2 319.941 145.69 318.091C144.18 316.231 141.98 309.721 141.98 300.681C141.98 291.641 144.42 278.291 149.41 281.551Z" fill="#27262C"/>
<path d="M881.96 299.99C881.96 340.31 849.28 372.99 808.96 372.99C768.64 372.99 735.97 340.31 735.97 299.99C735.97 259.67 768.65 226.99 808.96 226.99C849.27 226.99 881.96 259.67 881.96 299.99Z" fill="#27262C"/>
<path d="M753.99 299.99C753.99 330.45 778.68 355.13 809.14 355.13C839.6 355.13 864.28 330.44 864.28 299.99C864.28 269.54 839.6 244.85 809.14 244.85C778.68 244.85 753.99 269.54 753.99 299.99Z" fill="#C3BFBE"/>
<path d="M790 263.02L802.76 277.52C802.76 277.52 804.97 281 807.98 281C810.99 281 813.2 278.56 813.2 278.56L826.54 263.01C826.54 263.01 828.4 260.8 826.54 259.3C824.69 257.79 818.17 255.59 809.14 255.59C800.11 255.59 786.75 258.02 790 263.01V263.02Z" fill="#27262C"/>
<path d="M789.999 336.96L802.759 322.46C802.759 322.46 804.969 318.98 807.979 318.98C810.989 318.98 813.199 321.42 813.199 321.42L826.539 336.96C826.539 336.96 828.399 339.17 826.539 340.67C824.679 342.18 818.169 344.39 809.129 344.39C800.089 344.39 786.739 341.95 789.989 336.96H789.999Z" fill="#27262C"/>
<path d="M846.559 281.551L832.059 294.311C832.059 294.311 828.579 296.511 828.579 299.531C828.579 302.551 831.019 304.751 831.019 304.751L846.569 318.091C846.569 318.091 848.779 319.941 850.279 318.091C851.789 316.241 853.999 309.721 853.999 300.681C853.999 291.641 851.559 278.291 846.579 281.551H846.559Z" fill="#27262C"/>
<path d="M772.619 281.551L787.119 294.311C787.119 294.311 790.599 296.511 790.599 299.531C790.599 302.551 788.159 304.751 788.159 304.751L772.619 318.091C772.619 318.091 770.409 319.941 768.899 318.091C767.389 316.231 765.189 309.721 765.189 300.681C765.189 291.641 767.629 278.291 772.619 281.551Z" fill="#27262C"/>
</g>
<defs>
<clipPath id="clip0_55_1327">
<rect width="965.906" height="372.99" fill="white"/>
</clipPath>
</defs>
</svg>
