<svg width="1071" height="349" viewBox="0 0 1071 349" fill="none" xmlns="http://www.w3.org/2000/svg">
<g clip-path="url(#clip0_55_1441)">
<path d="M28.3013 278.81L62.9013 300.93C62.9013 300.93 69.9713 282.9 96.5313 288.26C123.091 293.62 231.491 302.03 231.491 302.03C231.491 302.03 270.541 312.99 288.601 300.3C306.651 287.61 706.881 288.2 706.881 288.2L764.451 302.69C764.451 302.69 783.291 296.13 796.621 295.63C809.951 295.13 924.301 292.62 924.301 292.62L944.431 289.12L992.001 247.1L896.461 116.96L195.221 142.41L52.6313 182.72L28.3013 278.81Z" fill="#050505"/>
<path d="M1023.65 259.74H1064.59C1064.59 259.74 1070.01 259.45 1069.1 269.78C1068.19 280.11 1059.68 278.74 1059.68 278.74H1020.09L1023.65 259.74Z" fill="#DFE4E8"/>
<path d="M109.091 135.5L90.0111 133.04C90.0111 133.04 58.1011 138.05 40.1511 153.47C22.2011 168.89 14.6611 199.05 15.7311 203.36C16.8111 207.67 74.9811 184.69 76.4111 182.72C77.8511 180.74 109.081 135.5 109.081 135.5H109.091Z" fill="#C5D6E2"/>
<path d="M279.701 106.18C279.701 106.18 287.441 101.84 293.021 99.9802C298.601 98.1202 318.111 95.3302 316.871 96.8802C315.631 98.4302 307.891 101.84 309.431 106.17C310.981 110.51 279.691 106.17 279.691 106.17L279.701 106.18Z" fill="#5C5F66"/>
<path d="M301.071 106.49C301.071 106.49 429.081 34.7 472.451 19.52L489.111 20.37L392.771 73.34L332.361 113.3L301.071 106.48V106.49Z" fill="#C5D6E2"/>
<path d="M1016.07 101.75C1016.07 101.75 1031.51 97.0804 1034.02 107.5C1036.53 117.91 1036.53 127.97 1040.84 138.74C1045.15 149.51 1048.02 155.97 1044.43 163.51C1040.84 171.05 981.241 156.33 981.241 156.33C981.241 156.33 980.881 102.47 1016.07 101.75Z" fill="#AE222F"/>
<path d="M269.541 306.7C303.231 303.69 689.911 302.83 755.141 302.71L754.771 284.57L269.451 292.98C269.471 298.28 269.501 302.84 269.531 306.7H269.541Z" fill="#9D9E9B"/>
<path d="M1051.02 181.03C1051.02 177.51 1045.99 156.9 1045.99 156.9C1045.99 156.9 1039.45 156.66 1020.6 156.15C1001.75 155.65 997.981 138.32 993.701 130.02C989.431 121.72 1023.87 108.93 1027.89 102.9C1031.91 96.8702 969.321 91.1402 956.001 89.6302C942.681 88.1202 904.481 65.3602 854.201 40.7302C803.931 16.1002 740.331 -0.00976562 619.171 -0.00976562C498.011 -0.00976562 464.691 21.7202 464.691 21.7202H479.161C383.391 66.2202 329.081 103.52 329.081 103.52C319.021 106.54 287.851 102.87 287.851 102.87C142.311 117.7 90.011 133.05 90.011 133.05C90.011 133.05 103.291 139.11 100.531 143.13C97.761 147.15 57.461 176.36 44.901 187.42C32.331 198.48 15.081 197.83 15.081 197.83C1.92104 203.82 -0.438962 214.46 0.0610379 221.5C0.561038 228.54 5.84104 262.22 6.09104 266.75C6.34104 271.27 -0.698962 270.77 1.57104 279.07C3.83104 287.37 23.691 297.17 23.691 297.17L56.331 300.31C54.361 290.62 48.781 258.37 56.941 237.96C66.641 213.72 91.451 164.57 160.381 164.57C216.101 164.57 269.431 201.01 269.431 277.75C269.431 283.44 269.431 288.48 269.451 292.99L754.771 284.58L754.521 272.29C754.521 272.29 769.391 162.95 864.921 167.7C946.951 171.77 961.671 244.93 951.941 288.47C969.901 286.92 1014.4 283.14 1020.6 283.34C1028.39 283.59 1031.66 277.06 1031.66 277.06C1075.15 264.49 1060.06 250.16 1060.06 250.16C1069.61 231.06 1068.86 218.49 1070.12 200.64C1071.38 182.79 1051.01 181.03 1051.01 181.03H1051.02Z" fill="#A7A8A3"/>
<path d="M864.921 167.69C769.391 162.94 754.521 272.28 754.521 272.28L755.131 302.71C761.171 302.7 764.461 302.69 764.461 302.69C762.951 282.33 763.711 180.69 865.761 179.57C957.511 178.56 944.441 289.11 944.441 289.11C944.441 289.11 947.331 288.85 951.941 288.46C961.671 244.92 946.951 171.76 864.921 167.69Z" fill="#9D9E9B"/>
<path d="M160.381 164.55C91.4609 164.55 66.6408 213.7 56.9408 237.94C48.7808 258.35 54.3608 290.6 56.3308 300.29L62.9008 300.92C52.8508 245.12 76.2208 166.19 169.981 173.98C263.741 181.77 265.501 286.59 265.501 295.14C265.501 303.69 267.511 306.95 267.511 306.95C267.881 306.86 268.571 306.77 269.531 306.69C269.461 299.55 269.421 290.1 269.421 277.72C269.421 200.98 216.091 164.54 160.371 164.54L160.381 164.55Z" fill="#9D9E9B"/>
<path d="M345.871 116.95C345.871 116.95 470.871 30.6702 489.111 27.5002C489.111 27.5002 571.531 4.48024 638.711 10.8702C705.891 17.2602 830.061 27.4502 833.621 66.4102C837.181 105.38 831.401 98.2602 831.401 98.2602L345.871 116.95Z" fill="#C5D6E2"/>
<path d="M604.881 14.5903L586.191 108.78L626.241 106.83L632.921 14.5903H604.881Z" fill="#313D49"/>
<path d="M162.156 346.775C205.845 345.684 240.377 309.383 239.287 265.694C238.196 222.006 201.895 187.473 158.206 188.564C114.518 189.654 79.9852 225.955 81.0758 269.644C82.1664 313.333 118.467 347.865 162.156 346.775Z" fill="#27262C"/>
<path d="M100.601 267.67C100.601 300.68 127.361 327.45 160.381 327.45C193.401 327.45 220.151 300.69 220.151 267.67C220.151 234.65 193.391 207.89 160.381 207.89C127.371 207.89 100.601 234.65 100.601 267.67Z" fill="#C3BFBE"/>
<path d="M139.641 227.6L153.471 243.32C153.471 243.32 155.861 247.09 159.131 247.09C162.401 247.09 164.791 244.45 164.791 244.45L179.261 227.6C179.261 227.6 181.271 225.21 179.261 223.58C177.251 221.94 170.191 219.56 160.391 219.56C150.591 219.56 136.121 222.2 139.641 227.61V227.6Z" fill="#27262C"/>
<path d="M139.631 307.75L153.461 292.03C153.461 292.03 155.851 288.26 159.121 288.26C162.391 288.26 164.781 290.9 164.781 290.9L179.241 307.75C179.241 307.75 181.261 310.14 179.241 311.77C177.231 313.41 170.171 315.8 160.371 315.8C150.571 315.8 136.101 313.16 139.631 307.75Z" fill="#27262C"/>
<path d="M200.951 247.69L185.231 261.52C185.231 261.52 181.461 263.91 181.461 267.18C181.461 270.45 184.101 272.84 184.101 272.84L200.951 287.3C200.951 287.3 203.341 289.31 204.971 287.3C206.601 285.29 209.001 278.23 209.001 268.43C209.001 258.63 206.361 244.16 200.951 247.69Z" fill="#27262C"/>
<path d="M120.791 247.69L136.511 261.52C136.511 261.52 140.281 263.91 140.281 267.18C140.281 270.45 137.641 272.84 137.641 272.84L120.791 287.3C120.791 287.3 118.401 289.31 116.761 287.3C115.131 285.29 112.741 278.23 112.741 268.43C112.741 258.63 115.381 244.16 120.791 247.69Z" fill="#27262C"/>
<path d="M935.351 267.67C935.351 311.37 899.921 346.8 856.221 346.8C812.521 346.8 777.091 311.37 777.091 267.67C777.091 223.97 812.521 188.54 856.221 188.54C899.921 188.54 935.351 223.97 935.351 267.67Z" fill="#27262C"/>
<path d="M796.631 267.67C796.631 300.68 823.391 327.45 856.411 327.45C889.431 327.45 916.181 300.69 916.181 267.67C916.181 234.65 889.421 207.89 856.411 207.89C823.401 207.89 796.631 234.65 796.631 267.67Z" fill="#C3BFBE"/>
<path d="M835.661 227.6L849.491 243.32C849.491 243.32 851.881 247.09 855.151 247.09C858.421 247.09 860.811 244.45 860.811 244.45L875.271 227.6C875.271 227.6 877.281 225.21 875.271 223.58C873.261 221.94 866.201 219.56 856.401 219.56C846.601 219.56 832.131 222.2 835.661 227.61V227.6Z" fill="#27262C"/>
<path d="M835.661 307.75L849.491 292.03C849.491 292.03 851.881 288.26 855.151 288.26C858.421 288.26 860.811 290.9 860.811 290.9L875.271 307.75C875.271 307.75 877.291 310.14 875.271 311.77C873.261 313.41 866.201 315.8 856.401 315.8C846.601 315.8 832.131 313.16 835.661 307.75Z" fill="#27262C"/>
<path d="M896.971 247.69L881.251 261.52C881.251 261.52 877.471 263.91 877.471 267.18C877.471 270.45 880.111 272.84 880.111 272.84L896.961 287.3C896.961 287.3 899.351 289.31 900.981 287.3C902.621 285.29 905.011 278.23 905.011 268.43C905.011 258.63 902.371 244.16 896.961 247.69H896.971Z" fill="#27262C"/>
<path d="M816.821 247.69L832.541 261.52C832.541 261.52 836.311 263.91 836.311 267.18C836.311 270.45 833.671 272.84 833.671 272.84L816.821 287.3C816.821 287.3 814.431 289.31 812.791 287.3C811.161 285.29 808.761 278.23 808.761 268.43C808.761 258.63 811.401 244.16 816.811 247.69H816.821Z" fill="#27262C"/>
<path d="M789.151 31.2501C789.151 31.2501 724.081 7.21007 619.441 10.0501C619.441 10.0501 531.481 9.45007 489.801 23.9201C489.801 23.9201 425.391 48.1401 334.751 120.51H348.991L353.811 120.02L841.131 100.7C840.911 96.1801 841.791 87.7201 840.451 77.7901C837.701 57.3801 830.561 41.3901 789.151 31.2401V31.2501ZM826.651 96.4401L606.641 104.65L351.591 116.26C376.231 99.0901 468.541 37.8301 496.021 27.5701C528.071 15.6101 625.951 14.8901 636.511 15.4201C647.071 15.9501 758.681 19.1201 808.761 45.0001C808.761 45.0001 841.211 53.3101 826.641 96.4401H826.651Z" fill="#F0F4F7"/>
<path d="M318.811 278.81L318.741 277.99C318.661 277.08 310.511 186.92 316.061 159.43C321.471 132.64 325.301 126.07 343.391 112.59L344.301 111.91C417.551 57.3103 472.511 25.0603 503.241 18.6503C530.791 12.9003 581.741 9.05029 630.031 9.05029C665.981 9.05029 716.951 11.1003 755.561 20.9003C827.851 39.2303 836.861 50.1703 840.201 70.7403C843.391 90.4203 842.721 157.52 837.121 170.01L836.941 170.41L836.511 170.51C835.771 170.68 762.971 188.3 756.231 273.23L756.171 274.04L318.821 278.81H318.811ZM630.031 10.8303C581.851 10.8303 531.041 14.6703 503.601 20.4003C473.561 26.6603 417.371 59.6703 345.361 113.34L344.441 114.02C326.821 127.15 323.091 133.56 317.791 159.78C312.571 185.63 319.621 267.88 320.421 277.01L754.511 272.27C761.451 190.2 829.441 170.51 835.651 168.88C840.851 155.92 841.481 89.8303 838.431 71.0103C835.221 51.2403 826.381 40.6903 755.111 22.6103C716.681 12.8603 665.871 10.8203 630.021 10.8203L630.031 10.8303Z" fill="#1D1D1D"/>
<path d="M96.5311 192.4L51.7011 192.61C51.7011 192.61 49.8611 201.28 60.5611 201.95C71.2611 202.62 85.5011 202.88 85.5011 202.88C85.5011 202.88 92.0111 195.67 96.5211 192.4H96.5311Z" fill="#BC4926"/>
<path d="M770.091 206.51C770.151 209.61 671.511 211.39 549.831 213.69C428.151 215.99 329.511 217.96 329.461 214.86C329.401 211.76 428.391 208.47 550.071 206.17C671.751 203.86 770.041 203.41 770.101 206.52L770.091 206.51Z" fill="#9D9E9B"/>
<path d="M598.132 274.99C590.802 221.74 605.902 103.35 606.052 102.16L617.671 9.83008L619.442 10.0501L607.822 102.38C607.672 103.57 592.602 221.72 599.892 274.74L598.132 274.98V274.99Z" fill="#1D1D1D"/>
<path d="M527.111 140.42C527.111 140.42 526.652 133.53 538.592 130.5C550.532 127.47 553.931 127.19 557.871 127.19C561.811 127.19 586.701 128.84 586.881 138.02C587.061 147.2 568.431 150.23 561.171 150.78C553.921 151.33 526.641 152.16 527.101 140.4L527.111 140.42Z" fill="#9D9E9B"/>
<path d="M762.091 135.08C762.091 135.08 761.631 128.19 773.571 125.16C785.501 122.13 788.901 121.85 792.851 121.85C796.801 121.85 821.681 123.5 821.871 132.68C822.051 141.86 803.411 144.89 796.161 145.44C788.911 145.99 761.631 146.82 762.091 135.06V135.08Z" fill="#9D9E9B"/>
<path d="M576.851 137.39C576.901 139.6 575.151 141.44 572.941 141.49L540.021 142.26C537.811 142.31 535.971 140.56 535.921 138.35L535.901 137.46C535.851 135.25 537.601 133.42 539.811 133.36L572.731 132.59C574.941 132.54 576.781 134.29 576.831 136.5L576.851 137.39Z" fill="#DCE4F1"/>
<path d="M811.821 132.05C811.871 134.26 810.121 136.1 807.911 136.15L774.991 136.92C772.781 136.97 770.951 135.22 770.891 133.01L770.871 132.12C770.821 129.91 772.571 128.08 774.781 128.02L807.701 127.25C809.911 127.2 811.751 128.95 811.801 131.16L811.821 132.05Z" fill="#DCE4F1"/>
</g>
<defs>
<clipPath id="clip0_55_1441">
<rect width="1070.18" height="348.759" fill="white" transform="translate(0 -0.00976562)"/>
</clipPath>
</defs>
</svg>
