<svg width="472" height="260" viewBox="0 0 472 260" fill="none" xmlns="http://www.w3.org/2000/svg">
<path d="M221.406 130C222.219 138.938 216.125 146.25 207.594 146.25H52.4061C43.8749 146.25 37.7811 138.938 38.5936 130L47.1249 39.8125C47.9374 30.875 55.6561 23.5625 64.1874 23.5625H195.812C204.344 23.5625 212.062 30.875 212.875 39.8125L221.406 130Z" fill="#B4D7EE"/>
<path d="M36.1562 123.906H60.5312V156.406H36.1562V123.906Z" fill="#3E4347"/>
<path d="M199.469 123.906H223.844V156.406H199.469V123.906Z" fill="#3E4347"/>
<path d="M59.3125 206.781H83.6875V247.812H59.3125V206.781Z" fill="#3E4347"/>
<path d="M176.312 206.781H200.688V247.812H176.312V206.781Z" fill="#3E4347"/>
<path d="M168.188 101.562C166.969 112.125 158.438 121.062 149.906 121.062H110.094C101.156 121.062 93.0313 112.531 91.8125 101.562L84.5 42.25C83.2813 31.6875 89.375 22.75 97.9063 22.75H161.688C170.625 22.75 176.719 31.6875 175.094 42.25L168.188 101.562Z" fill="#428BC1"/>
<path d="M93.4377 239.281C92.6252 237.25 90.1877 235.219 88.1564 235.219H55.6564C53.2189 235.219 51.1877 236.844 50.3752 239.281L44.2814 255.937C43.4689 257.969 44.6877 260 47.1252 260H95.8752C98.3127 260 99.5314 258.375 98.7189 255.937L93.4377 239.281Z" fill="#94989B"/>
<path d="M215.719 255.937L210.031 239.281C209.219 237.25 206.781 235.219 204.75 235.219H172.25C169.813 235.219 167.781 236.844 166.969 239.281L161.281 255.937C160.469 257.969 161.688 260 164.125 260H212.875C214.906 260 216.125 258.375 215.719 255.937Z" fill="#94989B"/>
<path d="M187.688 24.375C187.688 33.3125 180.781 40.625 172.25 40.625H87.3437C78.8125 40.625 71.9062 33.3125 71.9062 24.375V16.25C71.9062 7.3125 78.8125 0 87.3437 0H172.25C180.781 0 187.688 7.3125 187.688 16.25V24.375Z" fill="#29ABE2"/>
<path d="M62.9686 118.625L61.7498 110.094C60.9373 105.625 57.2811 101.969 53.2186 101.969H42.2498C38.1873 101.969 34.5311 105.625 33.7186 110.094L32.4998 118.625C31.6873 123.094 34.5311 126.75 38.5936 126.75H56.8748C60.9373 126.75 63.7811 123.094 62.9686 118.625Z" fill="#29ABE2"/>
<path d="M226.687 118.625L225.469 110.094C224.656 105.625 221 101.969 216.937 101.969H205.969C201.906 101.969 198.25 105.625 197.437 110.094L196.219 118.625C195.406 123.094 198.25 126.75 202.312 126.75H220.594C224.656 126.75 227.094 123.094 226.687 118.625Z" fill="#29ABE2"/>
<path d="M209.218 146.25H50.7809C38.1871 146.25 30.4684 158.438 32.9059 173.469L34.5309 184.031C36.9684 199.062 49.5621 211.25 61.7496 211.25H197.437C210.031 211.25 222.218 199.062 224.656 184.031L226.687 173.469C229.531 158.844 221.406 146.25 209.218 146.25Z" fill="#29ABE2"/>
<path d="M433.406 130C434.219 138.938 428.125 146.25 419.594 146.25H264.406C255.875 146.25 249.781 138.938 250.594 130L259.125 39.8125C259.937 30.875 267.656 23.5625 276.187 23.5625H407.812C416.344 23.5625 424.062 30.875 424.875 39.8125L433.406 130Z" fill="#B4D7EE"/>
<path d="M248.156 123.906H272.531V156.406H248.156V123.906Z" fill="#3E4347"/>
<path d="M411.469 123.906H435.844V156.406H411.469V123.906Z" fill="#3E4347"/>
<path d="M271.312 206.781H295.688V247.812H271.312V206.781Z" fill="#3E4347"/>
<path d="M388.312 206.781H412.688V247.812H388.312V206.781Z" fill="#3E4347"/>
<path d="M380.188 101.562C378.969 112.125 370.438 121.062 361.906 121.062H322.094C313.156 121.062 305.031 112.531 303.813 101.562L296.5 42.25C295.281 31.6875 301.375 22.75 309.906 22.75H373.688C382.625 22.75 388.719 31.6875 387.094 42.25L380.188 101.562Z" fill="#428BC1"/>
<path d="M305.438 239.281C304.625 237.25 302.188 235.219 300.156 235.219H267.656C265.219 235.219 263.188 236.844 262.375 239.281L256.281 255.937C255.469 257.969 256.688 260 259.125 260H307.875C310.313 260 311.531 258.375 310.719 255.937L305.438 239.281Z" fill="#94989B"/>
<path d="M427.719 255.937L422.031 239.281C421.219 237.25 418.781 235.219 416.75 235.219H384.25C381.813 235.219 379.781 236.844 378.969 239.281L373.281 255.937C372.469 257.969 373.688 260 376.125 260H424.875C426.906 260 428.125 258.375 427.719 255.937Z" fill="#94989B"/>
<path d="M399.688 24.375C399.688 33.3125 392.781 40.625 384.25 40.625H299.344C290.812 40.625 283.906 33.3125 283.906 24.375V16.25C283.906 7.3125 290.812 0 299.344 0H384.25C392.781 0 399.688 7.3125 399.688 16.25V24.375Z" fill="#29ABE2"/>
<path d="M274.969 118.625L273.75 110.094C272.937 105.625 269.281 101.969 265.219 101.969H254.25C250.187 101.969 246.531 105.625 245.719 110.094L244.5 118.625C243.687 123.094 246.531 126.75 250.594 126.75H268.875C272.937 126.75 275.781 123.094 274.969 118.625Z" fill="#29ABE2"/>
<path d="M438.687 118.625L437.469 110.094C436.656 105.625 433 101.969 428.937 101.969H417.969C413.906 101.969 410.25 105.625 409.437 110.094L408.219 118.625C407.406 123.094 410.25 126.75 414.312 126.75H432.594C436.656 126.75 439.094 123.094 438.687 118.625Z" fill="#29ABE2"/>
<path d="M421.218 146.25H262.781C250.187 146.25 242.468 158.438 244.906 173.469L246.531 184.031C248.968 199.062 261.562 211.25 273.75 211.25H409.437C422.031 211.25 434.218 199.062 436.656 184.031L438.687 173.469C441.531 158.844 433.406 146.25 421.218 146.25Z" fill="#29ABE2"/>
</svg>
