<svg width="472" height="331" viewBox="0 0 472 331" fill="none" xmlns="http://www.w3.org/2000/svg">
<g clip-path="url(#clip0_60_1697)">
<path d="M219.414 110.042C220.102 117.607 214.944 123.797 207.722 123.797H76.3603C69.1388 123.797 63.9807 117.607 64.6684 110.042L71.8899 33.7003C72.5776 26.1349 79.1114 19.9451 86.3328 19.9451H197.75C204.971 19.9451 211.505 26.1349 212.193 33.7003L219.414 110.042Z" fill="#B4D7EE"/>
<path d="M62.6055 104.883H83.2382V132.394H62.6055V104.883Z" fill="#3E4347"/>
<path d="M200.845 104.883H221.478V132.394H200.845V104.883Z" fill="#3E4347"/>
<path d="M82.2065 175.035H102.839V209.767H82.2065V175.035Z" fill="#3E4347"/>
<path d="M181.244 175.035H201.876V209.767H181.244V175.035Z" fill="#3E4347"/>
<path d="M174.366 85.9699C173.335 94.9107 166.113 102.476 158.892 102.476H125.191C117.626 102.476 110.748 95.2546 109.717 85.9699L103.527 35.7634C102.495 26.8226 107.654 19.2572 114.875 19.2572H168.864C176.429 19.2572 181.588 26.8226 180.212 35.7634L174.366 85.9699Z" fill="#428BC1"/>
<path d="M111.093 202.545C110.405 200.826 108.342 199.106 106.622 199.106H79.1118C77.0485 199.106 75.3291 200.482 74.6414 202.545L69.4832 216.644C68.7954 218.364 69.8271 220.083 71.8903 220.083H113.156C115.219 220.083 116.251 218.707 115.563 216.644L111.093 202.545Z" fill="#94989B"/>
<path d="M214.6 216.644L209.786 202.545C209.098 200.826 207.035 199.106 205.315 199.106H177.805C175.742 199.106 174.022 200.482 173.335 202.545L168.52 216.644C167.833 218.364 168.864 220.083 170.927 220.083H212.193C213.912 220.083 214.944 218.707 214.6 216.644Z" fill="#94989B"/>
<path d="M190.872 20.6328C190.872 28.1981 185.026 34.388 177.805 34.388H105.934C98.7127 34.388 92.8667 28.1981 92.8667 20.6328V13.7552C92.8667 6.18983 98.7127 0 105.934 0H177.805C185.026 0 190.872 6.18983 190.872 13.7552V20.6328Z" fill="#29ABE2"/>
<path d="M85.3012 100.413L84.2695 93.1914C83.5818 89.4088 80.4869 86.3138 77.0481 86.3138H67.7633C64.3245 86.3138 61.2296 89.4088 60.5418 93.1914L59.5102 100.413C58.8224 104.196 61.2296 107.291 64.6684 107.291H80.143C83.5818 107.291 85.9889 104.196 85.3012 100.413Z" fill="#29ABE2"/>
<path d="M223.885 100.413L222.853 93.1914C222.165 89.4088 219.07 86.3138 215.632 86.3138H206.347C202.908 86.3138 199.813 89.4088 199.125 93.1914L198.094 100.413C197.406 104.196 199.813 107.291 203.252 107.291H218.726C222.165 107.291 224.229 104.196 223.885 100.413Z" fill="#29ABE2"/>
<path d="M209.098 123.797H74.9848C64.3245 123.797 57.7908 134.113 59.8541 146.837L61.2296 155.777C63.2929 168.501 73.9532 178.817 84.2696 178.817H199.125C209.786 178.817 220.102 168.501 222.165 155.777L223.885 146.837C226.292 134.457 219.414 123.797 209.098 123.797Z" fill="#29ABE2"/>
</g>
<g clip-path="url(#clip1_60_1697)">
<path d="M398.866 110.042C399.554 117.607 394.396 123.797 387.175 123.797H255.812C248.591 123.797 243.433 117.607 244.121 110.042L251.342 33.7003C252.03 26.1349 258.564 19.9451 265.785 19.9451H377.202C384.423 19.9451 390.957 26.1349 391.645 33.7003L398.866 110.042Z" fill="#B4D7EE"/>
<path d="M242.058 104.883H262.69V132.394H242.058V104.883Z" fill="#3E4347"/>
<path d="M380.297 104.883H400.93V132.394H380.297V104.883Z" fill="#3E4347"/>
<path d="M261.659 175.035H282.291V209.767H261.659V175.035Z" fill="#3E4347"/>
<path d="M360.696 175.035H381.329V209.767H360.696V175.035Z" fill="#3E4347"/>
<path d="M353.818 85.9699C352.787 94.9107 345.565 102.476 338.344 102.476H304.644C297.078 102.476 290.201 95.2546 289.169 85.9699L282.979 35.7634C281.947 26.8226 287.106 19.2572 294.327 19.2572H348.316C355.882 19.2572 361.04 26.8226 359.664 35.7634L353.818 85.9699Z" fill="#428BC1"/>
<path d="M290.545 202.545C289.857 200.826 287.794 199.106 286.074 199.106H258.564C256.501 199.106 254.781 200.482 254.094 202.545L248.935 216.644C248.248 218.364 249.279 220.083 251.342 220.083H292.608C294.671 220.083 295.703 218.707 295.015 216.644L290.545 202.545Z" fill="#94989B"/>
<path d="M394.052 216.644L389.238 202.545C388.55 200.826 386.487 199.106 384.768 199.106H357.257C355.194 199.106 353.475 200.482 352.787 202.545L347.972 216.644C347.285 218.364 348.316 220.083 350.38 220.083H391.645C393.365 220.083 394.396 218.707 394.052 216.644Z" fill="#94989B"/>
<path d="M370.325 20.6328C370.325 28.1981 364.479 34.388 357.257 34.388H285.386C278.165 34.388 272.319 28.1981 272.319 20.6328V13.7552C272.319 6.18983 278.165 0 285.386 0H357.257C364.479 0 370.325 6.18983 370.325 13.7552V20.6328Z" fill="#29ABE2"/>
<path d="M264.753 100.413L263.722 93.1914C263.034 89.4088 259.939 86.3138 256.5 86.3138H247.215C243.777 86.3138 240.682 89.4088 239.994 93.1914L238.962 100.413C238.275 104.196 240.682 107.291 244.121 107.291H259.595C263.034 107.291 265.441 104.196 264.753 100.413Z" fill="#29ABE2"/>
<path d="M403.337 100.413L402.305 93.1914C401.617 89.4088 398.523 86.3138 395.084 86.3138H385.799C382.36 86.3138 379.265 89.4088 378.577 93.1914L377.546 100.413C376.858 104.196 379.265 107.291 382.704 107.291H398.179C401.617 107.291 403.681 104.196 403.337 100.413Z" fill="#29ABE2"/>
<path d="M388.55 123.797H254.437C243.777 123.797 237.243 134.113 239.306 146.837L240.682 155.777C242.745 168.501 253.405 178.817 263.722 178.817H378.578C389.238 178.817 399.554 168.501 401.617 155.777L403.337 146.837C405.744 134.457 398.866 123.797 388.55 123.797Z" fill="#29ABE2"/>
</g>
<path d="M221.406 201C222.219 209.938 216.125 217.25 207.594 217.25H52.4061C43.8749 217.25 37.7811 209.938 38.5936 201L47.1249 110.812C47.9374 101.875 55.6561 94.5625 64.1874 94.5625H195.812C204.344 94.5625 212.062 101.875 212.875 110.812L221.406 201Z" fill="#B4D7EE"/>
<path d="M36.1562 194.906H60.5312V227.406H36.1562V194.906Z" fill="#3E4347"/>
<path d="M199.469 194.906H223.844V227.406H199.469V194.906Z" fill="#3E4347"/>
<path d="M59.3125 277.781H83.6875V318.812H59.3125V277.781Z" fill="#3E4347"/>
<path d="M176.312 277.781H200.688V318.812H176.312V277.781Z" fill="#3E4347"/>
<path d="M168.188 172.562C166.969 183.125 158.438 192.062 149.906 192.062H110.094C101.156 192.062 93.0313 183.531 91.8125 172.562L84.5 113.25C83.2813 102.687 89.375 93.75 97.9063 93.75H161.688C170.625 93.75 176.719 102.687 175.094 113.25L168.188 172.562Z" fill="#428BC1"/>
<path d="M93.4377 310.281C92.6252 308.25 90.1877 306.219 88.1564 306.219H55.6564C53.2189 306.219 51.1877 307.844 50.3752 310.281L44.2814 326.937C43.4689 328.969 44.6877 331 47.1252 331H95.8752C98.3127 331 99.5314 329.375 98.7189 326.937L93.4377 310.281Z" fill="#94989B"/>
<path d="M215.719 326.937L210.031 310.281C209.219 308.25 206.781 306.219 204.75 306.219H172.25C169.813 306.219 167.781 307.844 166.969 310.281L161.281 326.937C160.469 328.969 161.688 331 164.125 331H212.875C214.906 331 216.125 329.375 215.719 326.937Z" fill="#94989B"/>
<path d="M187.688 95.375C187.688 104.313 180.781 111.625 172.25 111.625H87.3437C78.8125 111.625 71.9062 104.313 71.9062 95.375V87.25C71.9062 78.3125 78.8125 71 87.3437 71H172.25C180.781 71 187.688 78.3125 187.688 87.25V95.375Z" fill="#29ABE2"/>
<path d="M62.9686 189.625L61.7498 181.094C60.9373 176.625 57.2811 172.969 53.2186 172.969H42.2498C38.1873 172.969 34.5311 176.625 33.7186 181.094L32.4998 189.625C31.6873 194.094 34.5311 197.75 38.5936 197.75H56.8748C60.9373 197.75 63.7811 194.094 62.9686 189.625Z" fill="#29ABE2"/>
<path d="M226.687 189.625L225.469 181.094C224.656 176.625 221 172.969 216.937 172.969H205.969C201.906 172.969 198.25 176.625 197.437 181.094L196.219 189.625C195.406 194.094 198.25 197.75 202.312 197.75H220.594C224.656 197.75 227.094 194.094 226.687 189.625Z" fill="#29ABE2"/>
<path d="M209.218 217.25H50.7809C38.1871 217.25 30.4684 229.438 32.9059 244.469L34.5309 255.031C36.9684 270.062 49.5621 282.25 61.7496 282.25H197.437C210.031 282.25 222.218 270.062 224.656 255.031L226.687 244.469C229.531 229.844 221.406 217.25 209.218 217.25Z" fill="#29ABE2"/>
<path d="M433.406 201C434.219 209.938 428.125 217.25 419.594 217.25H264.406C255.875 217.25 249.781 209.938 250.594 201L259.125 110.812C259.937 101.875 267.656 94.5625 276.187 94.5625H407.812C416.344 94.5625 424.062 101.875 424.875 110.812L433.406 201Z" fill="#B4D7EE"/>
<path d="M248.156 194.906H272.531V227.406H248.156V194.906Z" fill="#3E4347"/>
<path d="M411.469 194.906H435.844V227.406H411.469V194.906Z" fill="#3E4347"/>
<path d="M271.312 277.781H295.688V318.812H271.312V277.781Z" fill="#3E4347"/>
<path d="M388.312 277.781H412.688V318.812H388.312V277.781Z" fill="#3E4347"/>
<path d="M380.188 172.562C378.969 183.125 370.438 192.062 361.906 192.062H322.094C313.156 192.062 305.031 183.531 303.813 172.562L296.5 113.25C295.281 102.687 301.375 93.75 309.906 93.75H373.688C382.625 93.75 388.719 102.687 387.094 113.25L380.188 172.562Z" fill="#428BC1"/>
<path d="M305.438 310.281C304.625 308.25 302.188 306.219 300.156 306.219H267.656C265.219 306.219 263.188 307.844 262.375 310.281L256.281 326.937C255.469 328.969 256.688 331 259.125 331H307.875C310.313 331 311.531 329.375 310.719 326.937L305.438 310.281Z" fill="#94989B"/>
<path d="M427.719 326.937L422.031 310.281C421.219 308.25 418.781 306.219 416.75 306.219H384.25C381.813 306.219 379.781 307.844 378.969 310.281L373.281 326.937C372.469 328.969 373.688 331 376.125 331H424.875C426.906 331 428.125 329.375 427.719 326.937Z" fill="#94989B"/>
<path d="M399.688 95.375C399.688 104.313 392.781 111.625 384.25 111.625H299.344C290.812 111.625 283.906 104.313 283.906 95.375V87.25C283.906 78.3125 290.812 71 299.344 71H384.25C392.781 71 399.688 78.3125 399.688 87.25V95.375Z" fill="#29ABE2"/>
<path d="M274.969 189.625L273.75 181.094C272.937 176.625 269.281 172.969 265.219 172.969H254.25C250.187 172.969 246.531 176.625 245.719 181.094L244.5 189.625C243.687 194.094 246.531 197.75 250.594 197.75H268.875C272.937 197.75 275.781 194.094 274.969 189.625Z" fill="#29ABE2"/>
<path d="M438.687 189.625L437.469 181.094C436.656 176.625 433 172.969 428.937 172.969H417.969C413.906 172.969 410.25 176.625 409.437 181.094L408.219 189.625C407.406 194.094 410.25 197.75 414.312 197.75H432.594C436.656 197.75 439.094 194.094 438.687 189.625Z" fill="#29ABE2"/>
<path d="M421.218 217.25H262.781C250.187 217.25 242.468 229.438 244.906 244.469L246.531 255.031C248.968 270.062 261.562 282.25 273.75 282.25H409.437C422.031 282.25 434.218 270.062 436.656 255.031L438.687 244.469C441.531 229.844 433.406 217.25 421.218 217.25Z" fill="#29ABE2"/>
<defs>
<clipPath id="clip0_60_1697">
<rect width="220.083" height="220.083" fill="white" transform="translate(32)"/>
</clipPath>
<clipPath id="clip1_60_1697">
<rect width="220.083" height="220.083" fill="white" transform="translate(211.452)"/>
</clipPath>
</defs>
</svg>
