<svg width="990" height="297" viewBox="0 0 990 297" fill="none" xmlns="http://www.w3.org/2000/svg">
<g clip-path="url(#clip0_55_1281)">
<path d="M684.458 12.4745C684.458 12.4745 698.428 1.51454 701.818 0.724544C705.208 -0.0654556 707.948 -0.715456 707.948 1.63454C707.948 3.98454 702.078 12.7345 702.858 15.9945C703.638 19.2545 684.458 12.4645 684.458 12.4645V12.4745Z" fill="#D6DBE1"/>
<path d="M881.138 244.364L862.098 261.404L832.468 263.334L689.168 260.564L263.208 256.754L251.908 260.564C251.908 260.564 234.748 260.094 227.748 260.604C220.748 261.124 120.608 263.334 120.608 263.334C120.608 263.334 99.6281 264.384 93.1781 268.724L74.3481 232.814L89.8281 146.564C89.8281 146.564 139.898 124.894 143.838 124.444C147.778 124.004 224.298 121.794 224.298 121.794L355.228 134.384L748.568 111.174L870.538 114.274L881.158 244.374L881.138 244.364Z" fill="black"/>
<path d="M978.498 210.534C978.498 210.534 975.768 218.014 976.238 220.034C976.718 222.054 981.938 225.144 981.938 228.584C981.938 232.024 976.238 242.834 970.418 243.544C970.418 243.544 968.518 253.044 962.108 253.044C955.698 253.044 913.548 254.354 913.548 254.354C913.548 254.354 959.148 204.364 978.498 210.544V210.534Z" fill="#333439"/>
<path d="M270.718 94.8946C270.718 94.8946 293.048 75.0946 314.878 64.9446C336.708 54.7946 411.938 13.7946 440.268 9.16463C468.598 4.53463 461.328 31.4446 461.328 32.2046C461.328 32.9646 277.318 137.285 270.718 94.8946Z" fill="#7E909E"/>
<path d="M916.077 103.155H958.547L961.848 105.195C961.848 105.195 976.567 116.175 965.147 141.055C953.727 165.935 897.217 138.825 916.087 103.155H916.077Z" fill="#B80201"/>
<path d="M713.368 20.7844L733.168 20.0244C733.168 20.0244 829.298 42.8644 889.768 74.3344C950.238 105.814 853.478 92.3544 853.478 92.3544C853.478 92.3544 704.748 37.7844 713.378 20.7844H713.368Z" fill="#7E909E"/>
<path d="M261.798 85.8343C261.798 85.8343 274.778 81.8543 279.598 85.8343C284.418 89.8143 282.898 94.8943 282.898 94.8943L261.798 85.8343Z" fill="#060A0B"/>
<path d="M93.1579 268.725C93.1579 268.725 1.73791 262.145 0.467908 245.645C0.467908 245.645 -0.0620928 242.095 4.75791 239.815C4.75791 239.815 1.69791 186.525 9.05791 170.025C16.4179 153.525 15.9079 133.225 53.4679 119.265C91.0279 105.305 180.878 88.8048 263.878 85.7648C263.878 85.7648 283.928 92.6148 294.588 92.3648C294.588 92.3648 413.878 20.2848 443.068 18.5048C443.068 18.5048 434.948 12.9248 436.978 10.3848C439.008 7.84478 508.298 -4.08522 595.858 1.50478C683.418 7.08478 733.168 20.0348 733.168 20.0348C733.168 20.0348 720.228 26.3848 721.998 27.3948C723.778 28.4048 857.028 72.5748 857.028 72.5748C857.028 72.5748 876.568 76.6348 887.228 72.0648C887.228 72.0648 910.828 78.4148 917.428 78.9148C924.028 79.4248 957.528 78.1548 958.038 82.2148C958.548 86.2748 957.528 93.6348 959.308 95.1548C961.088 96.6748 970.218 110.895 967.428 115.715L961.848 105.055C961.848 105.055 915.148 107.345 914.388 113.175C913.628 119.015 918.448 134.245 920.988 137.035C923.528 139.825 966.678 138.055 966.678 138.055C966.678 138.055 969.728 158.615 973.788 161.405C977.848 164.195 990.028 166.485 989.778 173.845C989.528 181.205 990.538 211.665 978.358 213.695C978.358 213.695 964.148 211.915 954.758 223.085C945.368 234.255 934.708 249.985 915.418 254.555C896.128 259.125 862.118 261.405 862.118 261.405C862.118 261.405 870.748 151.215 779.378 148.675C688.008 146.135 691.818 260.565 691.818 260.565H251.898C251.898 260.565 275.038 146.425 171.738 142.365C68.4379 138.305 93.1679 268.725 93.1679 268.725H93.1579Z" fill="#D6DBE1"/>
<path d="M668.508 26.3748C635.088 18.3548 525.458 8.99476 472.978 20.0248C420.508 31.0548 366.688 50.7748 316.558 92.5548L326.288 92.3548C338.068 82.8148 367.878 61.0348 414.158 43.0848C475.318 19.3548 515.768 17.3448 563.558 20.0248C611.358 22.7048 657.478 24.0348 687.558 38.7448C717.638 53.4548 750.728 75.5148 748.388 77.8548C746.338 79.9048 612.038 85.8248 579.358 87.2448L745.378 83.8848C745.378 83.8848 755.738 83.5348 755.738 79.1948C755.738 74.8548 701.928 34.4048 668.508 26.3848V26.3748Z" fill="white"/>
<path d="M687.558 38.7446C657.478 24.0346 611.348 22.7046 563.558 20.0246C515.758 17.3546 475.318 19.3546 414.158 43.0846C367.888 61.0446 338.068 82.8146 326.288 92.3546L579.368 87.2346C612.048 85.8246 746.338 79.9046 748.398 77.8446C750.738 75.5046 717.648 53.4446 687.568 38.7346L687.558 38.7446Z" fill="black"/>
<path d="M376.388 83.8748C376.388 83.8748 436.888 42.7548 484.008 34.7348C531.138 26.7148 585.948 31.0548 585.948 31.0548C585.948 31.0548 574.918 85.5348 570.238 87.8748C565.558 90.2148 366.438 91.5448 366.438 91.5448L376.388 83.8748Z" fill="#788D9E"/>
<path d="M615.368 33.0646L608.348 82.1946L714.968 78.5146C714.968 78.5146 725.998 78.8446 725.998 74.8346C725.998 70.8246 676.868 29.7146 615.368 33.0546V33.0646Z" fill="#788D9E"/>
<path d="M394.878 80.5247C395.158 78.7947 395.108 76.8947 394.578 74.8447C392.028 64.9347 385.988 55.2147 371.548 60.2147C357.108 65.2147 355.028 73.0547 353.148 80.6947C353.148 80.6947 345.318 78.5247 344.658 82.0147C344.258 84.1147 345.638 87.0447 347.648 89.2147C362.488 91.5947 382.738 85.1947 394.878 80.5247Z" fill="#D6DBE1"/>
<path d="M347.658 89.2049C348.998 90.6449 350.628 91.7449 352.218 92.0149C356.178 92.6749 363.258 94.0949 365.808 92.9549C368.358 91.8249 380.718 93.3049 384.678 92.2349C387.818 91.3849 393.808 87.1749 394.888 80.5249C382.748 85.1949 362.508 91.5949 347.658 89.2149V89.2049Z" fill="#C5CBD1"/>
<path d="M31.7277 138.345C31.7277 138.345 20.7777 141.955 15.6677 158.265C10.5677 174.575 16.7877 170.715 19.1577 169.965C21.5277 169.215 55.6277 165.735 60.8577 165.105C66.0877 164.485 65.4677 160.005 66.9577 157.635C68.4477 155.265 82.6477 139.335 78.7877 135.225C74.9277 131.115 38.0777 135.345 31.7277 138.335V138.345Z" fill="#788D9E"/>
<path d="M7.82771 203.825C7.82771 203.825 8.32771 228.345 10.4377 231.955C12.5577 235.565 17.7777 239.175 25.7477 240.175C33.7177 241.175 48.7777 242.415 50.0177 232.085C51.2677 221.755 53.3777 202.335 53.3777 202.335C53.3777 202.335 7.19771 201.585 7.81771 203.825H7.82771Z" fill="#040404"/>
<path d="M253.598 243.005V241.875C254.288 241.875 275.028 241.655 304.488 241.355C297.308 230.415 298.008 206.915 298.038 205.895C298.018 205.245 296.108 136.835 300.738 117.305C305.418 97.6046 321.258 89.2846 321.418 89.2046C321.878 88.9246 371.248 58.8146 385.388 51.1146C419.058 32.7746 451.618 21.3446 477.048 18.9146C513.748 15.4146 592.538 16.9146 593.328 16.9346C596.278 17.2146 664.808 23.7746 678.048 29.3546C691.238 34.9146 737.258 63.0246 737.718 63.3146C738.388 63.6546 755.148 72.1446 756.078 78.1646C756.248 79.2746 755.918 80.2446 755.088 81.0446C751.078 84.9546 739.358 84.8046 724.518 84.6146C718.208 84.5346 711.698 84.4546 705.168 84.6846C684.708 85.4146 591.498 87.5946 583.538 87.7846C583.538 89.1946 583.758 93.2946 586.398 96.8946C586.858 97.5246 587.358 98.1646 587.868 98.8246C591.138 103.035 595.208 108.275 594.448 116.085C594.298 117.675 594.128 120.755 593.888 125.025C592.838 144.035 590.648 183.575 583.788 199.635C575.168 219.805 570.378 227.435 559.028 232.905C547.538 238.435 526.768 241.035 512.198 240.745C498.208 240.455 256.038 242.985 253.588 243.015L253.598 243.005ZM553.978 17.7446C528.628 17.7446 496.828 18.1846 477.168 20.0546C451.878 22.4646 419.478 33.8546 385.938 52.1246C371.818 59.8146 322.478 89.9046 321.978 90.2046C321.788 90.3046 306.398 98.4046 301.848 117.575C297.248 136.955 299.158 205.215 299.178 205.905C299.178 206.195 298.438 231.025 305.858 241.345C378.528 240.615 502.338 239.415 512.228 239.615C526.658 239.905 547.208 237.345 558.548 231.885C569.578 226.575 574.268 219.065 582.758 199.185C589.538 183.315 591.718 143.905 592.768 124.965C593.008 120.685 593.178 117.595 593.328 115.985C594.038 108.625 590.288 103.795 586.978 99.5246C586.458 98.8546 585.958 98.2046 585.488 97.5746C581.988 92.8146 582.408 87.4246 582.428 87.1946L582.468 86.6946H582.978C583.988 86.6546 683.868 84.3246 705.138 83.5746C711.688 83.3446 718.218 83.4246 724.538 83.5046C738.538 83.6846 750.628 83.8346 754.308 80.2546C754.868 79.7146 755.078 79.0846 754.968 78.3546C754.268 73.8346 741.888 66.6946 737.178 64.3246C736.678 64.0146 690.728 35.9446 677.618 30.4246C664.538 24.9146 593.988 18.1646 593.278 18.0946C592.928 18.0946 575.848 17.7646 553.978 17.7646V17.7446Z" fill="#040404"/>
<path d="M244.918 217.475C244.918 256.645 213.168 288.395 173.998 288.395C134.828 288.395 103.078 256.645 103.078 217.475C103.078 178.305 134.828 146.555 173.998 146.555C213.168 146.555 244.918 178.305 244.918 217.475Z" fill="#27262C"/>
<path d="M120.588 217.475C120.588 247.065 144.578 271.045 174.168 271.045C203.758 271.045 227.738 247.065 227.738 217.475C227.738 187.885 203.758 163.905 174.168 163.905C144.578 163.905 120.588 187.885 120.588 217.475Z" fill="#C3BFBE"/>
<path d="M155.578 181.554L167.978 195.644C167.978 195.644 170.118 199.024 173.048 199.024C175.978 199.024 178.118 196.654 178.118 196.654L191.078 181.554C191.078 181.554 192.878 179.414 191.078 177.944C189.278 176.484 182.948 174.334 174.168 174.334C165.388 174.334 152.418 176.704 155.578 181.544V181.554Z" fill="#27262C"/>
<path d="M155.578 253.394L167.978 239.304C167.978 239.304 170.128 235.924 173.048 235.924C175.968 235.924 178.118 238.294 178.118 238.294L191.078 253.394C191.078 253.394 192.878 255.534 191.078 257.004C189.278 258.464 182.948 260.614 174.168 260.614C165.388 260.614 152.418 258.244 155.578 253.404V253.394Z" fill="#27262C"/>
<path d="M210.518 199.565L196.428 211.965C196.428 211.965 193.048 214.105 193.048 217.035C193.048 219.965 195.418 222.105 195.418 222.105L210.518 235.065C210.518 235.065 212.658 236.865 214.118 235.065C215.588 233.265 217.728 226.935 217.728 218.155C217.728 209.375 215.358 196.405 210.508 199.565H210.518Z" fill="#27262C"/>
<path d="M138.688 199.565L152.778 211.965C152.778 211.965 156.158 214.105 156.158 217.035C156.158 219.965 153.788 222.105 153.788 222.105L138.688 235.065C138.688 235.065 136.548 236.865 135.078 235.065C133.618 233.265 131.468 226.935 131.468 218.155C131.468 209.375 133.838 196.405 138.688 199.565Z" fill="#27262C"/>
<path d="M849.638 225.964C849.638 265.134 817.888 296.884 778.718 296.884C739.548 296.884 707.798 265.134 707.798 225.964C707.798 186.794 739.548 155.044 778.718 155.044C817.888 155.044 849.638 186.794 849.638 225.964Z" fill="#27262C"/>
<path d="M725.318 225.965C725.318 255.555 749.308 279.535 778.898 279.535C808.488 279.535 832.468 255.555 832.468 225.965C832.468 196.375 808.488 172.395 778.898 172.395C749.308 172.395 725.318 196.385 725.318 225.965Z" fill="#C3BFBE"/>
<path d="M760.309 190.044L772.709 204.134C772.709 204.134 774.849 207.514 777.779 207.514C780.709 207.514 782.849 205.144 782.849 205.144L795.809 190.034C795.809 190.034 797.609 187.894 795.809 186.424C794.009 184.954 787.679 182.814 778.899 182.814C770.119 182.814 757.149 185.184 760.309 190.024V190.044Z" fill="#27262C"/>
<path d="M760.299 261.885L772.699 247.795C772.699 247.795 774.839 244.415 777.769 244.415C780.699 244.415 782.849 246.785 782.849 246.785L795.809 261.895C795.809 261.895 797.619 264.035 795.809 265.505C794.009 266.965 787.679 269.115 778.899 269.115C770.119 269.115 757.149 266.745 760.309 261.905L760.299 261.885Z" fill="#27262C"/>
<path d="M815.248 208.054L801.158 220.454C801.158 220.454 797.778 222.594 797.778 225.524C797.778 228.454 800.148 230.594 800.148 230.594L815.248 243.554C815.248 243.554 817.388 245.354 818.848 243.554C820.318 241.754 822.458 235.424 822.458 226.644C822.458 217.864 820.088 204.894 815.238 208.054H815.248Z" fill="#27262C"/>
<path d="M743.418 208.054L757.508 220.454C757.508 220.454 760.888 222.594 760.888 225.524C760.888 228.454 758.518 230.594 758.518 230.594L743.418 243.554C743.418 243.554 741.278 245.354 739.808 243.554C738.348 241.754 736.198 235.424 736.198 226.634C736.198 217.844 738.568 204.884 743.418 208.044V208.054Z" fill="#27262C"/>
</g>
<defs>
<clipPath id="clip0_55_1281">
<rect width="989.331" height="296.885" fill="white" transform="translate(0.450684)"/>
</clipPath>
</defs>
</svg>
