<svg width="444" height="444" viewBox="0 0 444 444" fill="none" xmlns="http://www.w3.org/2000/svg">
<circle cx="222.5" cy="221.5" r="221.5" fill="#969696"/>
<ellipse cx="193.5" cy="222.5" rx="168.5" ry="173.5" fill="#D9D9D9"/>
<circle cx="222" cy="222" r="199" stroke="#616161" stroke-width="46"/>
<path d="M300 348C300 358.493 291.493 367 281 367H213C202.507 367 194 358.493 194 348V264.145C195.564 264.697 197.247 265 199 265H236V342H258V265H294C296.134 265 298.162 264.553 300 263.75V348ZM281 77C291.493 77 300 85.5066 300 96V181.249C298.163 180.446 296.133 180 294 180H258V100H236V180H199C197.247 180 195.564 180.302 194 180.854V96C194 85.5066 202.507 77 213 77H281Z" fill="#616161"/>
<rect x="167" y="191" width="159" height="61" rx="15" fill="#616161"/>
<path d="M119.413 156V116.727H134.908C137.886 116.727 140.424 117.296 142.521 118.434C144.617 119.559 146.215 121.125 147.315 123.132C148.427 125.126 148.983 127.428 148.983 130.036C148.983 132.643 148.42 134.945 147.295 136.939C146.17 138.933 144.54 140.487 142.406 141.599C140.283 142.711 137.714 143.267 134.697 143.267H124.821V136.613H133.354C134.952 136.613 136.269 136.338 137.305 135.788C138.353 135.226 139.133 134.452 139.644 133.468C140.168 132.471 140.43 131.327 140.43 130.036C140.43 128.732 140.168 127.594 139.644 126.622C139.133 125.638 138.353 124.877 137.305 124.34C136.256 123.79 134.927 123.516 133.316 123.516H127.717V156H119.413ZM152.262 246.727V286H145.09L128.004 261.282H127.717V286H119.413V246.727H126.7L143.652 271.426H143.997V246.727H152.262ZM133.335 351H119.413V311.727H133.45C137.401 311.727 140.801 312.513 143.652 314.086C146.503 315.646 148.695 317.889 150.229 320.817C151.776 323.744 152.55 327.247 152.55 331.325C152.55 335.416 151.776 338.932 150.229 341.872C148.695 344.812 146.49 347.069 143.614 348.641C140.75 350.214 137.324 351 133.335 351ZM127.717 343.886H132.99C135.445 343.886 137.509 343.451 139.184 342.582C140.871 341.7 142.137 340.338 142.981 338.497C143.837 336.643 144.266 334.253 144.266 331.325C144.266 328.423 143.837 326.052 142.981 324.211C142.137 322.37 140.878 321.015 139.203 320.146C137.528 319.276 135.464 318.842 133.009 318.842H127.717V343.886Z" fill="#616161"/>
<path d="M119.413 221V181.727H134.908C137.874 181.727 140.405 182.258 142.501 183.319C144.611 184.367 146.215 185.857 147.315 187.787C148.427 189.705 148.983 191.961 148.983 194.556C148.983 197.164 148.42 199.408 147.295 201.287C146.17 203.153 144.54 204.585 142.406 205.582C140.283 206.58 137.714 207.078 134.697 207.078H124.322V200.405H133.354C134.94 200.405 136.256 200.187 137.305 199.753C138.353 199.318 139.133 198.666 139.644 197.797C140.168 196.928 140.43 195.847 140.43 194.556C140.43 193.252 140.168 192.153 139.644 191.258C139.133 190.363 138.347 189.685 137.286 189.225C136.237 188.752 134.914 188.516 133.316 188.516H127.717V221H119.413ZM140.622 203.128L150.383 221H141.217L131.667 203.128H140.622Z" fill="#DE3031"/>
</svg>
