<svg width="422" height="154" viewBox="0 0 422 154" fill="none" xmlns="http://www.w3.org/2000/svg">
<g clip-path="url(#clip0_75_4)">
<path d="M16.4475 126V36.4H55.4875C62.9968 36.4 69.2262 37.6373 74.1755 40.112C79.2102 42.5867 83.0075 46.0427 85.5675 50.48C88.1275 54.9173 89.4075 60.208 89.4075 66.352C89.4075 72.752 87.8715 78.256 84.7995 82.864C81.8128 87.3867 77.2902 90.7147 71.2315 92.848L91.9675 126H66.3675L48.9595 95.28H39.4875V126H16.4475ZM39.4875 77.36H50.3675C56.5115 77.36 60.6928 76.464 62.9115 74.672C65.2155 72.7947 66.3675 70.0213 66.3675 66.352C66.3675 62.6827 65.2155 59.952 62.9115 58.16C60.6928 56.2827 56.5115 55.344 50.3675 55.344H39.4875V77.36ZM118.248 126V36.4H141.8L166.632 81.84L191.208 36.4H214.248V126H191.208V74.672L172.648 108.72H159.848L141.288 74.672V126H118.248Z" fill="#FFFDF9"/>
<path d="M244.923 126V36.4H267.963V107.056H306.363V126H244.923ZM330.723 126V36.4H353.763V72.368L384.995 36.4H410.083L376.803 73.264L412.643 126H385.763L361.187 88.24L353.763 96.432V126H330.723Z" fill="#DE3031"/>
</g>
<defs>
<clipPath id="clip0_75_4">
<rect width="422" height="154" fill="white"/>
</clipPath>
</defs>
</svg>
