<svg width="934" height="90" viewBox="0 0 934 90" fill="none" xmlns="http://www.w3.org/2000/svg">
<path d="M0.610107 89.9999V0.399902H39.6501C47.1594 0.399902 53.3888 1.63724 58.3381 4.11191C63.3728 6.58657 67.1701 10.0426 69.7301 14.4799C72.2901 18.9172 73.5701 24.2079 73.5701 30.3519C73.5701 36.7519 72.0341 42.2559 68.9621 46.8639C65.9754 51.3866 61.4528 54.7146 55.3941 56.8479L76.1301 89.9999H50.5301L33.1221 59.2799H23.6501V89.9999H0.610107ZM23.6501 41.3599H34.5301C40.6741 41.3599 44.8554 40.4639 47.0741 38.6719C49.3781 36.7946 50.5301 34.0212 50.5301 30.3519C50.5301 26.6826 49.3781 23.9519 47.0741 22.1599C44.8554 20.2826 40.6741 19.3439 34.5301 19.3439H23.6501V41.3599Z" fill="#363636"/>
<path d="M103.69 89.9999V0.399902H126.73V89.9999H103.69Z" fill="#363636"/>
<path d="M158.71 89.9999V0.399902H192.63C201.59 0.399902 209.27 2.02124 215.67 5.2639C222.07 8.50657 226.977 13.3279 230.39 19.7279C233.803 26.0426 235.51 33.8932 235.51 43.2799V45.8399C235.51 55.3972 233.761 63.4612 230.262 70.0319C226.763 76.6026 221.686 81.5946 215.03 85.0079C208.459 88.3359 200.566 89.9999 191.35 89.9999H158.71ZM181.75 71.0559H190.07C193.995 71.0559 197.537 70.2452 200.694 68.6239C203.937 67.0026 206.582 64.3572 208.63 60.6879C210.678 56.9332 211.702 51.9839 211.702 45.8399V43.2799C211.702 37.4772 210.763 32.8266 208.886 29.3279C207.094 25.8292 204.662 23.3119 201.59 21.7759C198.518 20.1546 195.105 19.3439 191.35 19.3439H181.75V71.0559Z" fill="#363636"/>
<path d="M263.01 89.9999V0.399902H328.29V18.0639H286.05V35.5999H324.45V52.2399H286.05V72.3359H328.29V89.9999H263.01Z" fill="#363636"/>
<path d="M355.685 89.9999V0.399902H379.237L404.069 45.8399L428.645 0.399902H451.685V89.9999H428.645V38.6719L410.085 72.7199H397.285L378.725 38.6719V89.9999H355.685Z" fill="#363636"/>
<path d="M474.552 89.9999L507.32 0.399902H530.36L563 89.9999H538.68L532.536 72.8479H502.584L496.44 89.9999H474.552ZM509.112 55.1839H526.008L517.56 28.5599L509.112 55.1839Z" fill="#363636"/>
<path d="M598.155 89.9999V19.3439H570.635V0.399902H648.715V19.3439H621.195V89.9999H598.155Z" fill="#363636"/>
<path d="M673.085 89.9999V0.399902H738.365V18.0639H696.125V35.5999H734.525V52.2399H696.125V72.3359H738.365V89.9999H673.085Z" fill="#363636"/>
<path d="M765.76 89.9999V0.399902H788.8V71.0559H827.2V89.9999H765.76Z" fill="#DE3031"/>
<path d="M851.56 89.9999V0.399902H874.6V36.3679L905.832 0.399902H930.92L897.64 37.2639L933.48 89.9999H906.6L882.024 52.2399L874.6 60.4319V89.9999H851.56Z" fill="#DE3031"/>
</svg>
