<svg width="819" height="154" viewBox="0 0 819 154" fill="none" xmlns="http://www.w3.org/2000/svg">
<path d="M41.9725 126V36.4H81.0125C88.5218 36.4 94.7512 37.6373 99.7005 40.112C104.735 42.5867 108.533 46.0427 111.093 50.48C113.653 54.9173 114.933 60.208 114.933 66.352C114.933 72.752 113.397 78.256 110.325 82.864C107.338 87.3867 102.815 90.7147 96.7565 92.848L117.493 126H91.8925L74.4845 95.28H65.0125V126H41.9725ZM65.0125 77.36H75.8925C82.0365 77.36 86.2178 76.464 88.4365 74.672C90.7405 72.7947 91.8925 70.0213 91.8925 66.352C91.8925 62.6827 90.7405 59.952 88.4365 58.16C86.2178 56.2827 82.0365 55.344 75.8925 55.344H65.0125V77.36ZM145.053 126V36.4H168.093V126H145.053ZM200.073 126V36.4H233.993C242.953 36.4 250.633 38.0213 257.033 41.264C263.433 44.5067 268.339 49.328 271.753 55.728C275.166 62.0427 276.873 69.8933 276.873 79.28V81.84C276.873 91.3973 275.123 99.4613 271.625 106.032C268.126 112.603 263.049 117.595 256.393 121.008C249.822 124.336 241.929 126 232.713 126H200.073ZM223.113 107.056H231.433C235.358 107.056 238.899 106.245 242.057 104.624C245.299 103.003 247.945 100.357 249.993 96.688C252.041 92.9333 253.065 87.984 253.065 81.84V79.28C253.065 73.4773 252.126 68.8267 250.249 65.328C248.457 61.8293 246.025 59.312 242.953 57.776C239.881 56.1547 236.467 55.344 232.713 55.344H223.113V107.056ZM304.373 126V36.4H369.653V54.064H327.413V71.6H365.813V88.24H327.413V108.336H369.653V126H304.373ZM397.048 126V36.4H420.6L445.432 81.84L470.008 36.4H493.048V126H470.008V74.672L451.448 108.72H438.648L420.088 74.672V126H397.048ZM523.723 126V36.4H589.003V54.064H546.763V71.6H585.163V88.24H546.763V108.336H589.003V126H523.723Z" fill="#FFFDF9"/>
<path d="M616.398 126V36.4H639.438V107.056H677.838V126H616.398ZM702.197 126V36.4H725.237V72.368L756.469 36.4H781.557L748.277 73.264L784.117 126H757.237L732.661 88.24L725.237 96.432V126H702.197Z" fill="#DE3031"/>
</svg>
