<svg width="933" height="90" viewBox="0 0 933 90" fill="none" xmlns="http://www.w3.org/2000/svg">
<path d="M0 89.6V0H39.04C46.5493 0 52.7787 1.23734 57.728 3.71201C62.7627 6.18667 66.56 9.64267 69.12 14.08C71.68 18.5173 72.96 23.808 72.96 29.952C72.96 36.352 71.424 41.856 68.352 46.464C65.3653 50.9867 60.8427 54.3147 54.784 56.448L75.52 89.6H49.92L32.512 58.88H23.04V89.6H0ZM23.04 40.96H33.92C40.064 40.96 44.2453 40.064 46.464 38.272C48.768 36.3947 49.92 33.6213 49.92 29.952C49.92 26.2827 48.768 23.552 46.464 21.76C44.2453 19.8827 40.064 18.944 33.92 18.944H23.04V40.96Z" fill="#FFFDF9"/>
<path d="M103.08 89.6V0H126.12V89.6H103.08Z" fill="#FFFDF9"/>
<path d="M158.1 89.6V0H192.02C200.98 0 208.66 1.62133 215.06 4.864C221.46 8.10667 226.367 12.928 229.78 19.328C233.193 25.6427 234.9 33.4933 234.9 42.88V45.44C234.9 54.9973 233.151 63.0613 229.652 69.632C226.153 76.2027 221.076 81.1947 214.42 84.608C207.849 87.936 199.956 89.6 190.74 89.6H158.1ZM181.14 70.656H189.46C193.385 70.656 196.927 69.8453 200.084 68.224C203.327 66.6027 205.972 63.9573 208.02 60.288C210.068 56.5333 211.092 51.584 211.092 45.44V42.88C211.092 37.0773 210.153 32.4267 208.276 28.928C206.484 25.4293 204.052 22.912 200.98 21.376C197.908 19.7547 194.495 18.944 190.74 18.944H181.14V70.656Z" fill="#FFFDF9"/>
<path d="M262.4 89.6V0H327.68V17.664H285.44V35.2H323.84V51.84H285.44V71.936H327.68V89.6H262.4Z" fill="#FFFDF9"/>
<path d="M355.075 89.6V0H378.627L403.459 45.44L428.035 0H451.075V89.6H428.035V38.272L409.475 72.32H396.675L378.115 38.272V89.6H355.075Z" fill="#FFFDF9"/>
<path d="M473.942 89.6L506.71 0H529.75L562.39 89.6H538.07L531.926 72.448H501.974L495.83 89.6H473.942ZM508.502 54.784H525.398L516.95 28.16L508.502 54.784Z" fill="#FFFDF9"/>
<path d="M597.545 89.6V18.944H570.025V0H648.105V18.944H620.585V89.6H597.545Z" fill="#FFFDF9"/>
<path d="M672.475 89.6V0H737.755V17.664H695.515V35.2H733.915V51.84H695.515V71.936H737.755V89.6H672.475Z" fill="#FFFDF9"/>
<path d="M765.15 89.6V0H788.19V70.656H826.59V89.6H765.15Z" fill="#DE3031"/>
<path d="M850.95 89.6V0H873.99V35.968L905.222 0H930.31L897.03 36.864L932.87 89.6H905.99L881.414 51.84L873.99 60.032V89.6H850.95Z" fill="#DE3031"/>
</svg>
