<svg width="743" height="90" viewBox="0 0 743 90" fill="none" xmlns="http://www.w3.org/2000/svg">
<path d="M0 89.6V0H39.04C46.5493 0 52.7787 1.23734 57.728 3.71201C62.7627 6.18667 66.56 9.64271 69.12 14.08C71.68 18.5173 72.96 23.808 72.96 29.952C72.96 36.352 71.424 41.856 68.352 46.464C65.3653 50.9867 60.8427 54.3147 54.784 56.448L75.52 89.6H49.92L32.512 58.88H23.04V89.6H0ZM23.04 40.96H33.92C40.064 40.96 44.2453 40.064 46.464 38.272C48.768 36.3947 49.92 33.6213 49.92 29.952C49.92 26.2827 48.768 23.552 46.464 21.76C44.2453 19.8827 40.064 18.944 33.92 18.944H23.04V40.96ZM103.08 89.6V0H126.12V89.6H103.08ZM158.1 89.6V0H192.02C200.98 0 208.66 1.62134 215.06 4.864C221.46 8.10667 226.366 12.928 229.78 19.328C233.193 25.6427 234.9 33.4933 234.9 42.88V45.44C234.9 54.9973 233.15 63.0613 229.652 69.632C226.153 76.2027 221.076 81.1947 214.42 84.608C207.849 87.936 199.956 89.6 190.74 89.6H158.1ZM181.14 70.656H189.46C193.385 70.656 196.926 69.8453 200.084 68.224C203.326 66.6027 205.972 63.9573 208.02 60.288C210.068 56.5333 211.092 51.584 211.092 45.44V42.88C211.092 37.0773 210.153 32.4267 208.276 28.928C206.484 25.4293 204.052 22.912 200.98 21.376C197.908 19.7547 194.494 18.944 190.74 18.944H181.14V70.656ZM262.4 89.6V0H327.681V17.664H285.44V35.2H323.84V51.84H285.44V71.936H327.681V89.6H262.4ZM355.076 89.6V0H378.628L403.46 45.44L428.035 0H451.076V89.6H428.035V38.272L409.475 72.32H396.676L378.116 38.272V89.6H355.076ZM481.75 89.6V0H547.03V17.664H504.79V35.2H543.19V51.84H504.79V71.936H547.03V89.6H481.75Z" fill="#FFFDF9"/>
<path d="M574.425 89.6V0H597.465V70.656H635.865V89.6H574.425ZM660.224 89.6V0H683.264V35.968L714.496 0H739.584L706.304 36.864L742.144 89.6H715.264L690.688 51.84L683.264 60.032V89.6H660.224Z" fill="#DE3031"/>
</svg>
