<svg width="990" height="297" viewBox="0 0 990 297" fill="none" xmlns="http://www.w3.org/2000/svg">
<path d="M684.007 12.4745C684.007 12.4745 697.977 1.51454 701.367 0.724544C704.757 -0.0654556 707.497 -0.715456 707.497 1.63454C707.497 3.98454 701.627 12.7345 702.407 15.9945C703.187 19.2545 684.007 12.4645 684.007 12.4645V12.4745Z" fill="#D6DBE1"/>
<path d="M880.687 244.365L861.647 261.405L832.017 263.335L688.717 260.565L262.757 256.755L251.457 260.565C251.457 260.565 234.297 260.095 227.297 260.605C220.297 261.125 120.157 263.335 120.157 263.335C120.157 263.335 99.1775 264.385 92.7275 268.725L73.8975 232.815L89.3775 146.565C89.3775 146.565 139.447 124.895 143.387 124.445C147.327 124.005 223.847 121.795 223.847 121.795L354.777 134.385L748.117 111.175L870.087 114.275L880.707 244.375L880.687 244.365Z" fill="black"/>
<path d="M978.047 210.535C978.047 210.535 975.317 218.015 975.787 220.035C976.267 222.055 981.487 225.145 981.487 228.585C981.487 232.025 975.787 242.835 969.967 243.545C969.967 243.545 968.067 253.045 961.657 253.045C955.247 253.045 913.097 254.355 913.097 254.355C913.097 254.355 958.697 204.365 978.047 210.545V210.535Z" fill="#333439"/>
<path d="M270.267 94.8946C270.267 94.8946 292.597 75.0946 314.427 64.9446C336.257 54.7946 411.487 13.7946 439.817 9.16463C468.147 4.53463 460.877 31.4446 460.877 32.2046C460.877 32.9646 276.867 137.285 270.267 94.8946Z" fill="#D6DBE1"/>
<path d="M915.627 103.155H958.097L961.397 105.195C961.397 105.195 976.117 116.175 964.697 141.055C953.277 165.935 896.767 138.825 915.637 103.155H915.627Z" fill="#D6DBE1"/>
<path d="M712.917 20.7844L732.717 20.0244C732.717 20.0244 828.847 42.8644 889.317 74.3344C949.787 105.814 853.027 92.3544 853.027 92.3544C853.027 92.3544 704.297 37.7844 712.927 20.7844H712.917Z" fill="#D6DBE1"/>
<path d="M261.347 85.8346C261.347 85.8346 274.327 81.8546 279.147 85.8346C283.967 89.8146 282.447 94.8946 282.447 94.8946L261.347 85.8346Z" fill="#D6DBE1"/>
<path d="M92.7072 268.725C92.7072 268.725 1.28722 262.145 0.017224 245.645C0.017224 245.645 -0.512776 242.095 4.30722 239.815C4.30722 239.815 1.24722 186.525 8.60722 170.025C15.9672 153.525 15.4572 133.225 53.0172 119.265C90.5772 105.305 180.427 88.8048 263.427 85.7648C263.427 85.7648 283.477 92.6148 294.137 92.3648C294.137 92.3648 413.427 20.2848 442.617 18.5048C442.617 18.5048 434.497 12.9248 436.527 10.3848C438.557 7.84478 507.847 -4.08522 595.407 1.50478C682.967 7.08478 732.717 20.0348 732.717 20.0348C732.717 20.0348 719.777 26.3848 721.547 27.3948C723.327 28.4048 856.577 72.5748 856.577 72.5748C856.577 72.5748 876.117 76.6348 886.777 72.0648C886.777 72.0648 910.377 78.4148 916.977 78.9148C923.577 79.4248 957.077 78.1548 957.587 82.2148C958.097 86.2748 957.077 93.6348 958.857 95.1548C960.637 96.6748 969.767 110.895 966.977 115.715L961.397 105.055C961.397 105.055 914.697 107.345 913.937 113.175C913.177 119.015 917.997 134.245 920.537 137.035C923.077 139.825 966.227 138.055 966.227 138.055C966.227 138.055 969.277 158.615 973.337 161.405C977.397 164.195 989.577 166.485 989.327 173.845C989.077 181.205 990.087 211.665 977.907 213.695C977.907 213.695 963.697 211.915 954.307 223.085C944.917 234.255 934.257 249.985 914.967 254.555C895.677 259.125 861.667 261.405 861.667 261.405C861.667 261.405 870.297 151.215 778.927 148.675C687.557 146.135 691.367 260.565 691.367 260.565H251.447C251.447 260.565 274.587 146.425 171.287 142.365C67.9872 138.305 92.7172 268.725 92.7172 268.725H92.7072Z" fill="#D6DBE1"/>
<path d="M668.057 26.3748C634.637 18.3548 525.007 8.99476 472.527 20.0248C420.057 31.0548 366.237 50.7748 316.107 92.5548L325.837 92.3548C337.617 82.8148 367.427 61.0348 413.707 43.0848C474.867 19.3548 515.317 17.3448 563.107 20.0248C610.907 22.7048 657.027 24.0348 687.107 38.7448C717.187 53.4548 750.277 75.5148 747.937 77.8548C745.887 79.9048 611.587 85.8248 578.907 87.2448L744.927 83.8848C744.927 83.8848 755.287 83.5348 755.287 79.1948C755.287 74.8548 701.477 34.4048 668.057 26.3848V26.3748Z" fill="#D6DBE1"/>
<path d="M687.107 38.7446C657.027 24.0346 610.897 22.7046 563.107 20.0246C515.307 17.3546 474.867 19.3546 413.707 43.0846C367.437 61.0446 337.617 82.8146 325.837 92.3546L578.917 87.2346C611.597 85.8246 745.887 79.9046 747.947 77.8446C750.287 75.5046 717.197 53.4446 687.117 38.7346L687.107 38.7446Z" fill="#D6DBE1"/>
<path d="M375.937 83.8748C375.937 83.8748 436.437 42.7548 483.557 34.7348C530.687 26.7148 585.497 31.0548 585.497 31.0548C585.497 31.0548 574.467 85.5348 569.787 87.8748C565.107 90.2148 365.987 91.5448 365.987 91.5448L375.937 83.8748Z" fill="#D6DBE1"/>
<path d="M614.917 33.0646L607.897 82.1946L714.517 78.5146C714.517 78.5146 725.547 78.8446 725.547 74.8346C725.547 70.8246 676.417 29.7146 614.917 33.0546V33.0646Z" fill="#D6DBE1"/>
<path d="M394.427 80.5247C394.707 78.7947 394.657 76.8947 394.127 74.8447C391.577 64.9347 385.537 55.2147 371.097 60.2147C356.657 65.2147 354.577 73.0547 352.697 80.6947C352.697 80.6947 344.867 78.5247 344.207 82.0147C343.807 84.1147 345.187 87.0447 347.197 89.2147C362.037 91.5947 382.287 85.1947 394.427 80.5247Z" fill="#D6DBE1"/>
<path d="M347.208 89.2047C348.548 90.6447 350.178 91.7447 351.768 92.0147C355.728 92.6747 362.808 94.0947 365.358 92.9547C367.908 91.8247 380.268 93.3047 384.228 92.2347C387.368 91.3847 393.358 87.1747 394.438 80.5247C382.298 85.1947 362.058 91.5947 347.208 89.2147V89.2047Z" fill="#D6DBE1"/>
<path d="M31.277 138.345C31.277 138.345 20.327 141.955 15.217 158.265C10.117 174.575 16.337 170.715 18.707 169.965C21.077 169.215 55.177 165.735 60.407 165.105C65.637 164.485 65.017 160.005 66.507 157.635C67.997 155.265 82.197 139.335 78.337 135.225C74.477 131.115 37.627 135.345 31.277 138.335V138.345Z" fill="#D6DBE1"/>
<path d="M7.37703 203.825C7.37703 203.825 7.87703 228.345 9.98703 231.955C12.107 235.565 17.327 239.175 25.297 240.175C33.267 241.175 48.327 242.415 49.567 232.085C50.817 221.755 52.927 202.335 52.927 202.335C52.927 202.335 6.74703 201.585 7.36703 203.825H7.37703Z" fill="#D6DBE1"/>
<path d="M253.147 243.005V241.875C253.837 241.875 274.577 241.655 304.037 241.355C296.857 230.415 297.557 206.915 297.587 205.895C297.567 205.245 295.657 136.835 300.287 117.305C304.967 97.6046 320.807 89.2846 320.967 89.2046C321.427 88.9246 370.797 58.8146 384.937 51.1146C418.607 32.7746 451.167 21.3446 476.597 18.9146C513.297 15.4146 592.087 16.9146 592.877 16.9346C595.827 17.2146 664.357 23.7746 677.597 29.3546C690.787 34.9146 736.807 63.0246 737.267 63.3146C737.937 63.6546 754.697 72.1446 755.627 78.1646C755.797 79.2746 755.467 80.2446 754.637 81.0446C750.627 84.9546 738.907 84.8046 724.067 84.6146C717.757 84.5346 711.247 84.4546 704.717 84.6846C684.257 85.4146 591.047 87.5946 583.087 87.7846C583.087 89.1946 583.307 93.2946 585.947 96.8946C586.407 97.5246 586.907 98.1646 587.417 98.8246C590.687 103.035 594.757 108.275 593.997 116.085C593.847 117.675 593.677 120.755 593.437 125.025C592.387 144.035 590.197 183.575 583.337 199.635C574.717 219.805 569.927 227.435 558.577 232.905C547.087 238.435 526.317 241.035 511.747 240.745C497.757 240.455 255.587 242.985 253.137 243.015L253.147 243.005ZM553.527 17.7446C528.177 17.7446 496.377 18.1846 476.717 20.0546C451.427 22.4646 419.027 33.8546 385.487 52.1246C371.367 59.8146 322.027 89.9046 321.527 90.2046C321.337 90.3046 305.947 98.4046 301.397 117.575C296.797 136.955 298.707 205.215 298.727 205.905C298.727 206.195 297.987 231.025 305.407 241.345C378.077 240.615 501.887 239.415 511.777 239.615C526.207 239.905 546.757 237.345 558.097 231.885C569.127 226.575 573.817 219.065 582.307 199.185C589.087 183.315 591.267 143.905 592.317 124.965C592.557 120.685 592.727 117.595 592.877 115.985C593.587 108.625 589.837 103.795 586.527 99.5246C586.007 98.8546 585.507 98.2046 585.037 97.5746C581.537 92.8146 581.957 87.4246 581.977 87.1946L582.017 86.6946H582.527C583.537 86.6546 683.417 84.3246 704.687 83.5746C711.237 83.3446 717.767 83.4246 724.087 83.5046C738.087 83.6846 750.177 83.8346 753.857 80.2546C754.417 79.7146 754.627 79.0846 754.517 78.3546C753.817 73.8346 741.437 66.6946 736.727 64.3246C736.227 64.0146 690.277 35.9446 677.167 30.4246C664.087 24.9146 593.537 18.1646 592.827 18.0946C592.477 18.0946 575.397 17.7646 553.527 17.7646V17.7446Z" fill="#D6DBE1"/>
<path d="M244.467 217.474C244.467 256.644 212.717 288.394 173.547 288.394C134.377 288.394 102.627 256.644 102.627 217.474C102.627 178.304 134.377 146.554 173.547 146.554C212.717 146.554 244.467 178.304 244.467 217.474Z" fill="#27262C"/>
<path d="M120.137 217.475C120.137 247.065 144.127 271.045 173.717 271.045C203.307 271.045 227.287 247.065 227.287 217.475C227.287 187.885 203.307 163.905 173.717 163.905C144.127 163.905 120.137 187.885 120.137 217.475Z" fill="#C3BFBE"/>
<path d="M155.128 181.554L167.528 195.644C167.528 195.644 169.668 199.024 172.598 199.024C175.528 199.024 177.668 196.654 177.668 196.654L190.628 181.554C190.628 181.554 192.428 179.414 190.628 177.944C188.828 176.484 182.498 174.334 173.718 174.334C164.938 174.334 151.968 176.704 155.128 181.544V181.554Z" fill="#27262C"/>
<path d="M155.128 253.395L167.528 239.305C167.528 239.305 169.678 235.925 172.598 235.925C175.518 235.925 177.668 238.295 177.668 238.295L190.628 253.395C190.628 253.395 192.428 255.535 190.628 257.005C188.828 258.465 182.498 260.615 173.718 260.615C164.938 260.615 151.968 258.245 155.128 253.405V253.395Z" fill="#27262C"/>
<path d="M210.068 199.565L195.978 211.965C195.978 211.965 192.598 214.105 192.598 217.035C192.598 219.965 194.968 222.105 194.968 222.105L210.068 235.065C210.068 235.065 212.208 236.865 213.668 235.065C215.138 233.265 217.278 226.935 217.278 218.155C217.278 209.375 214.908 196.405 210.058 199.565H210.068Z" fill="#27262C"/>
<path d="M138.238 199.565L152.328 211.965C152.328 211.965 155.708 214.105 155.708 217.035C155.708 219.965 153.338 222.105 153.338 222.105L138.238 235.065C138.238 235.065 136.098 236.865 134.628 235.065C133.168 233.265 131.018 226.935 131.018 218.155C131.018 209.375 133.388 196.405 138.238 199.565Z" fill="#27262C"/>
<path d="M849.187 225.964C849.187 265.134 817.437 296.884 778.267 296.884C739.097 296.884 707.347 265.134 707.347 225.964C707.347 186.794 739.097 155.044 778.267 155.044C817.437 155.044 849.187 186.794 849.187 225.964Z" fill="#27262C"/>
<path d="M724.867 225.965C724.867 255.555 748.857 279.535 778.447 279.535C808.037 279.535 832.017 255.555 832.017 225.965C832.017 196.375 808.037 172.395 778.447 172.395C748.857 172.395 724.867 196.385 724.867 225.965Z" fill="#C3BFBE"/>
<path d="M759.857 190.044L772.257 204.134C772.257 204.134 774.397 207.514 777.327 207.514C780.257 207.514 782.397 205.144 782.397 205.144L795.357 190.034C795.357 190.034 797.157 187.894 795.357 186.424C793.557 184.954 787.227 182.814 778.447 182.814C769.667 182.814 756.697 185.184 759.857 190.024V190.044Z" fill="#27262C"/>
<path d="M759.847 261.885L772.247 247.795C772.247 247.795 774.387 244.415 777.317 244.415C780.247 244.415 782.397 246.785 782.397 246.785L795.357 261.895C795.357 261.895 797.167 264.035 795.357 265.505C793.557 266.965 787.227 269.115 778.447 269.115C769.667 269.115 756.697 266.745 759.857 261.905L759.847 261.885Z" fill="#27262C"/>
<path d="M814.797 208.055L800.707 220.455C800.707 220.455 797.327 222.595 797.327 225.525C797.327 228.455 799.697 230.595 799.697 230.595L814.797 243.555C814.797 243.555 816.937 245.355 818.397 243.555C819.867 241.755 822.007 235.425 822.007 226.645C822.007 217.865 819.637 204.895 814.787 208.055H814.797Z" fill="#27262C"/>
<path d="M742.967 208.055L757.057 220.455C757.057 220.455 760.437 222.595 760.437 225.525C760.437 228.455 758.067 230.595 758.067 230.595L742.967 243.555C742.967 243.555 740.827 245.355 739.357 243.555C737.897 241.755 735.747 235.425 735.747 226.635C735.747 217.845 738.117 204.885 742.967 208.045V208.055Z" fill="#27262C"/>
<path d="M643.804 63.7951C646.516 61.083 650.334 58.1338 654.232 54.577L657.833 51.5587L648.018 40.5425L644.812 43.5411C631.246 55.8664 623.085 63.3159 619.099 78.5854C615.142 93.7661 614.984 109.134 615.399 123.5C615.833 138.31 616.392 148.081 620.531 158.979L622.092 162.995C626.064 172.989 632.076 188.085 632.076 207.505C632.076 230.965 622.572 242.865 603.829 242.865C586.776 242.865 577.578 231.483 576.501 208.997C576.012 199.033 578.808 186.732 581.747 173.735C584.232 162.763 586.791 151.411 588.051 139.362C589.444 126.079 587.7 116.584 582.597 110.883C576.047 103.567 565.964 102.92 557.082 102.92H554.38V34.4465C554.38 28.5185 550.077 23.8799 544.184 23.8799H442.217C436.334 23.8799 430.88 28.5185 430.88 34.4465V251.12H554.38V117.74H557.087C563.163 117.74 569.457 118.422 571.596 120.808C572.742 122.092 574.501 126.252 573.34 137.47C572.169 148.654 569.689 159.715 567.298 170.252C564.131 184.277 561.128 197.615 561.721 209.639C563.178 240.163 578.536 257.705 603.829 257.705C630.787 257.705 646.881 238.943 646.881 207.475C646.881 185.201 639.99 167.846 635.855 157.448L634.363 153.659C631.39 145.809 630.723 138.532 630.313 125.837C635.07 125.728 640.83 125.614 643.418 125.614C649.341 125.614 652.32 122.141 653.59 116.125C654.331 112.617 653.185 108.018 653.185 99.6694V97.4562C653.18 75.3893 649.806 69.0858 643.804 63.7951ZM539.56 107.86H445.7V43.6399H539.56V107.86ZM638.36 99.6891C638.36 104.002 639.496 108.127 639.353 110.75C636.399 110.794 633 110.873 629.542 110.952C629.67 101.423 630.728 91.7209 633.163 82.3794C633.825 79.8896 633.627 77.6962 634.625 75.6511C637.258 78.1853 638.36 81.9842 638.36 97.4661V99.6891Z" fill="#CF1100"/>
</svg>
